<?xml version="1.0" encoding="us-ascii" standalone="no"?><svg xmlns="http://www.w3.org/2000/svg" xmlns:xlink="http://www.w3.org/1999/xlink" contentStyleType="text/css" height="96px" preserveAspectRatio="none" style="width:613px;height:96px;background:#FFFFFF;" version="1.1" viewBox="0 0 613 96" width="613px" zoomAndPan="magnify"><defs/><g><g id="elem_LSE"><rect fill="#F1F1F1" height="47.2188" style="stroke:#181818;stroke-width:0.5;" width="93" x="7" y="24.5"/><text fill="#000000" font-family="sans-serif" font-size="14" lengthAdjust="spacing" textLength="26" x="40.5" y="41.0332">LSE</text><line style="stroke:#181818;stroke-width:0.5;" x1="8" x2="99" y1="46.1094" y2="46.1094"/><text fill="#000000" font-family="sans-serif" font-size="14" lengthAdjust="spacing" textLength="81" x="13" y="64.6426">freq = 32768</text></g><g id="elem_MSI"><rect fill="#F1F1F1" height="64.8281" style="stroke:#181818;stroke-width:0.5;" width="102" x="165.5" y="15.5"/><text fill="#000000" font-family="sans-serif" font-size="14" lengthAdjust="spacing" textLength="25" x="204" y="32.0332">MSI</text><line style="stroke:#181818;stroke-width:0.5;" x1="166.5" x2="266.5" y1="37.1094" y2="37.1094"/><text fill="#000000" font-family="sans-serif" font-size="14" lengthAdjust="spacing" textLength="90" x="171.5" y="55.6426">freq = 48 MHz</text><text fill="#000000" font-family="sans-serif" font-size="14" lengthAdjust="spacing" textLength="70" x="171.5" y="73.252">sync = true</text></g><g id="elem_PLL"><rect fill="#F1F1F1" height="82.4375" style="stroke:#181818;stroke-width:0.5;" width="61" x="350" y="7"/><text fill="#000000" font-family="sans-serif" font-size="14" lengthAdjust="spacing" textLength="25" x="368" y="23.5332">PLL</text><line style="stroke:#181818;stroke-width:0.5;" x1="351" x2="410" y1="28.6094" y2="28.6094"/><text fill="#000000" font-family="sans-serif" font-size="14" lengthAdjust="spacing" textLength="40" x="356" y="47.1426">/M = 3</text><text fill="#000000" font-family="sans-serif" font-size="14" lengthAdjust="spacing" textLength="49" x="356" y="64.752">xN = 10</text><text fill="#000000" font-family="sans-serif" font-size="14" lengthAdjust="spacing" textLength="38" x="356" y="82.3613">/R = 2</text></g><g id="elem_SYSCLK"><rect fill="#F1F1F1" height="47.2188" style="stroke:#181818;stroke-width:0.5;" width="102" x="504.5" y="24.5"/><text fill="#000000" font-family="sans-serif" font-size="14" lengthAdjust="spacing" textLength="54" x="528.5" y="41.0332">SYSCLK</text><line style="stroke:#181818;stroke-width:0.5;" x1="505.5" x2="605.5" y1="46.1094" y2="46.1094"/><text fill="#000000" font-family="sans-serif" font-size="14" lengthAdjust="spacing" textLength="90" x="510.5" y="64.6426">freq = 80 MHz</text></g><!--link LSE to MSI--><g id="link_LSE_MSI"><path codeLine="46" d="M100.21,48 C118.62,48 139.96,48 159.28,48 " fill="none" id="LSE-to-MSI" style="stroke:#181818;stroke-width:1.0;"/><polygon fill="#181818" points="164.21,48,155.21,44,159.21,48,155.21,52,164.21,48" style="stroke:#181818;stroke-width:1.0;"/><text fill="#000000" font-family="sans-serif" font-size="13" lengthAdjust="spacing" textLength="29" x="118.25" y="41.4951">trims</text></g><!--link MSI to PLL--><g id="link_MSI_PLL"><path codeLine="47" d="M267.94,48 C292.6,48 321.57,48 343.94,48 " fill="none" id="MSI-to-PLL" style="stroke:#181818;stroke-width:1.0;"/><polygon fill="#181818" points="348.77,48,339.77,44,343.77,48,339.77,52,348.77,48" style="stroke:#181818;stroke-width:1.0;"/><text fill="#000000" font-family="sans-serif" font-size="13" lengthAdjust="spacing" textLength="46" x="285.75" y="41.4951">sources</text></g><!--link PLL to SYSCLK--><g id="link_PLL_SYSCLK"><path codeLine="48" d="M411.38,48 C435.39,48 469.37,48 498.3,48 " fill="none" id="PLL-to-SYSCLK" style="stroke:#181818;stroke-width:1.0;"/><polygon fill="#181818" points="503.02,48,494.02,44,498.02,48,494.02,52,503.02,48" style="stroke:#181818;stroke-width:1.0;"/><text fill="#000000" font-family="sans-serif" font-size="13" lengthAdjust="spacing" textLength="57" x="429.25" y="41.4951">generates</text></g><!--SRC=[oq_AIaqkKV09TkK2OWKhXRIYr485MmLZ8tCp2wvyYAnli2SN42DaJImKV3sge6B5bNd9GB6Iej9Kc8O07nyk80PAwlk238DoAlo074C3c5GGa6S4qn8S6Upiuyq5eH0sMHY0RGAvJTTE0M8XqAhCt6AmxK0nY675-QL5oQd5OAE1Wd1ZqbFpKeiIIrAB0G00]--></g></svg>