<?xml version="1.0" encoding="us-ascii" standalone="no"?><svg xmlns="http://www.w3.org/2000/svg" xmlns:xlink="http://www.w3.org/1999/xlink" contentStyleType="text/css" height="223px" preserveAspectRatio="none" style="width:705px;height:223px;background:#FFFFFF;" version="1.1" viewBox="0 0 705 223" width="705px" zoomAndPan="magnify"><defs/><g><g id="elem_LSE"><rect fill="#F1F1F1" height="47.2188" style="stroke:#181818;stroke-width:0.5;" width="93" x="7" y="37.39"/><text fill="#000000" font-family="sans-serif" font-size="14" lengthAdjust="spacing" textLength="26" x="40.5" y="53.9232">LSE</text><line style="stroke:#181818;stroke-width:0.5;" x1="8" x2="99" y1="58.9994" y2="58.9994"/><text fill="#000000" font-family="sans-serif" font-size="14" lengthAdjust="spacing" textLength="81" x="13" y="77.5326">freq = 32768</text></g><g id="elem_MSI"><rect fill="#F1F1F1" height="64.8281" style="stroke:#181818;stroke-width:0.5;" width="102" x="165.5" y="28.59"/><text fill="#000000" font-family="sans-serif" font-size="14" lengthAdjust="spacing" textLength="25" x="204" y="45.1232">MSI</text><line style="stroke:#181818;stroke-width:0.5;" x1="166.5" x2="266.5" y1="50.1994" y2="50.1994"/><text fill="#000000" font-family="sans-serif" font-size="14" lengthAdjust="spacing" textLength="90" x="171.5" y="68.7326">freq = 48 MHz</text><text fill="#000000" font-family="sans-serif" font-size="14" lengthAdjust="spacing" textLength="70" x="171.5" y="86.342">sync = true</text></g><g id="elem_PLL"><rect fill="#F1F1F1" height="82.4375" style="stroke:#181818;stroke-width:0.5;" width="61" x="350" y="19.78"/><text fill="#000000" font-family="sans-serif" font-size="14" lengthAdjust="spacing" textLength="25" x="368" y="36.3132">PLL</text><line style="stroke:#181818;stroke-width:0.5;" x1="351" x2="410" y1="41.3894" y2="41.3894"/><text fill="#000000" font-family="sans-serif" font-size="14" lengthAdjust="spacing" textLength="40" x="356" y="59.9226">/M = 3</text><text fill="#000000" font-family="sans-serif" font-size="14" lengthAdjust="spacing" textLength="49" x="356" y="77.532">xN = 10</text><text fill="#000000" font-family="sans-serif" font-size="14" lengthAdjust="spacing" textLength="38" x="356" y="95.1413">/R = 2</text></g><g id="elem_SYSCLK"><rect fill="#F1F1F1" height="108.0469" style="stroke:#181818;stroke-width:0.5;" width="123" x="512" y="7"/><text fill="#000000" font-family="sans-serif" font-size="14" lengthAdjust="spacing" textLength="69" x="539" y="23.5332">Clock Tree</text><line style="stroke:#181818;stroke-width:1.0;" x1="512" x2="635" y1="28.6094" y2="28.6094"/><text fill="#000000" font-family="sans-serif" font-size="14" lengthAdjust="spacing" textLength="54" x="517" y="45.1426">SYSCLK</text><text fill="#000000" font-family="sans-serif" font-size="14" lengthAdjust="spacing" textLength="49" x="581" y="45.1426">80 MHz</text><line style="stroke:#181818;stroke-width:1.0;" x1="576" x2="576" y1="28.6094" y2="50.2188"/><line style="stroke:#181818;stroke-width:1.0;" x1="512" x2="635" y1="50.2188" y2="50.2188"/><text fill="#000000" font-family="sans-serif" font-size="14" lengthAdjust="spacing" textLength="37" x="525.5" y="66.752">HCLK</text><text fill="#000000" font-family="sans-serif" font-size="14" lengthAdjust="spacing" textLength="49" x="581" y="66.752">80 MHz</text><line style="stroke:#181818;stroke-width:1.0;" x1="576" x2="576" y1="50.2188" y2="71.8281"/><line style="stroke:#181818;stroke-width:1.0;" x1="512" x2="635" y1="71.8281" y2="71.8281"/><text fill="#000000" font-family="sans-serif" font-size="14" lengthAdjust="spacing" textLength="35" x="526.5" y="88.3613">APB1</text><text fill="#000000" font-family="sans-serif" font-size="14" lengthAdjust="spacing" textLength="49" x="581" y="88.3613">40 MHz</text><line style="stroke:#181818;stroke-width:1.0;" x1="576" x2="576" y1="71.8281" y2="93.4375"/><line style="stroke:#181818;stroke-width:1.0;" x1="512" x2="635" y1="93.4375" y2="93.4375"/><text fill="#000000" font-family="sans-serif" font-size="14" lengthAdjust="spacing" textLength="35" x="526.5" y="109.9707">APB2</text><text fill="#000000" font-family="sans-serif" font-size="14" lengthAdjust="spacing" textLength="49" x="581" y="109.9707">80 MHz</text><line style="stroke:#181818;stroke-width:1.0;" x1="576" x2="576" y1="93.4375" y2="115.0469"/></g><g id="elem_SysTick"><rect fill="#F1F1F1" height="37.6094" style="stroke:#181818;stroke-width:0.5;" width="63" x="452" y="180"/><text fill="#000000" font-family="sans-serif" font-size="14" lengthAdjust="spacing" textLength="49" x="459" y="196.5332">SysTick</text><line style="stroke:#181818;stroke-width:0.5;" x1="453" x2="514" y1="201.6094" y2="201.6094"/></g><g id="elem_TIMx"><rect fill="#F1F1F1" height="37.6094" style="stroke:#181818;stroke-width:0.5;" width="46" x="550.5" y="180"/><text fill="#000000" font-family="sans-serif" font-size="14" lengthAdjust="spacing" textLength="32" x="557.5" y="196.5332">TIMx</text><line style="stroke:#181818;stroke-width:0.5;" x1="551.5" x2="595.5" y1="201.6094" y2="201.6094"/></g><g id="elem_USARTx"><rect fill="#F1F1F1" height="37.6094" style="stroke:#181818;stroke-width:0.5;" width="68" x="631.5" y="180"/><text fill="#000000" font-family="sans-serif" font-size="14" lengthAdjust="spacing" textLength="54" x="638.5" y="196.5332">USARTx</text><line style="stroke:#181818;stroke-width:0.5;" x1="632.5" x2="698.5" y1="201.6094" y2="201.6094"/></g><!--link LSE to MSI--><g id="link_LSE_MSI"><path codeLine="53" d="M100.21,61 C118.62,61 139.96,61 159.28,61 " fill="none" id="LSE-to-MSI" style="stroke:#181818;stroke-width:1.0;"/><polygon fill="#181818" points="164.21,61,155.21,57,159.21,61,155.21,65,164.21,61" style="stroke:#181818;stroke-width:1.0;"/><text fill="#000000" font-family="sans-serif" font-size="13" lengthAdjust="spacing" textLength="29" x="118.25" y="54.4951">trims</text></g><!--link MSI to PLL--><g id="link_MSI_PLL"><path codeLine="54" d="M267.94,61 C292.6,61 321.57,61 343.94,61 " fill="none" id="MSI-to-PLL" style="stroke:#181818;stroke-width:1.0;"/><polygon fill="#181818" points="348.77,61,339.77,57,343.77,61,339.77,65,348.77,61" style="stroke:#181818;stroke-width:1.0;"/><text fill="#000000" font-family="sans-serif" font-size="13" lengthAdjust="spacing" textLength="46" x="285.75" y="54.4951">sources</text></g><!--link PLL to SYSCLK--><g id="link_PLL_SYSCLK"><path codeLine="55" d="M411.08,61 C434.6,61 468.11,61 498.6,61 " fill="none" id="PLL-to-SYSCLK" style="stroke:#181818;stroke-width:1.0;"/><polygon fill="#181818" points="503.25,61,494.25,57,498.25,61,494.25,65,503.25,61" style="stroke:#181818;stroke-width:1.0;"/><text fill="#000000" font-family="sans-serif" font-size="13" lengthAdjust="spacing" textLength="57" x="429" y="54.4951">generates</text></g><!--link SYSCLK to SysTick--><g id="link_SYSCLK_SysTick"><path codeLine="59" d="M535.85,118.81 C522.87,138.4 509.05,159.25 498.87,174.62 " fill="none" id="SYSCLK-to-SysTick" style="stroke:#181818;stroke-width:1.0;"/><polygon fill="#181818" points="495.56,178.6,503.8679,173.3105,498.3236,174.4332,497.201,168.8888,495.56,178.6" style="stroke:#181818;stroke-width:1.0;"/></g><!--link SYSCLK to TIMx--><g id="link_SYSCLK_TIMx"><path codeLine="60" d="M573.5,118.81 C573.5,138.06 573.5,158.53 573.5,173.81 " fill="none" id="SYSCLK-to-TIMx" style="stroke:#181818;stroke-width:1.0;"/><polygon fill="#181818" points="573.5,178.6,577.5,169.6,573.5,173.6,569.5,169.6,573.5,178.6" style="stroke:#181818;stroke-width:1.0;"/></g><!--link SYSCLK to USARTx--><g id="link_SYSCLK_USARTx"><path codeLine="61" d="M611.98,118.81 C625.37,138.57 639.63,159.62 650.06,175.02 " fill="none" id="SYSCLK-to-USARTx" style="stroke:#181818;stroke-width:1.0;"/><polygon fill="#181818" points="653.17,178.6,651.4059,168.9104,650.3538,174.4686,644.7956,173.4164,653.17,178.6" style="stroke:#181818;stroke-width:1.0;"/></g><!--SRC=[NO_B2i8m44NNdQyOt8jQYvQ2WefWiHKnTU6oXYW-gqc5glZlpjY8nLNct7ldaMozLpB7I8pn2Sv6golsiErsEpwy82lDM8GLq_CndZp0CVUp9CprJVsYyoZYQ2FcAU0KCtfRJH8MLBYKEwKNh8sEcJnWefMgOMfGhCGecdAVhNfzz9lbbiaV3-R35hFtOxVYlu1_Kkz_RWwGhjkT332GniS5QBARbie04ubsPO1RTLOwpScnVn5ta-pauOj961VVUYa6YwG0srldCJPSaJuD5IwRtW00]--></g></svg>