<?xml version="1.0" encoding="us-ascii" standalone="no"?><svg xmlns="http://www.w3.org/2000/svg" xmlns:xlink="http://www.w3.org/1999/xlink" contentStyleType="text/css" height="369px" preserveAspectRatio="none" style="width:480px;height:369px;background:#FFFFFF;" version="1.1" viewBox="0 0 480 369" width="480px" zoomAndPan="magnify"><defs/><g><!--entity etr--><g id="elem_etr"><ellipse cx="46" cy="43.41" fill="#F1F1F1" rx="8" ry="8" style="stroke:#181818;stroke-width:0.5;"/><text fill="#000000" font-family="sans-serif" font-size="14" lengthAdjust="spacing" textLength="28" x="32" y="74.9432">ETR</text></g><!--entity etrp--><g id="elem_etrp"><rect fill="#F1F1F1" height="72.8281" rx="2.5" ry="2.5" style="stroke:#181818;stroke-width:0.5;" width="153" x="90.5" y="7"/><text fill="#000000" font-family="sans-serif" font-size="14" lengthAdjust="spacing" textLength="113" x="100.5" y="31.5332">Polarity Selection:</text><text fill="#000000" font-family="sans-serif" font-size="14" font-weight="bold" lengthAdjust="spacing" textLength="41" x="100.5" y="49.1426">kETR:</text><text fill="#000000" font-family="sans-serif" font-size="14" lengthAdjust="spacing" textLength="75" x="145.5" y="49.1426">Rising edge</text><text fill="#000000" font-family="sans-serif" font-size="14" font-weight="bold" lengthAdjust="spacing" textLength="51" x="100.5" y="66.752">kETRN:</text><text fill="#000000" font-family="sans-serif" font-size="14" lengthAdjust="spacing" textLength="78" x="155.5" y="66.752">Falling edge</text></g><!--entity etrpp--><g id="elem_etrpp"><rect fill="#F1F1F1" height="37.6094" rx="2.5" ry="2.5" style="stroke:#181818;stroke-width:0.5;" width="80" x="278" y="24.61"/><text fill="#000000" font-family="sans-serif" font-size="14" lengthAdjust="spacing" textLength="60" x="288" y="49.1432">Prescaler</text></g><!--entity etrf--><g id="elem_etrf"><rect fill="#F1F1F1" height="37.6094" rx="2.5" ry="2.5" style="stroke:#181818;stroke-width:0.5;" width="52" x="393" y="24.61"/><text fill="#000000" font-family="sans-serif" font-size="14" lengthAdjust="spacing" textLength="32" x="403" y="49.1432">Filter</text></g><!--entity ch1--><g id="elem_ch1"><ellipse cx="40" cy="185.04" fill="#F1F1F1" rx="8" ry="8" style="stroke:#181818;stroke-width:0.5;"/><text fill="#000000" font-family="sans-serif" font-size="14" lengthAdjust="spacing" textLength="68" x="6" y="216.5732">TIMx_CH1</text></g><!--entity ch1p--><g id="elem_ch1p"><rect fill="#F1F1F1" height="90.4375" rx="2.5" ry="2.5" style="stroke:#181818;stroke-width:0.5;" width="172" x="84" y="139.82"/><text fill="#000000" font-family="sans-serif" font-size="14" lengthAdjust="spacing" textLength="113" x="94" y="164.3532">Polarity Selection:</text><text fill="#000000" font-family="sans-serif" font-size="14" font-weight="bold" lengthAdjust="spacing" textLength="70" x="94" y="181.9626">kTI1F_ED:</text><text fill="#000000" font-family="sans-serif" font-size="14" lengthAdjust="spacing" textLength="72" x="168" y="181.9626">Both edges</text><text fill="#000000" font-family="sans-serif" font-size="14" font-weight="bold" lengthAdjust="spacing" textLength="60" x="94" y="199.572">kTI1FP1:</text><text fill="#000000" font-family="sans-serif" font-size="14" lengthAdjust="spacing" textLength="75" x="158" y="199.572">Rising edge</text><text fill="#000000" font-family="sans-serif" font-size="14" font-weight="bold" lengthAdjust="spacing" textLength="70" x="94" y="217.1813">kTI1FP1N:</text><text fill="#000000" font-family="sans-serif" font-size="14" lengthAdjust="spacing" textLength="78" x="168" y="217.1813">Falling edge</text></g><!--entity ch1f--><g id="elem_ch1f"><rect fill="#F1F1F1" height="37.6094" rx="2.5" ry="2.5" style="stroke:#181818;stroke-width:0.5;" width="52" x="291" y="166.24"/><text fill="#000000" font-family="sans-serif" font-size="14" lengthAdjust="spacing" textLength="32" x="301" y="190.7732">Filter</text></g><!--entity tim--><g id="elem_tim"><rect fill="#F1F1F1" height="37.6094" rx="2.5" ry="2.5" style="stroke:#181818;stroke-width:0.5;" width="96" x="378" y="166.24"/><text fill="#000000" font-family="sans-serif" font-size="14" lengthAdjust="spacing" textLength="76" x="388" y="190.7732">TImer Block</text></g><!--entity ch2--><g id="elem_ch2"><ellipse cx="94" cy="326.68" fill="#F1F1F1" rx="8" ry="8" style="stroke:#181818;stroke-width:0.5;"/><text fill="#000000" font-family="sans-serif" font-size="14" lengthAdjust="spacing" textLength="68" x="60" y="358.2132">TIMx_CH2</text></g><!--entity ch2p--><g id="elem_ch2p"><rect fill="#F1F1F1" height="72.8281" rx="2.5" ry="2.5" style="stroke:#181818;stroke-width:0.5;" width="172" x="138" y="290.26"/><text fill="#000000" font-family="sans-serif" font-size="14" lengthAdjust="spacing" textLength="113" x="148" y="314.7932">Polarity Selection:</text><text fill="#000000" font-family="sans-serif" font-size="14" font-weight="bold" lengthAdjust="spacing" textLength="60" x="148" y="332.4026">kTI2FP1:</text><text fill="#000000" font-family="sans-serif" font-size="14" lengthAdjust="spacing" textLength="75" x="212" y="332.4026">Rising edge</text><text fill="#000000" font-family="sans-serif" font-size="14" font-weight="bold" lengthAdjust="spacing" textLength="70" x="148" y="350.012">kTI2FP1N:</text><text fill="#000000" font-family="sans-serif" font-size="14" lengthAdjust="spacing" textLength="78" x="222" y="350.012">Falling edge</text></g><!--entity ch2f--><g id="elem_ch2f"><rect fill="#F1F1F1" height="37.6094" rx="2.5" ry="2.5" style="stroke:#181818;stroke-width:0.5;" width="52" x="345" y="307.87"/><text fill="#000000" font-family="sans-serif" font-size="14" lengthAdjust="spacing" textLength="32" x="355" y="332.4032">Filter</text></g><!--link etr to etrp--><g id="link_etr_etrp"><path codeLine="702" d="M55.45,43.41 C65.08,43.41 74.7,43.41 84.32,43.41 " fill="none" id="etr-to-etrp" style="stroke:#181818;stroke-width:1.0;"/><polygon fill="#181818" points="89.31,43.41,80.31,39.41,84.31,43.41,80.31,47.41,89.31,43.41" style="stroke:#181818;stroke-width:1.0;"/></g><!--link etrp to etrpp--><g id="link_etrp_etrpp"><path codeLine="703" d="M243.97,43.41 C253.23,43.41 262.49,43.41 271.75,43.41 " fill="none" id="etrp-to-etrpp" style="stroke:#181818;stroke-width:1.0;"/><polygon fill="#181818" points="276.52,43.41,267.52,39.41,271.52,43.41,267.52,47.41,276.52,43.41" style="stroke:#181818;stroke-width:1.0;"/></g><!--link etrpp to etrf--><g id="link_etrpp_etrf"><path codeLine="704" d="M358.24,43.41 C367.81,43.41 377.37,43.41 386.94,43.41 " fill="none" id="etrpp-to-etrf" style="stroke:#181818;stroke-width:1.0;"/><polygon fill="#181818" points="391.89,43.41,382.89,39.41,386.89,43.41,382.89,47.41,391.89,43.41" style="stroke:#181818;stroke-width:1.0;"/></g><!--link ch1 to ch1p--><g id="link_ch1_ch1p"><path codeLine="705" d="M49.39,185.04 C58.89,185.04 68.38,185.04 77.87,185.04 " fill="none" id="ch1-to-ch1p" style="stroke:#181818;stroke-width:1.0;"/><polygon fill="#181818" points="82.79,185.04,73.79,181.04,77.79,185.04,73.79,189.04,82.79,185.04" style="stroke:#181818;stroke-width:1.0;"/></g><!--link ch1p to ch1f--><g id="link_ch1p_ch1f"><path codeLine="706" d="M256.42,185.04 C265.96,185.04 275.49,185.04 285.03,185.04 " fill="none" id="ch1p-to-ch1f" style="stroke:#181818;stroke-width:1.0;"/><polygon fill="#181818" points="289.97,185.04,280.97,181.04,284.97,185.04,280.97,189.04,289.97,185.04" style="stroke:#181818;stroke-width:1.0;"/></g><!--link ch2 to ch2p--><g id="link_ch2_ch2p"><path codeLine="707" d="M103.39,326.68 C112.89,326.68 122.38,326.68 131.87,326.68 " fill="none" id="ch2-to-ch2p" style="stroke:#181818;stroke-width:1.0;"/><polygon fill="#181818" points="136.79,326.68,127.79,322.68,131.79,326.68,127.79,330.68,136.79,326.68" style="stroke:#181818;stroke-width:1.0;"/></g><!--link ch2p to ch2f--><g id="link_ch2p_ch2f"><path codeLine="708" d="M310.42,326.68 C319.96,326.68 329.49,326.68 339.03,326.68 " fill="none" id="ch2p-to-ch2f" style="stroke:#181818;stroke-width:1.0;"/><polygon fill="#181818" points="343.97,326.68,334.97,322.68,338.97,326.68,334.97,330.68,343.97,326.68" style="stroke:#181818;stroke-width:1.0;"/></g><!--link etrf to tim--><g id="link_etrf_tim"><path codeLine="709" d="M419.92,62.66 C421.16,87.54 423.4,132.16 424.79,159.82 " fill="none" id="etrf-to-tim" style="stroke:#181818;stroke-width:1.0;"/><polygon fill="#181818" points="425.08,164.78,428.6111,155.5859,424.8225,159.7866,420.6217,155.998,425.08,164.78" style="stroke:#181818;stroke-width:1.0;"/></g><!--link ch1f to tim--><g id="link_ch1f_tim"><path codeLine="710" d="M343.4,185.04 C352.84,185.04 362.28,185.04 371.72,185.04 " fill="none" id="ch1f-to-tim" style="stroke:#181818;stroke-width:1.0;"/><polygon fill="#181818" points="376.6,185.04,367.6,181.04,371.6,185.04,367.6,189.04,376.6,185.04" style="stroke:#181818;stroke-width:1.0;"/></g><!--link ch2f to tim--><g id="link_ch2f_tim"><path codeLine="711" d="M378.19,307.42 C388.07,282.33 405.86,237.17 416.73,209.57 " fill="none" id="ch2f-to-tim" style="stroke:#181818;stroke-width:1.0;"/><polygon fill="#181818" points="418.81,205.3,411.7974,212.2155,416.9826,209.9541,419.244,215.1393,418.81,205.3" style="stroke:#181818;stroke-width:1.0;"/></g><!--link etr to ch1--><!--link ch1 to ch2--><!--SRC=[ZPB1Ri8m38RFpLD4tD5K7n7gWOrgFMn2h3U4K4dTDY8qACs1QTgxpqswjS16T_FlBudzsx6wH5kXuHyi4D88XNooJDSJdZKShM61GM6pkgGyoHFVi21OQPKPQT_v6ogYKjSpoixtqO5kpkOF-uYlPIFhacDUOezUFOipfNgulIxHrJ3OY4oXkJrHk0EnLDRJJsP_CP4cB-VTutFed8Wg73v2Sin9ceJnRldaErveMxbscm5TXNzPzNJSBRLnxML0hJmwc2P7ShPGMXn6tKBd5YxBmBXRkEi7_ka7RdT32-FJo6sMkH_K2Q- -PS5e66tSheQv_NZH0l0nj00w00LpNs5AYYR5t2n_OkY1gx-fP9vZlVLl-beNEVW2]--></g></svg>