<?xml version="1.0" encoding="us-ascii" standalone="no"?><svg xmlns="http://www.w3.org/2000/svg" xmlns:xlink="http://www.w3.org/1999/xlink" contentStyleType="text/css" height="377px" preserveAspectRatio="none" style="width:518px;height:377px;background:#FFFFFF;" version="1.1" viewBox="0 0 518 377" width="518px" zoomAndPan="magnify"><defs/><g><!--entity etr--><g id="elem_etr"><ellipse cx="56" cy="43.41" fill="#F1F1F1" rx="8" ry="8" style="stroke:#181818;stroke-width:0.5;"/><text fill="#000000" font-family="sans-serif" font-size="14" lengthAdjust="spacing" textLength="28" x="42" y="74.9432">ETR</text></g><!--entity etrp--><g id="elem_etrp"><rect fill="#F1F1F1" height="72.8281" rx="2.5" ry="2.5" style="stroke:#181818;stroke-width:0.5;" width="153" x="100.5" y="7"/><text fill="#000000" font-family="sans-serif" font-size="14" lengthAdjust="spacing" textLength="113" x="110.5" y="31.5332">Polarity Selection:</text><text fill="#000000" font-family="sans-serif" font-size="14" font-weight="bold" lengthAdjust="spacing" textLength="41" x="110.5" y="49.1426">kETR:</text><text fill="#000000" font-family="sans-serif" font-size="14" lengthAdjust="spacing" textLength="75" x="155.5" y="49.1426">Rising edge</text><text fill="#000000" font-family="sans-serif" font-size="14" font-weight="bold" lengthAdjust="spacing" textLength="51" x="110.5" y="66.752">kETRN:</text><text fill="#000000" font-family="sans-serif" font-size="14" lengthAdjust="spacing" textLength="78" x="165.5" y="66.752">Falling edge</text></g><!--entity etrpp--><g id="elem_etrpp"><rect fill="#F1F1F1" height="37.6094" rx="2.5" ry="2.5" style="stroke:#181818;stroke-width:0.5;" width="80" x="288" y="24.61"/><text fill="#000000" font-family="sans-serif" font-size="14" lengthAdjust="spacing" textLength="60" x="298" y="49.1432">Prescaler</text></g><!--entity etrf--><g id="elem_etrf"><rect fill="#F1F1F1" height="37.6094" rx="2.5" ry="2.5" style="stroke:#181818;stroke-width:0.5;" width="52" x="403" y="24.61"/><text fill="#000000" font-family="sans-serif" font-size="14" lengthAdjust="spacing" textLength="32" x="413" y="49.1432">Filter</text></g><!--entity ch1--><g id="elem_ch1"><ellipse cx="40" cy="189.04" fill="#F1F1F1" rx="8" ry="8" style="stroke:#181818;stroke-width:0.5;"/><text fill="#000000" font-family="sans-serif" font-size="14" lengthAdjust="spacing" textLength="68" x="6" y="220.5732">TIMx_CH1</text></g><!--entity ch1p--><g id="elem_ch1p"><rect fill="#F1F1F1" height="90.4375" rx="2.5" ry="2.5" style="stroke:#181818;stroke-width:0.5;" width="172" x="84" y="143.82"/><text fill="#000000" font-family="sans-serif" font-size="14" lengthAdjust="spacing" textLength="113" x="94" y="168.3532">Polarity Selection:</text><text fill="#000000" font-family="sans-serif" font-size="14" font-weight="bold" lengthAdjust="spacing" textLength="70" x="94" y="185.9626">kTI1F_ED:</text><text fill="#000000" font-family="sans-serif" font-size="14" lengthAdjust="spacing" textLength="72" x="168" y="185.9626">Both edges</text><text fill="#000000" font-family="sans-serif" font-size="14" font-weight="bold" lengthAdjust="spacing" textLength="60" x="94" y="203.572">kTI1FP1:</text><text fill="#000000" font-family="sans-serif" font-size="14" lengthAdjust="spacing" textLength="75" x="158" y="203.572">Rising edge</text><text fill="#000000" font-family="sans-serif" font-size="14" font-weight="bold" lengthAdjust="spacing" textLength="70" x="94" y="221.1813">kTI1FP1N:</text><text fill="#000000" font-family="sans-serif" font-size="14" lengthAdjust="spacing" textLength="78" x="168" y="221.1813">Falling edge</text></g><!--entity ch1f--><g id="elem_ch1f"><rect fill="#F1F1F1" height="37.6094" rx="2.5" ry="2.5" style="stroke:#181818;stroke-width:0.5;" width="52" x="291" y="170.24"/><text fill="#000000" font-family="sans-serif" font-size="14" lengthAdjust="spacing" textLength="32" x="301" y="194.7732">Filter</text></g><!--entity tim--><g id="elem_tim"><rect fill="#F1F1F1" height="98.4375" rx="2.5" ry="2.5" style="stroke:#181818;stroke-width:0.5;" width="134" x="378" y="139.82"/><text fill="#000000" font-family="sans-serif" font-size="14" lengthAdjust="spacing" textLength="75" x="388" y="164.3532">Timer Block</text><line style="stroke:#181818;stroke-width:1.0;" x1="379" x2="511" y1="167.4294" y2="167.4294"/><text fill="#000000" font-family="sans-serif" font-size="14" lengthAdjust="spacing" textLength="60" x="388" y="185.9626">Prescaler</text><text fill="#000000" font-family="sans-serif" font-size="14" lengthAdjust="spacing" textLength="51" x="388" y="203.572">Counter</text><text fill="#000000" font-family="sans-serif" font-size="14" lengthAdjust="spacing" textLength="114" x="388" y="221.1813">Capture/Compare</text></g><!--entity ch2--><g id="elem_ch2"><ellipse cx="104" cy="334.68" fill="#F1F1F1" rx="8" ry="8" style="stroke:#181818;stroke-width:0.5;"/><text fill="#000000" font-family="sans-serif" font-size="14" lengthAdjust="spacing" textLength="68" x="70" y="366.2132">TIMx_CH2</text></g><!--entity ch2p--><g id="elem_ch2p"><rect fill="#F1F1F1" height="72.8281" rx="2.5" ry="2.5" style="stroke:#181818;stroke-width:0.5;" width="172" x="148" y="298.26"/><text fill="#000000" font-family="sans-serif" font-size="14" lengthAdjust="spacing" textLength="113" x="158" y="322.7932">Polarity Selection:</text><text fill="#000000" font-family="sans-serif" font-size="14" font-weight="bold" lengthAdjust="spacing" textLength="60" x="158" y="340.4026">kTI2FP1:</text><text fill="#000000" font-family="sans-serif" font-size="14" lengthAdjust="spacing" textLength="75" x="222" y="340.4026">Rising edge</text><text fill="#000000" font-family="sans-serif" font-size="14" font-weight="bold" lengthAdjust="spacing" textLength="70" x="158" y="358.012">kTI2FP1N:</text><text fill="#000000" font-family="sans-serif" font-size="14" lengthAdjust="spacing" textLength="78" x="232" y="358.012">Falling edge</text></g><!--entity ch2f--><g id="elem_ch2f"><rect fill="#F1F1F1" height="37.6094" rx="2.5" ry="2.5" style="stroke:#181818;stroke-width:0.5;" width="52" x="355" y="315.87"/><text fill="#000000" font-family="sans-serif" font-size="14" lengthAdjust="spacing" textLength="32" x="365" y="340.4032">Filter</text></g><!--link etr to etrp--><g id="link_etr_etrp"><path codeLine="752" d="M65.45,43.41 C75.08,43.41 84.7,43.41 94.32,43.41 " fill="none" id="etr-to-etrp" style="stroke:#181818;stroke-width:1.0;"/><polygon fill="#181818" points="99.31,43.41,90.31,39.41,94.31,43.41,90.31,47.41,99.31,43.41" style="stroke:#181818;stroke-width:1.0;"/></g><!--link etrp to etrpp--><g id="link_etrp_etrpp"><path codeLine="753" d="M253.97,43.41 C263.23,43.41 272.49,43.41 281.75,43.41 " fill="none" id="etrp-to-etrpp" style="stroke:#181818;stroke-width:1.0;"/><polygon fill="#181818" points="286.52,43.41,277.52,39.41,281.52,43.41,277.52,47.41,286.52,43.41" style="stroke:#181818;stroke-width:1.0;"/></g><!--link etrpp to etrf--><g id="link_etrpp_etrf"><path codeLine="754" d="M368.24,43.41 C377.81,43.41 387.37,43.41 396.94,43.41 " fill="none" id="etrpp-to-etrf" style="stroke:#181818;stroke-width:1.0;"/><polygon fill="#181818" points="401.89,43.41,392.89,39.41,396.89,43.41,392.89,47.41,401.89,43.41" style="stroke:#181818;stroke-width:1.0;"/></g><!--link ch1 to ch1p--><g id="link_ch1_ch1p"><path codeLine="755" d="M49.39,189.04 C58.89,189.04 68.38,189.04 77.87,189.04 " fill="none" id="ch1-to-ch1p" style="stroke:#181818;stroke-width:1.0;"/><polygon fill="#181818" points="82.79,189.04,73.79,185.04,77.79,189.04,73.79,193.04,82.79,189.04" style="stroke:#181818;stroke-width:1.0;"/></g><!--link ch1p to ch1f--><g id="link_ch1p_ch1f"><path codeLine="756" d="M256.42,189.04 C265.96,189.04 275.49,189.04 285.03,189.04 " fill="none" id="ch1p-to-ch1f" style="stroke:#181818;stroke-width:1.0;"/><polygon fill="#181818" points="289.97,189.04,280.97,185.04,284.97,189.04,280.97,193.04,289.97,189.04" style="stroke:#181818;stroke-width:1.0;"/></g><!--link ch2 to ch2p--><g id="link_ch2_ch2p"><path codeLine="757" d="M113.39,334.68 C122.89,334.68 132.38,334.68 141.87,334.68 " fill="none" id="ch2-to-ch2p" style="stroke:#181818;stroke-width:1.0;"/><polygon fill="#181818" points="146.79,334.68,137.79,330.68,141.79,334.68,137.79,338.68,146.79,334.68" style="stroke:#181818;stroke-width:1.0;"/></g><!--link ch2p to ch2f--><g id="link_ch2p_ch2f"><path codeLine="758" d="M320.42,334.68 C329.96,334.68 339.49,334.68 349.03,334.68 " fill="none" id="ch2p-to-ch2f" style="stroke:#181818;stroke-width:1.0;"/><polygon fill="#181818" points="353.97,334.68,344.97,330.68,348.97,334.68,344.97,338.68,353.97,334.68" style="stroke:#181818;stroke-width:1.0;"/></g><!--link etrf to tim--><g id="link_etrf_tim"><path codeLine="759" d="M431.03,62.6 C433.02,80.5 436.16,108.71 438.96,133.86 " fill="none" id="etrf-to-tim" style="stroke:#181818;stroke-width:1.0;"/><polygon fill="#181818" points="439.59,138.5,442.5628,129.1105,439.0331,133.5311,434.6125,130.0015,439.59,138.5" style="stroke:#181818;stroke-width:1.0;"/></g><!--link ch1f to tim--><g id="link_ch1f_tim"><path codeLine="760" d="M343,189.04 C352.57,189.04 362.14,189.04 371.71,189.04 " fill="none" id="ch1f-to-tim" style="stroke:#181818;stroke-width:1.0;"/><polygon fill="#181818" points="376.66,189.04,367.66,185.04,371.66,189.04,367.66,193.04,376.66,189.04" style="stroke:#181818;stroke-width:1.0;"/></g><!--link ch2f to tim--><g id="link_ch2f_tim"><path codeLine="761" d="M389.02,315.68 C397.01,297.74 409.68,269.3 420.95,244.01 " fill="none" id="ch2f-to-tim" style="stroke:#181818;stroke-width:1.0;"/><polygon fill="#181818" points="423.33,239.67,416.0233,246.274,421.302,244.2402,423.3357,249.5189,423.33,239.67" style="stroke:#181818;stroke-width:1.0;"/></g><!--link etr to ch1--><!--link ch1 to ch2--><!--SRC=[ZPB1ReCm38RFv2cYtb55ZbN5eQneFMogEcvLLQLW86eWAAJIfcdlFfEmGTjjZ9D_Vo7sRyUe0am9chuJBnKwbK1dwsGtexobO3JnDAI6rmNcKJPqJpnlgoJNmhpH5v18XQeNc5sUmZF-kLZEJo7TYLRK1OMiW04zEnPpAGTuk2tHrz3Gfbo2lZ-HsmEnaCRH3s9-C95idbwFqMDWdQHbCBu4vPIJP1F4n_M3wtYbJ6dRRKTq6_ncrT5fjzZ6hPSHDQAoC14LEbj9bPvH-VXTZyUBrAKsBkADkMYOHwfgk8R9uR1-EEowApOz7FQdVVPF- -n-bRXVweVs8H3xu7hXr9VC2SwkYxjD4hjE9ph0NCmwm7h0Sc9VZeyA1qliwBzZDW1RVr-AB8FwuEvqjQvox1C0]--></g></svg>