<?xml version="1.0" encoding="us-ascii" standalone="no"?><svg xmlns="http://www.w3.org/2000/svg" xmlns:xlink="http://www.w3.org/1999/xlink" contentStyleType="text/css" height="65px" preserveAspectRatio="none" style="width:647px;height:65px;background:#FFFFFF;" version="1.1" viewBox="0 0 647 65" width="647px" zoomAndPan="magnify"><defs/><g><ellipse cx="16" cy="33.5" fill="#181818" rx="10" ry="10" style="stroke:none;stroke-width:1.0;"/><g id="LSE"><rect fill="#F1F1F1" height="52.7031" rx="12.5" ry="12.5" style="stroke:#181818;stroke-width:0.5;" width="245" x="61.5" y="7"/><line style="stroke:#181818;stroke-width:0.5;" x1="61.5" x2="306.5" y1="34.6094" y2="34.6094"/><text fill="#000000" font-family="sans-serif" font-size="14" lengthAdjust="spacing" textLength="26" x="171" y="26.5332">LSE</text><text fill="#000000" font-family="sans-serif" font-size="12" lengthAdjust="spacing" textLength="225" x="66.5" y="52.0664">Starts the LSE clock and waits until stable</text></g><g id="MSI"><rect fill="#F1F1F1" height="50" rx="12.5" ry="12.5" style="stroke:#181818;stroke-width:0.5;" width="50" x="342" y="8.5"/><line style="stroke:#181818;stroke-width:0.5;" x1="342" x2="392" y1="36.1094" y2="36.1094"/><text fill="#000000" font-family="sans-serif" font-size="14" lengthAdjust="spacing" textLength="25" x="354.5" y="28.0332">MSI</text></g><g id="PLL"><rect fill="#F1F1F1" height="50" rx="12.5" ry="12.5" style="stroke:#181818;stroke-width:0.5;" width="50" x="427" y="8.5"/><line style="stroke:#181818;stroke-width:0.5;" x1="427" x2="477" y1="36.1094" y2="36.1094"/><text fill="#000000" font-family="sans-serif" font-size="14" lengthAdjust="spacing" textLength="25" x="439.5" y="28.0332">PLL</text></g><g id="SYSCLK"><rect fill="#F1F1F1" height="50" rx="12.5" ry="12.5" style="stroke:#181818;stroke-width:0.5;" width="74" x="512" y="8.5"/><line style="stroke:#181818;stroke-width:0.5;" x1="512" x2="586" y1="36.1094" y2="36.1094"/><text fill="#000000" font-family="sans-serif" font-size="14" lengthAdjust="spacing" textLength="54" x="522" y="28.0332">SYSCLK</text></g><ellipse cx="631" cy="33.5" fill="none" rx="10" ry="10" style="stroke:#181818;stroke-width:1.0;"/><ellipse cx="631.5" cy="34" fill="#181818" rx="6" ry="6" style="stroke:none;stroke-width:1.0;"/><!--link *start* to LSE--><g id="link_*start*_LSE"><path d="M26.17,33.5 C35.79,33.5 45.4,33.5 55.02,33.5 " fill="none" id="*start*-to-LSE" style="stroke:#181818;stroke-width:1.0;"/><polygon fill="#181818" points="60.01,33.5,51.01,29.5,55.01,33.5,51.01,37.5,60.01,33.5" style="stroke:#181818;stroke-width:1.0;"/></g><!--link LSE to MSI--><g id="link_LSE_MSI"><path d="M306.95,33.5 C316.54,33.5 326.12,33.5 335.7,33.5 " fill="none" id="LSE-to-MSI" style="stroke:#181818;stroke-width:1.0;"/><polygon fill="#181818" points="340.67,33.5,331.67,29.5,335.67,33.5,331.67,37.5,340.67,33.5" style="stroke:#181818;stroke-width:1.0;"/></g><!--link MSI to PLL--><g id="link_MSI_PLL"><path d="M392.23,33.5 C401.77,33.5 411.31,33.5 420.85,33.5 " fill="none" id="MSI-to-PLL" style="stroke:#181818;stroke-width:1.0;"/><polygon fill="#181818" points="425.79,33.5,416.79,29.5,420.79,33.5,416.79,37.5,425.79,33.5" style="stroke:#181818;stroke-width:1.0;"/></g><!--link PLL to SYSCLK--><g id="link_PLL_SYSCLK"><path d="M477.39,33.5 C486.81,33.5 496.23,33.5 505.65,33.5 " fill="none" id="PLL-to-SYSCLK" style="stroke:#181818;stroke-width:1.0;"/><polygon fill="#181818" points="510.51,33.5,501.51,29.5,505.51,33.5,501.51,37.5,510.51,33.5" style="stroke:#181818;stroke-width:1.0;"/></g><!--link SYSCLK to *end*--><g id="link_SYSCLK_*end*"><path d="M586.48,33.5 C595.89,33.5 605.3,33.5 614.71,33.5 " fill="none" id="SYSCLK-to-*end*" style="stroke:#181818;stroke-width:1.0;"/><polygon fill="#181818" points="619.56,33.5,610.56,29.5,614.56,33.5,610.56,37.5,619.56,33.5" style="stroke:#181818;stroke-width:1.0;"/></g><!--SRC=[YzQALT2rK_09TkK2OWKhXU2InAAIOeMIZ5IGe49oJdvoja9YNef2UM8cKBmqhoGpHw6u934f9nMi0wZPDzYJ2uX1p00V7ouW1Z638uETVRov81H885eh5W00]--></g></svg>