<?xml version="1.0" encoding="us-ascii" standalone="no"?><svg xmlns="http://www.w3.org/2000/svg" xmlns:xlink="http://www.w3.org/1999/xlink" contentStyleType="text/css" height="65px" preserveAspectRatio="none" style="width:646px;height:65px;background:#FFFFFF;" version="1.1" viewBox="0 0 646 65" width="646px" zoomAndPan="magnify"><defs/><g><ellipse cx="16" cy="33.35" fill="#181818" rx="10" ry="10" style="stroke:none;stroke-width:1.0;"/><g id="LSE"><rect fill="#F1F1F1" height="52.7031" rx="12.5" ry="12.5" style="stroke:#181818;stroke-width:0.5;" width="245" x="61.5" y="7"/><line style="stroke:#181818;stroke-width:0.5;" x1="61.5" x2="306.5" y1="34.6094" y2="34.6094"/><text fill="#000000" font-family="sans-serif" font-size="14" lengthAdjust="spacing" textLength="26" x="171" y="26.5332">LSE</text><text fill="#000000" font-family="sans-serif" font-size="12" lengthAdjust="spacing" textLength="225" x="66.5" y="52.0664">Starts the LSE clock and waits until stable</text></g><g id="MSI"><rect fill="#F1F1F1" height="50" rx="12.5" ry="12.5" style="stroke:#181818;stroke-width:0.5;" width="50" x="341" y="8.35"/><line style="stroke:#181818;stroke-width:0.5;" x1="341" x2="391" y1="35.9594" y2="35.9594"/><text fill="#000000" font-family="sans-serif" font-size="14" lengthAdjust="spacing" textLength="25" x="353.5" y="27.8832">MSI</text></g><g id="PLL"><rect fill="#F1F1F1" height="50" rx="12.5" ry="12.5" style="stroke:#181818;stroke-width:0.5;" width="50" x="426" y="8.35"/><line style="stroke:#181818;stroke-width:0.5;" x1="426" x2="476" y1="35.9594" y2="35.9594"/><text fill="#000000" font-family="sans-serif" font-size="14" lengthAdjust="spacing" textLength="25" x="438.5" y="27.8832">PLL</text></g><g id="SYSCLK"><rect fill="#F1F1F1" height="50" rx="12.5" ry="12.5" style="stroke:#181818;stroke-width:0.5;" width="74" x="511" y="8.35"/><line style="stroke:#181818;stroke-width:0.5;" x1="511" x2="585" y1="35.9594" y2="35.9594"/><text fill="#000000" font-family="sans-serif" font-size="14" lengthAdjust="spacing" textLength="54" x="521" y="27.8832">SYSCLK</text></g><ellipse cx="630" cy="33.35" fill="none" rx="10" ry="10" style="stroke:#181818;stroke-width:1.0;"/><ellipse cx="630.5" cy="33.85" fill="#181818" rx="6" ry="6" style="stroke:none;stroke-width:1.0;"/><!--link *start* to LSE--><g id="link_*start*_LSE"><path d="M26.5,33.35 C36.1,33.35 45.69,33.35 55.29,33.35 " fill="none" id="*start*-to-LSE" style="stroke:#181818;stroke-width:1.0;"/><polygon fill="#181818" points="60.26,33.35,51.26,29.35,55.26,33.35,51.26,37.35,60.26,33.35" style="stroke:#181818;stroke-width:1.0;"/></g><!--link LSE to MSI--><g id="link_LSE_MSI"><path d="M306.99,33.35 C316.28,33.35 325.57,33.35 334.86,33.35 " fill="none" id="LSE-to-MSI" style="stroke:#181818;stroke-width:1.0;"/><polygon fill="#181818" points="339.65,33.35,330.65,29.35,334.65,33.35,330.65,37.35,339.65,33.35" style="stroke:#181818;stroke-width:1.0;"/></g><!--link MSI to PLL--><g id="link_MSI_PLL"><path d="M391.23,33.35 C400.77,33.35 410.31,33.35 419.85,33.35 " fill="none" id="MSI-to-PLL" style="stroke:#181818;stroke-width:1.0;"/><polygon fill="#181818" points="424.79,33.35,415.79,29.35,419.79,33.35,415.79,37.35,424.79,33.35" style="stroke:#181818;stroke-width:1.0;"/></g><!--link PLL to SYSCLK--><g id="link_PLL_SYSCLK"><path d="M476.39,33.35 C485.81,33.35 495.23,33.35 504.65,33.35 " fill="none" id="PLL-to-SYSCLK" style="stroke:#181818;stroke-width:1.0;"/><polygon fill="#181818" points="509.51,33.35,500.51,29.35,504.51,33.35,500.51,37.35,509.51,33.35" style="stroke:#181818;stroke-width:1.0;"/></g><!--link SYSCLK to *end*--><g id="link_SYSCLK_*end*"><path d="M585.48,33.35 C594.89,33.35 604.3,33.35 613.71,33.35 " fill="none" id="SYSCLK-to-*end*" style="stroke:#181818;stroke-width:1.0;"/><polygon fill="#181818" points="618.56,33.35,609.56,29.35,613.56,33.35,609.56,37.35,618.56,33.35" style="stroke:#181818;stroke-width:1.0;"/></g><!--SRC=[YzQALT2rK_09TkK2OWKhXU2InAAIOeMIZ5IGe49oJdvoja9YNef2UM8cKBmqhoGpHw6u934f9nMi0wZPDzYJ2uX1p00V7ouW1Z638uETVRov81H885eh5W00]--></g></svg>