<?xml version="1.0" encoding="us-ascii" standalone="no"?><svg xmlns="http://www.w3.org/2000/svg" xmlns:xlink="http://www.w3.org/1999/xlink" contentStyleType="text/css" height="584px" preserveAspectRatio="none" style="width:585px;height:584px;background:#FFFFFF;" version="1.1" viewBox="0 0 585 584" width="585px" zoomAndPan="magnify"><defs/><g><!--cluster Bmt--><g id="cluster_Bmt"><rect fill="none" height="571.31" rx="2.5" ry="2.5" style="stroke:#181818;stroke-width:1.0;" width="572" x="7" y="7"/><path d="M44,7 L44,17.6094 L34,27.6094 L7,27.6094 " fill="none" style="stroke:#181818;stroke-width:1.0;"/><text fill="#000000" font-family="sans-serif" font-size="14" font-weight="bold" lengthAdjust="spacing" textLength="27" x="10" y="22.5332">Bmt</text></g><!--cluster Timer--><g id="cluster_Timer"><path d="M33.5,51 L72.5,51 A3.75,3.75 0 0 1 75,53.5 L82,74.6094 L552.5,74.6094 A2.5,2.5 0 0 1 555,77.1094 L555,551.81 A2.5,2.5 0 0 1 552.5,554.31 L33.5,554.31 A2.5,2.5 0 0 1 31,551.81 L31,53.5 A2.5,2.5 0 0 1 33.5,51 " fill="#EEFFEE" style="stroke:#000000;stroke-width:1.5;"/><line style="stroke:#000000;stroke-width:1.5;" x1="31" x2="82" y1="74.6094" y2="74.6094"/><text fill="#000000" font-family="sans-serif" font-size="14" font-weight="bold" lengthAdjust="spacing" textLength="38" x="35" y="67.5332">Timer</text></g><!--entity filt--><g id="elem_filt"><ellipse cx="512" cy="168.63" fill="#F1F1F1" rx="8" ry="8" style="stroke:#181818;stroke-width:0.5;"/><text fill="#000000" font-family="sans-serif" font-size="14" lengthAdjust="spacing" textLength="32" x="496" y="200.1632">Filter</text></g><!--entity pre--><g id="elem_pre"><ellipse cx="412" cy="168.63" fill="#F1F1F1" rx="8" ry="8" style="stroke:#181818;stroke-width:0.5;"/><text fill="#000000" font-family="sans-serif" font-size="14" lengthAdjust="spacing" textLength="60" x="382" y="200.1632">Prescaler</text></g><!--entity freq--><g id="elem_freq"><ellipse cx="295" cy="168.63" fill="#F1F1F1" rx="8" ry="8" style="stroke:#181818;stroke-width:0.5;"/><text fill="#000000" font-family="sans-serif" font-size="14" lengthAdjust="spacing" textLength="72" x="259" y="200.1632">Period (Hz)</text></g><!--class ExtIn--><g id="elem_ExtIn"><rect codeLine="609" fill="#F1F1F1" height="163.2656" id="ExtIn" rx="2.5" ry="2.5" style="stroke:#181818;stroke-width:0.5;" width="76" x="140" y="87"/><ellipse cx="160.4" cy="103" fill="#EB937F" rx="11" ry="11" style="stroke:#181818;stroke-width:1.0;"/><path d="M159.2594,103.7969 L159.2594,106.2969 L163.5875,106.2969 L163.5875,105.375 Q163.5875,104.7656 163.8219,104.5 Q164.0719,104.2344 164.4469,104.2344 Q164.8219,104.2344 165.0563,104.5 Q165.2906,104.7656 165.2906,105.375 L165.2906,108 L157.2906,108 Q156.6656,108 156.4,107.7656 Q156.15,107.5312 156.15,107.1406 Q156.15,106.7656 156.4156,106.5312 Q156.6813,106.2969 157.2906,106.2969 L157.5563,106.2969 L157.5563,99.6406 L157.2906,99.6406 Q156.6656,99.6406 156.4,99.4062 Q156.15,99.1719 156.15,98.7812 Q156.15,98.4062 156.4,98.1719 Q156.6656,97.9375 157.2906,97.9375 L164.9156,97.9375 L164.9156,100.5312 Q164.9156,101.1406 164.6813,101.4062 Q164.4625,101.6562 164.0719,101.6562 Q163.6969,101.6562 163.4625,101.4062 Q163.2281,101.1406 163.2281,100.5312 L163.2281,99.6406 L159.2594,99.6406 L159.2594,102.0937 L160.7438,102.0937 Q160.7438,101.4375 160.8688,101.25 Q161.1344,100.8437 161.6031,100.8437 Q161.9781,100.8437 162.2125,101.1094 Q162.4469,101.3594 162.4469,101.9687 L162.4469,103.9375 Q162.4469,104.4844 162.3219,104.6719 Q162.0563,105.0625 161.6031,105.0625 Q161.1344,105.0625 160.8688,104.6562 Q160.7438,104.4687 160.7438,103.7969 L159.2594,103.7969 Z " fill="#000000"/><text fill="#000000" font-family="sans-serif" font-size="14" lengthAdjust="spacing" textLength="32" x="175.6" y="108.7285">ExtIn</text><line style="stroke:#181818;stroke-width:0.5;" x1="141" x2="215" y1="119" y2="119"/><text fill="#000000" font-family="sans-serif" font-size="14" lengthAdjust="spacing" textLength="35" x="146" y="137.5332">kETR</text><text fill="#000000" font-family="sans-serif" font-size="14" lengthAdjust="spacing" textLength="45" x="146" y="155.1426">kETRN</text><text fill="#000000" font-family="sans-serif" font-size="14" lengthAdjust="spacing" textLength="64" x="146" y="172.752">kTI1F_ED</text><text fill="#000000" font-family="sans-serif" font-size="14" lengthAdjust="spacing" textLength="54" x="146" y="190.3613">kTI1FP1</text><text fill="#000000" font-family="sans-serif" font-size="14" lengthAdjust="spacing" textLength="64" x="146" y="207.9707">kTI1FP1N</text><text fill="#000000" font-family="sans-serif" font-size="14" lengthAdjust="spacing" textLength="54" x="146" y="225.5801">kTI2FP2</text><text fill="#000000" font-family="sans-serif" font-size="14" lengthAdjust="spacing" textLength="64" x="146" y="243.1895">kTI2FP2N</text></g><!--class Unit--><g id="elem_Unit"><rect codeLine="618" fill="#F1F1F1" height="110.4375" id="Unit" rx="2.5" ry="2.5" style="stroke:#181818;stroke-width:0.5;" width="57" x="47.5" y="113.41"/><ellipse cx="62.5" cy="129.41" fill="#EB937F" rx="11" ry="11" style="stroke:#181818;stroke-width:1.0;"/><path d="M61.3594,130.2069 L61.3594,132.7069 L65.6875,132.7069 L65.6875,131.785 Q65.6875,131.1756 65.9219,130.91 Q66.1719,130.6444 66.5469,130.6444 Q66.9219,130.6444 67.1563,130.91 Q67.3906,131.1756 67.3906,131.785 L67.3906,134.41 L59.3906,134.41 Q58.7656,134.41 58.5,134.1756 Q58.25,133.9412 58.25,133.5506 Q58.25,133.1756 58.5156,132.9412 Q58.7813,132.7069 59.3906,132.7069 L59.6563,132.7069 L59.6563,126.0506 L59.3906,126.0506 Q58.7656,126.0506 58.5,125.8162 Q58.25,125.5819 58.25,125.1912 Q58.25,124.8162 58.5,124.5819 Q58.7656,124.3475 59.3906,124.3475 L67.0156,124.3475 L67.0156,126.9412 Q67.0156,127.5506 66.7813,127.8162 Q66.5625,128.0662 66.1719,128.0662 Q65.7969,128.0662 65.5625,127.8162 Q65.3281,127.5506 65.3281,126.9412 L65.3281,126.0506 L61.3594,126.0506 L61.3594,128.5037 L62.8438,128.5037 Q62.8438,127.8475 62.9688,127.66 Q63.2344,127.2537 63.7031,127.2537 Q64.0781,127.2537 64.3125,127.5194 Q64.5469,127.7694 64.5469,128.3787 L64.5469,130.3475 Q64.5469,130.8944 64.4219,131.0819 Q64.1563,131.4725 63.7031,131.4725 Q63.2344,131.4725 62.9688,131.0662 Q62.8438,130.8787 62.8438,130.2069 L61.3594,130.2069 Z " fill="#000000"/><text fill="#000000" font-family="sans-serif" font-size="14" lengthAdjust="spacing" textLength="25" x="76.5" y="135.1385">Unit</text><line style="stroke:#181818;stroke-width:0.5;" x1="48.5" x2="103.5" y1="145.41" y2="145.41"/><text fill="#000000" font-family="sans-serif" font-size="14" lengthAdjust="spacing" textLength="39" x="53.5" y="163.9432">kTim1</text><text fill="#000000" font-family="sans-serif" font-size="14" lengthAdjust="spacing" textLength="39" x="53.5" y="181.5526">kTim2</text><text fill="#000000" font-family="sans-serif" font-size="14" lengthAdjust="spacing" textLength="39" x="53.5" y="199.162">kTim3</text><text fill="#000000" font-family="sans-serif" font-size="14" lengthAdjust="spacing" textLength="39" x="53.5" y="216.7713">kTim4</text></g><!--class i_pre--><g id="elem_i_pre"><rect codeLine="624" fill="#F1F1F1" height="136.0469" id="i_pre" rx="2.5" ry="2.5" style="stroke:#181818;stroke-width:0.5;" width="135" x="227.5" y="310.26"/><ellipse cx="242.5" cy="326.26" fill="#ADD1B2" rx="11" ry="11" style="stroke:#181818;stroke-width:1.0;"/><path d="M245.2656,322.135 Q245.4219,321.9162 245.6094,321.8069 Q245.7969,321.6975 246.0156,321.6975 Q246.3906,321.6975 246.625,321.9631 Q246.8594,322.2131 246.8594,322.8225 L246.8594,324.2756 Q246.8594,324.885 246.625,325.1506 Q246.3906,325.4162 246.0156,325.4162 Q245.6719,325.4162 245.4688,325.2131 Q245.2656,325.0256 245.1563,324.51 Q245.1094,324.1506 244.9219,323.9631 Q244.5938,323.5881 243.9844,323.3694 Q243.375,323.1506 242.75,323.1506 Q241.9844,323.1506 241.3438,323.4787 Q240.7188,323.8069 240.2188,324.5569 Q239.7344,325.3069 239.7344,326.3381 L239.7344,327.4319 Q239.7344,328.6662 240.625,329.4944 Q241.5156,330.3069 243.1094,330.3069 Q244.0469,330.3069 244.7031,330.0569 Q245.0938,329.9006 245.5156,329.4631 Q245.7813,329.1975 245.9219,329.1194 Q246.0781,329.0412 246.2813,329.0412 Q246.6094,329.0412 246.8594,329.3069 Q247.125,329.5569 247.125,329.9006 Q247.125,330.2444 246.7813,330.6506 Q246.2813,331.2287 245.4844,331.5569 Q244.4063,332.01 243.1094,332.01 Q241.5938,332.01 240.3906,331.385 Q239.4063,330.885 238.7188,329.8225 Q238.0313,328.7444 238.0313,327.4631 L238.0313,326.3069 Q238.0313,324.9787 238.6406,323.8381 Q239.2656,322.6819 240.3594,322.0725 Q241.4531,321.4475 242.6875,321.4475 Q243.4219,321.4475 244.0625,321.6194 Q244.7188,321.7756 245.2656,322.135 Z " fill="#000000"/><text fill="#000000" font-family="sans-serif" font-size="14" lengthAdjust="spacing" textLength="103" x="256.5" y="331.9885">ExternalClock&lt;&gt;</text><line style="stroke:#181818;stroke-width:0.5;" x1="228.5" x2="361.5" y1="342.26" y2="342.26"/><text fill="#000000" font-family="sans-serif" font-size="14" lengthAdjust="spacing" text-decoration="underline" textLength="47" x="233.5" y="360.7932">kExtIn_</text><text fill="#000000" font-family="sans-serif" font-size="14" lengthAdjust="spacing" text-decoration="underline" textLength="83" x="233.5" y="378.4026">kFrequency_</text><text fill="#000000" font-family="sans-serif" font-size="14" lengthAdjust="spacing" text-decoration="underline" textLength="75" x="233.5" y="396.012">kPrescaler_</text><text fill="#000000" font-family="sans-serif" font-size="14" lengthAdjust="spacing" text-decoration="underline" textLength="107" x="233.5" y="413.6213">kInputPrescaler_</text><line style="stroke:#181818;stroke-width:0.5;" x1="228.5" x2="361.5" y1="420.6975" y2="420.6975"/><text fill="#000000" font-family="sans-serif" font-size="14" lengthAdjust="spacing" textLength="47" x="233.5" y="439.2307">Setup()</text></g><!--class any--><g id="elem_any"><rect codeLine="631" fill="#F1F1F1" height="32" id="any" rx="2.5" ry="2.5" style="stroke:#181818;stroke-width:0.5;" width="72" x="259" y="506.31"/><ellipse cx="274" cy="522.31" fill="#ADD1B2" rx="11" ry="11" style="stroke:#181818;stroke-width:1.0;"/><path d="M276.7656,518.185 Q276.9219,517.9663 277.1094,517.8569 Q277.2969,517.7475 277.5156,517.7475 Q277.8906,517.7475 278.125,518.0131 Q278.3594,518.2631 278.3594,518.8725 L278.3594,520.3256 Q278.3594,520.935 278.125,521.2006 Q277.8906,521.4663 277.5156,521.4663 Q277.1719,521.4663 276.9688,521.2631 Q276.7656,521.0756 276.6563,520.56 Q276.6094,520.2006 276.4219,520.0131 Q276.0938,519.6381 275.4844,519.4194 Q274.875,519.2006 274.25,519.2006 Q273.4844,519.2006 272.8438,519.5288 Q272.2188,519.8569 271.7188,520.6069 Q271.2344,521.3569 271.2344,522.3881 L271.2344,523.4819 Q271.2344,524.7163 272.125,525.5444 Q273.0156,526.3569 274.6094,526.3569 Q275.5469,526.3569 276.2031,526.1069 Q276.5938,525.9506 277.0156,525.5131 Q277.2813,525.2475 277.4219,525.1694 Q277.5781,525.0913 277.7813,525.0913 Q278.1094,525.0913 278.3594,525.3569 Q278.625,525.6069 278.625,525.9506 Q278.625,526.2944 278.2813,526.7006 Q277.7813,527.2788 276.9844,527.6069 Q275.9063,528.06 274.6094,528.06 Q273.0938,528.06 271.8906,527.435 Q270.9063,526.935 270.2188,525.8725 Q269.5313,524.7944 269.5313,523.5131 L269.5313,522.3569 Q269.5313,521.0288 270.1406,519.8881 Q270.7656,518.7319 271.8594,518.1225 Q272.9531,517.4975 274.1875,517.4975 Q274.9219,517.4975 275.5625,517.6694 Q276.2188,517.8256 276.7656,518.185 Z " fill="#000000"/><text fill="#000000" font-family="sans-serif" font-size="14" lengthAdjust="spacing" textLength="40" x="288" y="528.0385">Any&lt;&gt;</text></g><!--link ExtIn to i_pre--><g id="link_ExtIn_i_pre"><path codeLine="634" d="M216.47,237.91 C227.28,257.1 239.13,278.13 250.27,297.9 " fill="none" id="ExtIn-to-i_pre" style="stroke:#181818;stroke-width:1.0;"/><polygon fill="none" points="257.1,309.03,257.6452,301.8395,251.2175,298.5707,250.6723,305.7612,257.1,309.03" style="stroke:#181818;stroke-width:1.0;"/></g><!--link Unit to i_pre--><g id="link_Unit_i_pre"><path codeLine="635" d="M102.97,224.25 C108.63,233.4 115.03,242.44 122,250.26 C148.94,280.49 184.17,307.94 215.81,329.53 " fill="none" id="Unit-to-i_pre" style="stroke:#181818;stroke-width:1.0;"/><polygon fill="none" points="226.28,337.21,223.5187,330.5485,216.3076,330.5353,219.0689,337.1968,226.28,337.21" style="stroke:#181818;stroke-width:1.0;"/></g><!--link pre to i_pre--><g id="link_pre_i_pre"><path codeLine="636" d="M407.56,177.52 C395.81,198.36 362.99,256.61 335.8,304.87 " fill="none" id="pre-to-i_pre" style="stroke:#181818;stroke-width:1.0;"/><polygon fill="#181818" points="333.02,308.81,340.9251,302.9355,335.4761,304.4548,333.9567,299.0058,333.02,308.81" style="stroke:#181818;stroke-width:1.0;"/></g><!--link freq to i_pre--><g id="link_freq_i_pre"><path codeLine="637" d="M295,177.52 C295,198.23 295,255.91 295,303.99 " fill="none" id="freq-to-i_pre" style="stroke:#181818;stroke-width:1.0;"/><polygon fill="#181818" points="295,308.81,299,299.81,295,303.81,291,299.81,295,308.81" style="stroke:#181818;stroke-width:1.0;"/></g><!--link filt to i_pre--><g id="link_filt_i_pre"><path codeLine="638" d="M509.09,177.43 C503.13,192.68 488.36,226.97 468,250.26 C439.48,282.88 401.18,312.07 367.86,334.22 " fill="none" id="filt-to-i_pre" style="stroke:#181818;stroke-width:1.0;"/><polygon fill="#181818" points="363.98,337.44,373.6938,335.8144,368.1512,334.683,369.2826,329.1404,363.98,337.44" style="stroke:#181818;stroke-width:1.0;"/></g><!--link i_pre to any--><g id="link_i_pre_any"><path codeLine="639" d="M295,446.56 C295,462.53 295,478.76 295,491.99 " fill="none" id="i_pre-to-any" style="stroke:#181818;stroke-width:1.0;"/><polygon fill="none" points="295,504.96,299,498.96,295,492.96,291,498.96,295,504.96" style="stroke:#181818;stroke-width:1.0;"/></g><!--SRC=[NL5DJuGm53mllwB1o-w10-YHaBZQHYw6A9v9BSzi0otObaJSyDyj7qNOK-VDzBtEl4egGBUK0JeBW-AOA4ia2Rfw1xbAEHUWq1t6X60yIWV65Qi1-OJN1fIFg4PV5cwKJ85cj5x4Li5M0yMR4XrVVazpgu9lAuFi1C8_9fNJ6uSAvs_kV9r0deQamCyhpi8DT5SYaaKREDA3c_uXkLc6sr2X0v43zmuyB5sifbeZtxe29MdzL3UiYfF9DIzigddOLHjgE1jGDTalzXonyJgGhB_XrnNTyAbiExCNty5qxV6qD_Ke-yKAbRrdbS6RjnS4pUpEc_B-bwFX84YMQbpxjhGVk2ddU6FlEFt2IrZ-He2vDAMUgUc17MDlMq9yWj9_]--></g></svg>