<?xml version="1.0" encoding="us-ascii" standalone="no"?><svg xmlns="http://www.w3.org/2000/svg" xmlns:xlink="http://www.w3.org/1999/xlink" contentStyleType="text/css" height="518px" preserveAspectRatio="none" style="width:978px;height:518px;background:#FFFFFF;" version="1.1" viewBox="0 0 978 518" width="978px" zoomAndPan="magnify"><defs/><g><!--cluster Bmt--><g id="cluster_Bmt"><rect fill="none" height="505.66" rx="2.5" ry="2.5" style="stroke:#181818;stroke-width:1.0;" width="965" x="7" y="7"/><path d="M44,7 L44,17.6094 L34,27.6094 L7,27.6094 " fill="none" style="stroke:#181818;stroke-width:1.0;"/><text fill="#000000" font-family="sans-serif" font-size="14" font-weight="bold" lengthAdjust="spacing" textLength="27" x="10" y="22.5332">Bmt</text></g><!--cluster Clocks--><g id="cluster_Clocks"><path d="M619.5,51 L667.5,51 A3.75,3.75 0 0 1 670,53.5 L677,74.6094 L760.5,74.6094 A2.5,2.5 0 0 1 763,77.1094 L763,148.5 A2.5,2.5 0 0 1 760.5,151 L619.5,151 A2.5,2.5 0 0 1 617,148.5 L617,53.5 A2.5,2.5 0 0 1 619.5,51 " fill="#EEEEFF" style="stroke:#000000;stroke-width:1.5;"/><line style="stroke:#000000;stroke-width:1.5;" x1="617" x2="677" y1="74.6094" y2="74.6094"/><text fill="#000000" font-family="sans-serif" font-size="14" font-weight="bold" lengthAdjust="spacing" textLength="47" x="621" y="67.5332">Clocks</text></g><!--cluster Timer--><g id="cluster_Timer"><path d="M33.5,175 L72.5,175 A3.75,3.75 0 0 1 75,177.5 L82,198.6094 L945.5,198.6094 A2.5,2.5 0 0 1 948,201.1094 L948,486.16 A2.5,2.5 0 0 1 945.5,488.66 L33.5,488.66 A2.5,2.5 0 0 1 31,486.16 L31,177.5 A2.5,2.5 0 0 1 33.5,175 " fill="#EEFFEE" style="stroke:#000000;stroke-width:1.5;"/><line style="stroke:#000000;stroke-width:1.5;" x1="31" x2="82" y1="198.6094" y2="198.6094"/><text fill="#000000" font-family="sans-serif" font-size="14" font-weight="bold" lengthAdjust="spacing" textLength="38" x="35" y="191.5332">Timer</text></g><!--class clk--><g id="elem_clk"><rect codeLine="270" fill="#F1F1F1" height="48" id="clk" rx="2.5" ry="2.5" style="stroke:#181818;stroke-width:0.5;" width="115" x="632.5" y="87"/><ellipse cx="647.5" cy="103" fill="#ADD1B2" rx="11" ry="11" style="stroke:#181818;stroke-width:1.0;"/><path d="M650.2656,98.875 Q650.4219,98.6562 650.6094,98.5469 Q650.7969,98.4375 651.0156,98.4375 Q651.3906,98.4375 651.625,98.7031 Q651.8594,98.9531 651.8594,99.5625 L651.8594,101.0156 Q651.8594,101.625 651.625,101.8906 Q651.3906,102.1562 651.0156,102.1562 Q650.6719,102.1562 650.4688,101.9531 Q650.2656,101.7656 650.1563,101.25 Q650.1094,100.8906 649.9219,100.7031 Q649.5938,100.3281 648.9844,100.1094 Q648.375,99.8906 647.75,99.8906 Q646.9844,99.8906 646.3438,100.2187 Q645.7188,100.5469 645.2188,101.2969 Q644.7344,102.0469 644.7344,103.0781 L644.7344,104.1719 Q644.7344,105.4062 645.625,106.2344 Q646.5156,107.0469 648.1094,107.0469 Q649.0469,107.0469 649.7031,106.7969 Q650.0938,106.6406 650.5156,106.2031 Q650.7813,105.9375 650.9219,105.8594 Q651.0781,105.7812 651.2813,105.7812 Q651.6094,105.7812 651.8594,106.0469 Q652.125,106.2969 652.125,106.6406 Q652.125,106.9844 651.7813,107.3906 Q651.2813,107.9687 650.4844,108.2969 Q649.4063,108.75 648.1094,108.75 Q646.5938,108.75 645.3906,108.125 Q644.4063,107.625 643.7188,106.5625 Q643.0313,105.4844 643.0313,104.2031 L643.0313,103.0469 Q643.0313,101.7187 643.6406,100.5781 Q644.2656,99.4219 645.3594,98.8125 Q646.4531,98.1875 647.6875,98.1875 Q648.4219,98.1875 649.0625,98.3594 Q649.7188,98.5156 650.2656,98.875 Z " fill="#000000"/><text fill="#000000" font-family="sans-serif" font-size="14" lengthAdjust="spacing" textLength="83" x="661.5" y="108.7285">AnySycClk&lt;&gt;</text><line style="stroke:#181818;stroke-width:0.5;" x1="633.5" x2="746.5" y1="119" y2="119"/><line style="stroke:#181818;stroke-width:0.5;" x1="633.5" x2="746.5" y1="127" y2="127"/></g><!--class i_pre--><g id="elem_i_pre"><rect codeLine="273" fill="#F1F1F1" height="118.4375" id="i_pre" rx="2.5" ry="2.5" style="stroke:#181818;stroke-width:0.5;" width="131" x="801.5" y="228.61"/><ellipse cx="816.5" cy="244.61" fill="#ADD1B2" rx="11" ry="11" style="stroke:#181818;stroke-width:1.0;"/><path d="M819.2656,240.485 Q819.4219,240.2662 819.6094,240.1569 Q819.7969,240.0475 820.0156,240.0475 Q820.3906,240.0475 820.625,240.3131 Q820.8594,240.5631 820.8594,241.1725 L820.8594,242.6256 Q820.8594,243.235 820.625,243.5006 Q820.3906,243.7662 820.0156,243.7662 Q819.6719,243.7662 819.4688,243.5631 Q819.2656,243.3756 819.1563,242.86 Q819.1094,242.5006 818.9219,242.3131 Q818.5938,241.9381 817.9844,241.7194 Q817.375,241.5006 816.75,241.5006 Q815.9844,241.5006 815.3438,241.8287 Q814.7188,242.1569 814.2188,242.9069 Q813.7344,243.6569 813.7344,244.6881 L813.7344,245.7819 Q813.7344,247.0162 814.625,247.8444 Q815.5156,248.6569 817.1094,248.6569 Q818.0469,248.6569 818.7031,248.4069 Q819.0938,248.2506 819.5156,247.8131 Q819.7813,247.5475 819.9219,247.4694 Q820.0781,247.3912 820.2813,247.3912 Q820.6094,247.3912 820.8594,247.6569 Q821.125,247.9069 821.125,248.2506 Q821.125,248.5944 820.7813,249.0006 Q820.2813,249.5787 819.4844,249.9069 Q818.4063,250.36 817.1094,250.36 Q815.5938,250.36 814.3906,249.735 Q813.4063,249.235 812.7188,248.1725 Q812.0313,247.0944 812.0313,245.8131 L812.0313,244.6569 Q812.0313,243.3287 812.6406,242.1881 Q813.2656,241.0319 814.3594,240.4225 Q815.4531,239.7975 816.6875,239.7975 Q817.4219,239.7975 818.0625,239.9694 Q818.7188,240.1256 819.2656,240.485 Z " fill="#000000"/><text fill="#000000" font-family="sans-serif" font-size="14" lengthAdjust="spacing" textLength="99" x="830.5" y="250.3385">InternalClock&lt;&gt;</text><line style="stroke:#181818;stroke-width:0.5;" x1="802.5" x2="931.5" y1="260.61" y2="260.61"/><text fill="#000000" font-family="sans-serif" font-size="14" lengthAdjust="spacing" textLength="61" x="807.5" y="279.1432">kClkTick_</text><text fill="#000000" font-family="sans-serif" font-size="14" lengthAdjust="spacing" textLength="75" x="807.5" y="296.7526">kPrescaler_</text><text fill="#000000" font-family="sans-serif" font-size="14" lengthAdjust="spacing" textLength="83" x="807.5" y="314.362">kFrequency_</text><line style="stroke:#181818;stroke-width:0.5;" x1="802.5" x2="931.5" y1="321.4381" y2="321.4381"/><text fill="#000000" font-family="sans-serif" font-size="14" lengthAdjust="spacing" textLength="47" x="807.5" y="339.9713">Setup()</text></g><!--class i_us--><g id="elem_i_us"><rect codeLine="279" fill="#F1F1F1" height="136.0469" id="i_us" rx="2.5" ry="2.5" style="stroke:#181818;stroke-width:0.5;" width="154" x="613" y="219.81"/><ellipse cx="628" cy="235.81" fill="#ADD1B2" rx="11" ry="11" style="stroke:#181818;stroke-width:1.0;"/><path d="M630.7656,231.685 Q630.9219,231.4662 631.1094,231.3569 Q631.2969,231.2475 631.5156,231.2475 Q631.8906,231.2475 632.125,231.5131 Q632.3594,231.7631 632.3594,232.3725 L632.3594,233.8256 Q632.3594,234.435 632.125,234.7006 Q631.8906,234.9662 631.5156,234.9662 Q631.1719,234.9662 630.9688,234.7631 Q630.7656,234.5756 630.6563,234.06 Q630.6094,233.7006 630.4219,233.5131 Q630.0938,233.1381 629.4844,232.9194 Q628.875,232.7006 628.25,232.7006 Q627.4844,232.7006 626.8438,233.0287 Q626.2188,233.3569 625.7188,234.1069 Q625.2344,234.8569 625.2344,235.8881 L625.2344,236.9819 Q625.2344,238.2162 626.125,239.0444 Q627.0156,239.8569 628.6094,239.8569 Q629.5469,239.8569 630.2031,239.6069 Q630.5938,239.4506 631.0156,239.0131 Q631.2813,238.7475 631.4219,238.6694 Q631.5781,238.5912 631.7813,238.5912 Q632.1094,238.5912 632.3594,238.8569 Q632.625,239.1069 632.625,239.4506 Q632.625,239.7944 632.2813,240.2006 Q631.7813,240.7787 630.9844,241.1069 Q629.9063,241.56 628.6094,241.56 Q627.0938,241.56 625.8906,240.935 Q624.9063,240.435 624.2188,239.3725 Q623.5313,238.2944 623.5313,237.0131 L623.5313,235.8569 Q623.5313,234.5287 624.1406,233.3881 Q624.7656,232.2319 625.8594,231.6225 Q626.9531,230.9975 628.1875,230.9975 Q628.9219,230.9975 629.5625,231.1694 Q630.2188,231.3256 630.7656,231.685 Z " fill="#000000"/><text fill="#000000" font-family="sans-serif" font-size="14" lengthAdjust="spacing" textLength="122" x="642" y="241.5385">InternalClock_us&lt;&gt;</text><line style="stroke:#181818;stroke-width:0.5;" x1="614" x2="766" y1="251.81" y2="251.81"/><text fill="#000000" font-family="sans-serif" font-size="14" lengthAdjust="spacing" textLength="61" x="619" y="270.3432">kClkTick_</text><text fill="#000000" font-family="sans-serif" font-size="14" lengthAdjust="spacing" textLength="78" x="619" y="287.9526">kTimerTick_</text><text fill="#000000" font-family="sans-serif" font-size="14" lengthAdjust="spacing" textLength="75" x="619" y="305.562">kPrescaler_</text><text fill="#000000" font-family="sans-serif" font-size="14" lengthAdjust="spacing" textLength="83" x="619" y="323.1713">kFrequency_</text><line style="stroke:#181818;stroke-width:0.5;" x1="614" x2="766" y1="330.2475" y2="330.2475"/><text fill="#000000" font-family="sans-serif" font-size="14" lengthAdjust="spacing" textLength="47" x="619" y="348.7807">Setup()</text></g><!--class i_hz--><g id="elem_i_hz"><rect codeLine="286" fill="#F1F1F1" height="118.4375" id="i_hz" rx="2.5" ry="2.5" style="stroke:#181818;stroke-width:0.5;" width="154" x="424" y="228.61"/><ellipse cx="439" cy="244.61" fill="#ADD1B2" rx="11" ry="11" style="stroke:#181818;stroke-width:1.0;"/><path d="M441.7656,240.485 Q441.9219,240.2662 442.1094,240.1569 Q442.2969,240.0475 442.5156,240.0475 Q442.8906,240.0475 443.125,240.3131 Q443.3594,240.5631 443.3594,241.1725 L443.3594,242.6256 Q443.3594,243.235 443.125,243.5006 Q442.8906,243.7662 442.5156,243.7662 Q442.1719,243.7662 441.9688,243.5631 Q441.7656,243.3756 441.6563,242.86 Q441.6094,242.5006 441.4219,242.3131 Q441.0938,241.9381 440.4844,241.7194 Q439.875,241.5006 439.25,241.5006 Q438.4844,241.5006 437.8438,241.8287 Q437.2188,242.1569 436.7188,242.9069 Q436.2344,243.6569 436.2344,244.6881 L436.2344,245.7819 Q436.2344,247.0162 437.125,247.8444 Q438.0156,248.6569 439.6094,248.6569 Q440.5469,248.6569 441.2031,248.4069 Q441.5938,248.2506 442.0156,247.8131 Q442.2813,247.5475 442.4219,247.4694 Q442.5781,247.3912 442.7813,247.3912 Q443.1094,247.3912 443.3594,247.6569 Q443.625,247.9069 443.625,248.2506 Q443.625,248.5944 443.2813,249.0006 Q442.7813,249.5787 441.9844,249.9069 Q440.9063,250.36 439.6094,250.36 Q438.0938,250.36 436.8906,249.735 Q435.9063,249.235 435.2188,248.1725 Q434.5313,247.0944 434.5313,245.8131 L434.5313,244.6569 Q434.5313,243.3287 435.1406,242.1881 Q435.7656,241.0319 436.8594,240.4225 Q437.9531,239.7975 439.1875,239.7975 Q439.9219,239.7975 440.5625,239.9694 Q441.2188,240.1256 441.7656,240.485 Z " fill="#000000"/><text fill="#000000" font-family="sans-serif" font-size="14" lengthAdjust="spacing" textLength="122" x="453" y="250.3385">InternalClock_hz&lt;&gt;</text><line style="stroke:#181818;stroke-width:0.5;" x1="425" x2="577" y1="260.61" y2="260.61"/><text fill="#000000" font-family="sans-serif" font-size="14" lengthAdjust="spacing" textLength="61" x="430" y="279.1432">kClkTick_</text><text fill="#000000" font-family="sans-serif" font-size="14" lengthAdjust="spacing" textLength="75" x="430" y="296.7526">kPrescaler_</text><text fill="#000000" font-family="sans-serif" font-size="14" lengthAdjust="spacing" textLength="83" x="430" y="314.362">kFrequency_</text><line style="stroke:#181818;stroke-width:0.5;" x1="425" x2="577" y1="321.4381" y2="321.4381"/><text fill="#000000" font-family="sans-serif" font-size="14" lengthAdjust="spacing" textLength="47" x="430" y="339.9713">Setup()</text></g><!--class ext--><g id="elem_ext"><rect codeLine="292" fill="#F1F1F1" height="153.6563" id="ext" rx="2.5" ry="2.5" style="stroke:#181818;stroke-width:0.5;" width="135" x="253.5" y="211"/><ellipse cx="268.5" cy="227" fill="#ADD1B2" rx="11" ry="11" style="stroke:#181818;stroke-width:1.0;"/><path d="M271.2656,222.875 Q271.4219,222.6562 271.6094,222.5469 Q271.7969,222.4375 272.0156,222.4375 Q272.3906,222.4375 272.625,222.7031 Q272.8594,222.9531 272.8594,223.5625 L272.8594,225.0156 Q272.8594,225.625 272.625,225.8906 Q272.3906,226.1562 272.0156,226.1562 Q271.6719,226.1562 271.4688,225.9531 Q271.2656,225.7656 271.1563,225.25 Q271.1094,224.8906 270.9219,224.7031 Q270.5938,224.3281 269.9844,224.1094 Q269.375,223.8906 268.75,223.8906 Q267.9844,223.8906 267.3438,224.2187 Q266.7188,224.5469 266.2188,225.2969 Q265.7344,226.0469 265.7344,227.0781 L265.7344,228.1719 Q265.7344,229.4062 266.625,230.2344 Q267.5156,231.0469 269.1094,231.0469 Q270.0469,231.0469 270.7031,230.7969 Q271.0938,230.6406 271.5156,230.2031 Q271.7813,229.9375 271.9219,229.8594 Q272.0781,229.7812 272.2813,229.7812 Q272.6094,229.7812 272.8594,230.0469 Q273.125,230.2969 273.125,230.6406 Q273.125,230.9844 272.7813,231.3906 Q272.2813,231.9687 271.4844,232.2969 Q270.4063,232.75 269.1094,232.75 Q267.5938,232.75 266.3906,232.125 Q265.4063,231.625 264.7188,230.5625 Q264.0313,229.4844 264.0313,228.2031 L264.0313,227.0469 Q264.0313,225.7187 264.6406,224.5781 Q265.2656,223.4219 266.3594,222.8125 Q267.4531,222.1875 268.6875,222.1875 Q269.4219,222.1875 270.0625,222.3594 Q270.7188,222.5156 271.2656,222.875 Z " fill="#000000"/><text fill="#000000" font-family="sans-serif" font-size="14" lengthAdjust="spacing" textLength="103" x="282.5" y="232.7285">ExternalClock&lt;&gt;</text><line style="stroke:#181818;stroke-width:0.5;" x1="254.5" x2="387.5" y1="243" y2="243"/><text fill="#000000" font-family="sans-serif" font-size="14" lengthAdjust="spacing" textLength="47" x="259.5" y="261.5332">kExtIn_</text><text fill="#000000" font-family="sans-serif" font-size="14" lengthAdjust="spacing" textLength="61" x="259.5" y="279.1426">kClkTick_</text><text fill="#000000" font-family="sans-serif" font-size="14" lengthAdjust="spacing" textLength="75" x="259.5" y="296.752">kPrescaler_</text><text fill="#000000" font-family="sans-serif" font-size="14" lengthAdjust="spacing" textLength="83" x="259.5" y="314.3613">kFrequency_</text><text fill="#000000" font-family="sans-serif" font-size="14" lengthAdjust="spacing" textLength="107" x="259.5" y="331.9707">kInputPrescaler_</text><line style="stroke:#181818;stroke-width:0.5;" x1="254.5" x2="387.5" y1="339.0469" y2="339.0469"/><text fill="#000000" font-family="sans-serif" font-size="14" lengthAdjust="spacing" textLength="47" x="259.5" y="357.5801">Setup()</text></g><!--class ms--><g id="elem_ms"><rect codeLine="300" fill="#F1F1F1" height="100.8281" id="ms" rx="2.5" ry="2.5" style="stroke:#181818;stroke-width:0.5;" width="171" x="47.5" y="237.42"/><ellipse cx="62.5" cy="253.42" fill="#ADD1B2" rx="11" ry="11" style="stroke:#181818;stroke-width:1.0;"/><path d="M65.2656,249.295 Q65.4219,249.0762 65.6094,248.9669 Q65.7969,248.8575 66.0156,248.8575 Q66.3906,248.8575 66.625,249.1231 Q66.8594,249.3731 66.8594,249.9825 L66.8594,251.4356 Q66.8594,252.045 66.625,252.3106 Q66.3906,252.5762 66.0156,252.5762 Q65.6719,252.5762 65.4688,252.3731 Q65.2656,252.1856 65.1563,251.67 Q65.1094,251.3106 64.9219,251.1231 Q64.5938,250.7481 63.9844,250.5294 Q63.375,250.3106 62.75,250.3106 Q61.9844,250.3106 61.3438,250.6387 Q60.7188,250.9669 60.2188,251.7169 Q59.7344,252.4669 59.7344,253.4981 L59.7344,254.5919 Q59.7344,255.8262 60.625,256.6544 Q61.5156,257.4669 63.1094,257.4669 Q64.0469,257.4669 64.7031,257.2169 Q65.0938,257.0606 65.5156,256.6231 Q65.7813,256.3575 65.9219,256.2794 Q66.0781,256.2012 66.2813,256.2012 Q66.6094,256.2012 66.8594,256.4669 Q67.125,256.7169 67.125,257.0606 Q67.125,257.4044 66.7813,257.8106 Q66.2813,258.3887 65.4844,258.7169 Q64.4063,259.17 63.1094,259.17 Q61.5938,259.17 60.3906,258.545 Q59.4063,258.045 58.7188,256.9825 Q58.0313,255.9044 58.0313,254.6231 L58.0313,253.4669 Q58.0313,252.1387 58.6406,250.9981 Q59.2656,249.8419 60.3594,249.2325 Q61.4531,248.6075 62.6875,248.6075 Q63.4219,248.6075 64.0625,248.7794 Q64.7188,248.9356 65.2656,249.295 Z " fill="#000000"/><text fill="#000000" font-family="sans-serif" font-size="14" lengthAdjust="spacing" textLength="139" x="76.5" y="259.1485">MasterSlaveTimers&lt;&gt;</text><line style="stroke:#181818;stroke-width:0.5;" x1="48.5" x2="217.5" y1="269.42" y2="269.42"/><text fill="#000000" font-family="sans-serif" font-size="14" lengthAdjust="spacing" textLength="96" x="53.5" y="287.9532">kMasterTimer_</text><text fill="#000000" font-family="sans-serif" font-size="14" lengthAdjust="spacing" textLength="75" x="53.5" y="305.5626">kPrescaler_</text><line style="stroke:#181818;stroke-width:0.5;" x1="48.5" x2="217.5" y1="312.6387" y2="312.6387"/><text fill="#000000" font-family="sans-serif" font-size="14" lengthAdjust="spacing" textLength="47" x="53.5" y="331.172">Setup()</text></g><!--class any--><g id="elem_any"><rect codeLine="305" fill="#F1F1F1" height="48" id="any" rx="2.5" ry="2.5" style="stroke:#181818;stroke-width:0.5;" width="72" x="465" y="424.66"/><ellipse cx="480" cy="440.66" fill="#ADD1B2" rx="11" ry="11" style="stroke:#181818;stroke-width:1.0;"/><path d="M482.7656,436.535 Q482.9219,436.3162 483.1094,436.2069 Q483.2969,436.0975 483.5156,436.0975 Q483.8906,436.0975 484.125,436.3631 Q484.3594,436.6131 484.3594,437.2225 L484.3594,438.6756 Q484.3594,439.285 484.125,439.5506 Q483.8906,439.8162 483.5156,439.8162 Q483.1719,439.8162 482.9688,439.6131 Q482.7656,439.4256 482.6563,438.91 Q482.6094,438.5506 482.4219,438.3631 Q482.0938,437.9881 481.4844,437.7694 Q480.875,437.5506 480.25,437.5506 Q479.4844,437.5506 478.8438,437.8787 Q478.2188,438.2069 477.7188,438.9569 Q477.2344,439.7069 477.2344,440.7381 L477.2344,441.8319 Q477.2344,443.0662 478.125,443.8944 Q479.0156,444.7069 480.6094,444.7069 Q481.5469,444.7069 482.2031,444.4569 Q482.5938,444.3006 483.0156,443.8631 Q483.2813,443.5975 483.4219,443.5194 Q483.5781,443.4412 483.7813,443.4412 Q484.1094,443.4412 484.3594,443.7069 Q484.625,443.9569 484.625,444.3006 Q484.625,444.6444 484.2813,445.0506 Q483.7813,445.6287 482.9844,445.9569 Q481.9063,446.41 480.6094,446.41 Q479.0938,446.41 477.8906,445.785 Q476.9063,445.285 476.2188,444.2225 Q475.5313,443.1444 475.5313,441.8631 L475.5313,440.7069 Q475.5313,439.3787 476.1406,438.2381 Q476.7656,437.0819 477.8594,436.4725 Q478.9531,435.8475 480.1875,435.8475 Q480.9219,435.8475 481.5625,436.0194 Q482.2188,436.1756 482.7656,436.535 Z " fill="#000000"/><text fill="#000000" font-family="sans-serif" font-size="14" lengthAdjust="spacing" textLength="40" x="494" y="446.3885">Any&lt;&gt;</text><line style="stroke:#181818;stroke-width:0.5;" x1="466" x2="536" y1="456.66" y2="456.66"/><line style="stroke:#181818;stroke-width:0.5;" x1="466" x2="536" y1="464.66" y2="464.66"/></g><!--link clk to i_pre--><g id="link_clk_i_pre"><path codeLine="308" d="M739.71,135.3 C755.22,143.94 771.72,154.69 785,167 C802.47,183.2 818.21,203.77 831.12,223.27 " fill="none" id="clk-to-i_pre" style="stroke:#181818;stroke-width:1.0;"/><polygon fill="#181818" points="834.34,227.2,832.7761,217.4761,831.6095,223.0114,826.0743,221.8449,834.34,227.2" style="stroke:#181818;stroke-width:1.0;"/></g><!--link clk to i_us--><g id="link_clk_i_us"><path codeLine="309" d="M690,135.22 C690,155.25 690,185.31 690,213.39 " fill="none" id="clk-to-i_us" style="stroke:#181818;stroke-width:1.0;"/><polygon fill="#181818" points="690,218.35,694,209.35,690,213.35,686,209.35,690,218.35" style="stroke:#181818;stroke-width:1.0;"/></g><!--link clk to i_hz--><g id="link_clk_i_hz"><path codeLine="310" d="M641.73,135.27 C625.98,144.05 608.96,154.88 595,167 C576.07,183.45 558.27,204.15 543.35,223.7 " fill="none" id="clk-to-i_hz" style="stroke:#181818;stroke-width:1.0;"/><polygon fill="#181818" points="540.02,227.11,548.6391,222.3445,543.036,223.122,542.2584,217.5189,540.02,227.11" style="stroke:#181818;stroke-width:1.0;"/></g><!--link i_pre to any--><g id="link_i_pre_any"><path codeLine="311" d="M810.02,347.46 C802.04,353.85 793.6,359.79 785,364.66 C709.43,407.46 609.82,429.93 550.87,440.25 " fill="none" id="i_pre-to-any" style="stroke:#181818;stroke-width:1.0;"/><polygon fill="none" points="538.16,442.56,544.7408,445.5085,549.9935,440.568,543.4127,437.6195,538.16,442.56" style="stroke:#181818;stroke-width:1.0;"/></g><!--link i_us to any--><g id="link_i_us_any"><path codeLine="312" d="M612.58,353.89 C587.23,375.19 560.19,397.92 539.07,415.67 " fill="none" id="i_us-to-any" style="stroke:#181818;stroke-width:1.0;"/><polygon fill="none" points="529.61,424.46,536.7773,423.6666,538.8016,416.7454,531.6343,417.5388,529.61,424.46" style="stroke:#181818;stroke-width:1.0;"/></g><!--link i_hz to any--><g id="link_i_hz_any"><path codeLine="313" d="M501,347.52 C501,368.58 501,391.73 501,410.46 " fill="none" id="i_hz-to-any" style="stroke:#181818;stroke-width:1.0;"/><polygon fill="none" points="501,423.41,505,417.41,501,411.41,497,417.41,501,423.41" style="stroke:#181818;stroke-width:1.0;"/></g><!--link ext to any--><g id="link_ext_any"><path codeLine="314" d="M388.68,349.32 C394.53,354.52 400.37,359.69 406,364.66 C425.03,381.46 446.31,400.07 463.9,415.4 " fill="none" id="ext-to-any" style="stroke:#181818;stroke-width:1.0;"/><polygon fill="none" points="473.32,424.48,471.4198,417.5238,464.2679,416.6023,466.168,423.5585,473.32,424.48" style="stroke:#181818;stroke-width:1.0;"/></g><!--link ms to any--><g id="link_ms_any"><path codeLine="315" d="M193.76,338.64 C207.15,348.15 221.64,357.38 236,364.66 C307.01,400.65 396.67,424.74 451.37,437.31 " fill="none" id="ms-to-any" style="stroke:#181818;stroke-width:1.0;"/><polygon fill="none" points="463.83,440.33,458.8499,435.1148,452.1204,437.7059,457.1005,442.9211,463.83,440.33" style="stroke:#181818;stroke-width:1.0;"/></g><!--SRC=[hL9DQuGm53phhmYxb-x1Vo32TZ7WeL1mxnB20oKVQ_EIibhyxutnevRQmy9wokIzcT5nD5E0BUD0NfKbQKgDlyWoyXL7UXrTv8qB9CVSFvIEiuXBXaWEPzsL7Rz8aMO7mf1mAU9es7AlZG8pKYdDyosrq1QCPZA8p_IcQWs4fKXuqMl3HHN0km7aJ8AP83NmuK3pBi0Ih6jVJluu_2DVELmT7EuPXDTydb_Thtvr_vmFokz_yuAxdSNzjD3LWpwYqAsplrTslTyOUlDIiay8GIrfgYNBQI7CzdntHNrtPXcckx4rG-phGv8actgmGGuteExZgIT9SWlKy4z_W0zy0MC-orcjEzy0]--></g></svg>