<?xml version="1.0" encoding="us-ascii" standalone="no"?><svg xmlns="http://www.w3.org/2000/svg" xmlns:xlink="http://www.w3.org/1999/xlink" contentStyleType="text/css" height="513px" preserveAspectRatio="none" style="width:432px;height:513px;background:#FFFFFF;" version="1.1" viewBox="0 0 432 513" width="432px" zoomAndPan="magnify"><defs/><g><!--cluster Bmt--><g id="cluster_Bmt"><rect fill="none" height="500.87" rx="2.5" ry="2.5" style="stroke:#181818;stroke-width:1.0;" width="419" x="7" y="7"/><path d="M44,7 L44,17.6094 L34,27.6094 L7,27.6094 " fill="none" style="stroke:#181818;stroke-width:1.0;"/><text fill="#000000" font-family="sans-serif" font-size="14" font-weight="bold" lengthAdjust="spacing" textLength="27" x="10" y="22.5332">Bmt</text></g><!--cluster Clocks--><g id="cluster_Clocks"><path d="M33.5,90.21 L81.5,90.21 A3.75,3.75 0 0 1 84,92.71 L91,113.8194 L174.5,113.8194 A2.5,2.5 0 0 1 177,116.3194 L177,171.71 A2.5,2.5 0 0 1 174.5,174.21 L33.5,174.21 A2.5,2.5 0 0 1 31,171.71 L31,92.71 A2.5,2.5 0 0 1 33.5,90.21 " fill="#EEEEFF" style="stroke:#000000;stroke-width:1.5;"/><line style="stroke:#000000;stroke-width:1.5;" x1="31" x2="91" y1="113.8194" y2="113.8194"/><text fill="#000000" font-family="sans-serif" font-size="14" font-weight="bold" lengthAdjust="spacing" textLength="47" x="35" y="106.7432">Clocks</text></g><!--cluster Timer--><g id="cluster_Timer"><path d="M203.5,51 L242.5,51 A3.75,3.75 0 0 1 245,53.5 L252,74.6094 L399.5,74.6094 A2.5,2.5 0 0 1 402,77.1094 L402,481.37 A2.5,2.5 0 0 1 399.5,483.87 L203.5,483.87 A2.5,2.5 0 0 1 201,481.37 L201,53.5 A2.5,2.5 0 0 1 203.5,51 " fill="#EEFFEE" style="stroke:#000000;stroke-width:1.5;"/><line style="stroke:#000000;stroke-width:1.5;" x1="201" x2="252" y1="74.6094" y2="74.6094"/><text fill="#000000" font-family="sans-serif" font-size="14" font-weight="bold" lengthAdjust="spacing" textLength="38" x="205" y="67.5332">Timer</text></g><!--class clk--><g id="elem_clk"><rect codeLine="336" fill="#F1F1F1" height="32" id="clk" rx="2.5" ry="2.5" style="stroke:#181818;stroke-width:0.5;" width="115" x="46.5" y="126.21"/><ellipse cx="61.5" cy="142.21" fill="#ADD1B2" rx="11" ry="11" style="stroke:#181818;stroke-width:1.0;"/><path d="M64.2656,138.085 Q64.4219,137.8662 64.6094,137.7569 Q64.7969,137.6475 65.0156,137.6475 Q65.3906,137.6475 65.625,137.9131 Q65.8594,138.1631 65.8594,138.7725 L65.8594,140.2256 Q65.8594,140.835 65.625,141.1006 Q65.3906,141.3662 65.0156,141.3662 Q64.6719,141.3662 64.4688,141.1631 Q64.2656,140.9756 64.1563,140.46 Q64.1094,140.1006 63.9219,139.9131 Q63.5938,139.5381 62.9844,139.3194 Q62.375,139.1006 61.75,139.1006 Q60.9844,139.1006 60.3438,139.4287 Q59.7188,139.7569 59.2188,140.5069 Q58.7344,141.2569 58.7344,142.2881 L58.7344,143.3819 Q58.7344,144.6162 59.625,145.4444 Q60.5156,146.2569 62.1094,146.2569 Q63.0469,146.2569 63.7031,146.0069 Q64.0938,145.8506 64.5156,145.4131 Q64.7813,145.1475 64.9219,145.0694 Q65.0781,144.9912 65.2813,144.9912 Q65.6094,144.9912 65.8594,145.2569 Q66.125,145.5069 66.125,145.8506 Q66.125,146.1944 65.7813,146.6006 Q65.2813,147.1787 64.4844,147.5069 Q63.4063,147.96 62.1094,147.96 Q60.5938,147.96 59.3906,147.335 Q58.4063,146.835 57.7188,145.7725 Q57.0313,144.6944 57.0313,143.4131 L57.0313,142.2569 Q57.0313,140.9287 57.6406,139.7881 Q58.2656,138.6319 59.3594,138.0225 Q60.4531,137.3975 61.6875,137.3975 Q62.4219,137.3975 63.0625,137.5694 Q63.7188,137.7256 64.2656,138.085 Z " fill="#000000"/><text fill="#000000" font-family="sans-serif" font-size="14" lengthAdjust="spacing" textLength="83" x="75.5" y="147.9385">AnySycClk&lt;&gt;</text></g><!--class Unit--><g id="elem_Unit"><rect codeLine="339" fill="#F1F1F1" height="110.4375" id="Unit" rx="2.5" ry="2.5" style="stroke:#181818;stroke-width:0.5;" width="57" x="328.5" y="87"/><ellipse cx="343.5" cy="103" fill="#EB937F" rx="11" ry="11" style="stroke:#181818;stroke-width:1.0;"/><path d="M342.3594,103.7969 L342.3594,106.2969 L346.6875,106.2969 L346.6875,105.375 Q346.6875,104.7656 346.9219,104.5 Q347.1719,104.2344 347.5469,104.2344 Q347.9219,104.2344 348.1563,104.5 Q348.3906,104.7656 348.3906,105.375 L348.3906,108 L340.3906,108 Q339.7656,108 339.5,107.7656 Q339.25,107.5313 339.25,107.1406 Q339.25,106.7656 339.5156,106.5313 Q339.7813,106.2969 340.3906,106.2969 L340.6563,106.2969 L340.6563,99.6406 L340.3906,99.6406 Q339.7656,99.6406 339.5,99.4063 Q339.25,99.1719 339.25,98.7813 Q339.25,98.4063 339.5,98.1719 Q339.7656,97.9375 340.3906,97.9375 L348.0156,97.9375 L348.0156,100.5313 Q348.0156,101.1406 347.7813,101.4063 Q347.5625,101.6563 347.1719,101.6563 Q346.7969,101.6563 346.5625,101.4063 Q346.3281,101.1406 346.3281,100.5313 L346.3281,99.6406 L342.3594,99.6406 L342.3594,102.0938 L343.8438,102.0938 Q343.8438,101.4375 343.9688,101.25 Q344.2344,100.8438 344.7031,100.8438 Q345.0781,100.8438 345.3125,101.1094 Q345.5469,101.3594 345.5469,101.9688 L345.5469,103.9375 Q345.5469,104.4844 345.4219,104.6719 Q345.1563,105.0625 344.7031,105.0625 Q344.2344,105.0625 343.9688,104.6563 Q343.8438,104.4688 343.8438,103.7969 L342.3594,103.7969 Z " fill="#000000"/><text fill="#000000" font-family="sans-serif" font-size="14" lengthAdjust="spacing" textLength="25" x="357.5" y="108.7285">Unit</text><line style="stroke:#181818;stroke-width:0.5;" x1="329.5" x2="384.5" y1="119" y2="119"/><text fill="#000000" font-family="sans-serif" font-size="14" lengthAdjust="spacing" textLength="39" x="334.5" y="137.5332">kTim1</text><text fill="#000000" font-family="sans-serif" font-size="14" lengthAdjust="spacing" textLength="39" x="334.5" y="155.1426">kTim2</text><text fill="#000000" font-family="sans-serif" font-size="14" lengthAdjust="spacing" textLength="39" x="334.5" y="172.752">kTim3</text><text fill="#000000" font-family="sans-serif" font-size="14" lengthAdjust="spacing" textLength="39" x="334.5" y="190.3613">kTim4</text></g><!--entity pre--><g id="elem_pre"><ellipse cx="255" cy="142.21" fill="#F1F1F1" rx="8" ry="8" style="stroke:#181818;stroke-width:0.5;"/><text fill="#000000" font-family="sans-serif" font-size="14" lengthAdjust="spacing" textLength="60" x="225" y="173.7432">Prescaler</text></g><!--class i_pre--><g id="elem_i_pre"><rect codeLine="346" fill="#F1F1F1" height="118.4375" id="i_pre" rx="2.5" ry="2.5" style="stroke:#181818;stroke-width:0.5;" width="131" x="216.5" y="257.43"/><ellipse cx="231.5" cy="273.43" fill="#ADD1B2" rx="11" ry="11" style="stroke:#181818;stroke-width:1.0;"/><path d="M234.2656,269.305 Q234.4219,269.0863 234.6094,268.9769 Q234.7969,268.8675 235.0156,268.8675 Q235.3906,268.8675 235.625,269.1331 Q235.8594,269.3831 235.8594,269.9925 L235.8594,271.4456 Q235.8594,272.055 235.625,272.3206 Q235.3906,272.5863 235.0156,272.5863 Q234.6719,272.5863 234.4688,272.3831 Q234.2656,272.1956 234.1563,271.68 Q234.1094,271.3206 233.9219,271.1331 Q233.5938,270.7581 232.9844,270.5394 Q232.375,270.3206 231.75,270.3206 Q230.9844,270.3206 230.3438,270.6488 Q229.7188,270.9769 229.2188,271.7269 Q228.7344,272.4769 228.7344,273.5081 L228.7344,274.6019 Q228.7344,275.8363 229.625,276.6644 Q230.5156,277.4769 232.1094,277.4769 Q233.0469,277.4769 233.7031,277.2269 Q234.0938,277.0706 234.5156,276.6331 Q234.7813,276.3675 234.9219,276.2894 Q235.0781,276.2113 235.2813,276.2113 Q235.6094,276.2113 235.8594,276.4769 Q236.125,276.7269 236.125,277.0706 Q236.125,277.4144 235.7813,277.8206 Q235.2813,278.3988 234.4844,278.7269 Q233.4063,279.18 232.1094,279.18 Q230.5938,279.18 229.3906,278.555 Q228.4063,278.055 227.7188,276.9925 Q227.0313,275.9144 227.0313,274.6331 L227.0313,273.4769 Q227.0313,272.1488 227.6406,271.0081 Q228.2656,269.8519 229.3594,269.2425 Q230.4531,268.6175 231.6875,268.6175 Q232.4219,268.6175 233.0625,268.7894 Q233.7188,268.9456 234.2656,269.305 Z " fill="#000000"/><text fill="#000000" font-family="sans-serif" font-size="14" lengthAdjust="spacing" textLength="99" x="245.5" y="279.1585">InternalClock&lt;&gt;</text><line style="stroke:#181818;stroke-width:0.5;" x1="217.5" x2="346.5" y1="289.43" y2="289.43"/><text fill="#000000" font-family="sans-serif" font-size="14" lengthAdjust="spacing" text-decoration="underline" textLength="61" x="222.5" y="307.9632">kClkTick_</text><text fill="#000000" font-family="sans-serif" font-size="14" lengthAdjust="spacing" text-decoration="underline" textLength="75" x="222.5" y="325.5726">kPrescaler_</text><text fill="#000000" font-family="sans-serif" font-size="14" lengthAdjust="spacing" text-decoration="underline" textLength="83" x="222.5" y="343.182">kFrequency_</text><line style="stroke:#181818;stroke-width:0.5;" x1="217.5" x2="346.5" y1="350.2581" y2="350.2581"/><text fill="#000000" font-family="sans-serif" font-size="14" lengthAdjust="spacing" textLength="47" x="222.5" y="368.7913">Setup()</text></g><!--class any--><g id="elem_any"><rect codeLine="352" fill="#F1F1F1" height="32" id="any" rx="2.5" ry="2.5" style="stroke:#181818;stroke-width:0.5;" width="72" x="246" y="435.87"/><ellipse cx="261" cy="451.87" fill="#ADD1B2" rx="11" ry="11" style="stroke:#181818;stroke-width:1.0;"/><path d="M263.7656,447.745 Q263.9219,447.5263 264.1094,447.4169 Q264.2969,447.3075 264.5156,447.3075 Q264.8906,447.3075 265.125,447.5731 Q265.3594,447.8231 265.3594,448.4325 L265.3594,449.8856 Q265.3594,450.495 265.125,450.7606 Q264.8906,451.0263 264.5156,451.0263 Q264.1719,451.0263 263.9688,450.8231 Q263.7656,450.6356 263.6563,450.12 Q263.6094,449.7606 263.4219,449.5731 Q263.0938,449.1981 262.4844,448.9794 Q261.875,448.7606 261.25,448.7606 Q260.4844,448.7606 259.8438,449.0888 Q259.2188,449.4169 258.7188,450.1669 Q258.2344,450.9169 258.2344,451.9481 L258.2344,453.0419 Q258.2344,454.2763 259.125,455.1044 Q260.0156,455.9169 261.6094,455.9169 Q262.5469,455.9169 263.2031,455.6669 Q263.5938,455.5106 264.0156,455.0731 Q264.2813,454.8075 264.4219,454.7294 Q264.5781,454.6513 264.7813,454.6513 Q265.1094,454.6513 265.3594,454.9169 Q265.625,455.1669 265.625,455.5106 Q265.625,455.8544 265.2813,456.2606 Q264.7813,456.8388 263.9844,457.1669 Q262.9063,457.62 261.6094,457.62 Q260.0938,457.62 258.8906,456.995 Q257.9063,456.495 257.2188,455.4325 Q256.5313,454.3544 256.5313,453.0731 L256.5313,451.9169 Q256.5313,450.5888 257.1406,449.4481 Q257.7656,448.2919 258.8594,447.6825 Q259.9531,447.0575 261.1875,447.0575 Q261.9219,447.0575 262.5625,447.2294 Q263.2188,447.3856 263.7656,447.745 Z " fill="#000000"/><text fill="#000000" font-family="sans-serif" font-size="14" lengthAdjust="spacing" textLength="40" x="275" y="457.5985">Any&lt;&gt;</text></g><!--link clk to i_pre--><g id="link_clk_i_pre"><path codeLine="355" d="M119.8,158.52 C141.63,179.66 182.31,219.08 217.47,253.14 " fill="none" id="clk-to-i_pre" style="stroke:#181818;stroke-width:1.0;"/><polygon fill="#181818" points="220.73,256.26,217.0461,247.1261,217.1377,252.7822,211.4816,252.8738,220.73,256.26" style="stroke:#181818;stroke-width:1.0;"/></g><!--link pre to i_pre--><g id="link_pre_i_pre"><path codeLine="356" d="M256.23,151.07 C259,168.78 265.97,213.25 271.96,251.51 " fill="none" id="pre-to-i_pre" style="stroke:#181818;stroke-width:1.0;"/><polygon fill="#181818" points="272.83,256.1,275.3943,246.5908,272.059,251.1598,267.49,247.8245,272.83,256.1" style="stroke:#181818;stroke-width:1.0;"/></g><!--link Unit to i_pre--><g id="link_Unit_i_pre"><path codeLine="357" d="M333.27,197.77 C326.87,212.5 319.84,228.65 313.1,244.15 " fill="none" id="Unit-to-i_pre" style="stroke:#181818;stroke-width:1.0;"/><polygon fill="none" points="307.52,255.97,313.5782,252.0588,312.298,244.9622,306.2397,248.8735,307.52,255.97" style="stroke:#181818;stroke-width:1.0;"/></g><!--link i_pre to any--><g id="link_i_pre_any"><path codeLine="358" d="M282,376.08 C282,391.93 282,408.41 282,421.85 " fill="none" id="i_pre-to-any" style="stroke:#181818;stroke-width:1.0;"/><polygon fill="none" points="282,434.54,286,428.54,282,422.54,278,428.54,282,434.54" style="stroke:#181818;stroke-width:1.0;"/></g><!--SRC=[NL0zJyCm59oJN_4K5XWo51YZI535KZUabhaohq-gvOy4sncYAlyTsubJmDEzyvtV-GpNv0QE1E_QGzCm6uYsXLjPcErghtgK3XwwS1YBTmKgxXnKRsOwJhXNicahu0vGoRAOVtjFGfEDLiQwBbd9Z1e-ZV1fAcHGx39upk0bWzS0vhXGM5G4rOSbXroHJVi6I_Sm1-F96gvIt3MGE0V9ikZcFFS2Pv0XxqcWFFzbjvV_ySpIzqW6fyGVoO_3urDEjTMmxkDcYWNCPMW2whfT0fGnn7rAdw_hVXsNZ76ExgkuKEmHDEalicuXaaMJl_QNbGdQBFa1]--></g></svg>