<?xml version="1.0" encoding="us-ascii" standalone="no"?><svg xmlns="http://www.w3.org/2000/svg" xmlns:xlink="http://www.w3.org/1999/xlink" contentStyleType="text/css" height="531px" preserveAspectRatio="none" style="width:442px;height:531px;background:#FFFFFF;" version="1.1" viewBox="0 0 442 531" width="442px" zoomAndPan="magnify"><defs/><g><!--cluster Bmt--><g id="cluster_Bmt"><rect fill="none" height="518.48" rx="2.5" ry="2.5" style="stroke:#181818;stroke-width:1.0;" width="429" x="7" y="7"/><path d="M44,7 L44,17.6094 L34,27.6094 L7,27.6094 " fill="none" style="stroke:#181818;stroke-width:1.0;"/><text fill="#000000" font-family="sans-serif" font-size="14" font-weight="bold" lengthAdjust="spacing" textLength="27" x="10" y="22.5332">Bmt</text></g><!--cluster Clocks--><g id="cluster_Clocks"><path d="M268.5,90.21 L316.5,90.21 A3.75,3.75 0 0 1 319,92.71 L326,113.8194 L409.5,113.8194 A2.5,2.5 0 0 1 412,116.3194 L412,171.71 A2.5,2.5 0 0 1 409.5,174.21 L268.5,174.21 A2.5,2.5 0 0 1 266,171.71 L266,92.71 A2.5,2.5 0 0 1 268.5,90.21 " fill="#EEEEFF" style="stroke:#000000;stroke-width:1.5;"/><line style="stroke:#000000;stroke-width:1.5;" x1="266" x2="326" y1="113.8194" y2="113.8194"/><text fill="#000000" font-family="sans-serif" font-size="14" font-weight="bold" lengthAdjust="spacing" textLength="47" x="270" y="106.7432">Clocks</text></g><!--cluster Timer--><g id="cluster_Timer"><path d="M33.5,51 L72.5,51 A3.75,3.75 0 0 1 75,53.5 L82,74.6094 L239.5,74.6094 A2.5,2.5 0 0 1 242,77.1094 L242,498.98 A2.5,2.5 0 0 1 239.5,501.48 L33.5,501.48 A2.5,2.5 0 0 1 31,498.98 L31,53.5 A2.5,2.5 0 0 1 33.5,51 " fill="#EEFFEE" style="stroke:#000000;stroke-width:1.5;"/><line style="stroke:#000000;stroke-width:1.5;" x1="31" x2="82" y1="74.6094" y2="74.6094"/><text fill="#000000" font-family="sans-serif" font-size="14" font-weight="bold" lengthAdjust="spacing" textLength="38" x="35" y="67.5332">Timer</text></g><!--class clk--><g id="elem_clk"><rect codeLine="426" fill="#F1F1F1" height="32" id="clk" rx="2.5" ry="2.5" style="stroke:#181818;stroke-width:0.5;" width="115" x="281.5" y="126.21"/><ellipse cx="296.5" cy="142.21" fill="#ADD1B2" rx="11" ry="11" style="stroke:#181818;stroke-width:1.0;"/><path d="M299.2656,138.085 Q299.4219,137.8663 299.6094,137.7569 Q299.7969,137.6475 300.0156,137.6475 Q300.3906,137.6475 300.625,137.9131 Q300.8594,138.1631 300.8594,138.7725 L300.8594,140.2256 Q300.8594,140.835 300.625,141.1006 Q300.3906,141.3663 300.0156,141.3663 Q299.6719,141.3663 299.4688,141.1631 Q299.2656,140.9756 299.1563,140.46 Q299.1094,140.1006 298.9219,139.9131 Q298.5938,139.5381 297.9844,139.3194 Q297.375,139.1006 296.75,139.1006 Q295.9844,139.1006 295.3438,139.4288 Q294.7188,139.7569 294.2188,140.5069 Q293.7344,141.2569 293.7344,142.2881 L293.7344,143.3819 Q293.7344,144.6163 294.625,145.4444 Q295.5156,146.2569 297.1094,146.2569 Q298.0469,146.2569 298.7031,146.0069 Q299.0938,145.8506 299.5156,145.4131 Q299.7813,145.1475 299.9219,145.0694 Q300.0781,144.9913 300.2813,144.9913 Q300.6094,144.9913 300.8594,145.2569 Q301.125,145.5069 301.125,145.8506 Q301.125,146.1944 300.7813,146.6006 Q300.2813,147.1788 299.4844,147.5069 Q298.4063,147.96 297.1094,147.96 Q295.5938,147.96 294.3906,147.335 Q293.4063,146.835 292.7188,145.7725 Q292.0313,144.6944 292.0313,143.4131 L292.0313,142.2569 Q292.0313,140.9288 292.6406,139.7881 Q293.2656,138.6319 294.3594,138.0225 Q295.4531,137.3975 296.6875,137.3975 Q297.4219,137.3975 298.0625,137.5694 Q298.7188,137.7256 299.2656,138.085 Z " fill="#000000"/><text fill="#000000" font-family="sans-serif" font-size="14" lengthAdjust="spacing" textLength="83" x="310.5" y="147.9385">AnySycClk&lt;&gt;</text></g><!--class Unit--><g id="elem_Unit"><rect codeLine="429" fill="#F1F1F1" height="110.4375" id="Unit" rx="2.5" ry="2.5" style="stroke:#181818;stroke-width:0.5;" width="57" x="168.5" y="87"/><ellipse cx="183.5" cy="103" fill="#EB937F" rx="11" ry="11" style="stroke:#181818;stroke-width:1.0;"/><path d="M182.3594,103.7969 L182.3594,106.2969 L186.6875,106.2969 L186.6875,105.375 Q186.6875,104.7656 186.9219,104.5 Q187.1719,104.2344 187.5469,104.2344 Q187.9219,104.2344 188.1563,104.5 Q188.3906,104.7656 188.3906,105.375 L188.3906,108 L180.3906,108 Q179.7656,108 179.5,107.7656 Q179.25,107.5313 179.25,107.1406 Q179.25,106.7656 179.5156,106.5313 Q179.7813,106.2969 180.3906,106.2969 L180.6563,106.2969 L180.6563,99.6406 L180.3906,99.6406 Q179.7656,99.6406 179.5,99.4063 Q179.25,99.1719 179.25,98.7813 Q179.25,98.4063 179.5,98.1719 Q179.7656,97.9375 180.3906,97.9375 L188.0156,97.9375 L188.0156,100.5313 Q188.0156,101.1406 187.7813,101.4063 Q187.5625,101.6563 187.1719,101.6563 Q186.7969,101.6563 186.5625,101.4063 Q186.3281,101.1406 186.3281,100.5313 L186.3281,99.6406 L182.3594,99.6406 L182.3594,102.0938 L183.8438,102.0938 Q183.8438,101.4375 183.9688,101.25 Q184.2344,100.8438 184.7031,100.8438 Q185.0781,100.8438 185.3125,101.1094 Q185.5469,101.3594 185.5469,101.9688 L185.5469,103.9375 Q185.5469,104.4844 185.4219,104.6719 Q185.1563,105.0625 184.7031,105.0625 Q184.2344,105.0625 183.9688,104.6563 Q183.8438,104.4688 183.8438,103.7969 L182.3594,103.7969 Z " fill="#000000"/><text fill="#000000" font-family="sans-serif" font-size="14" lengthAdjust="spacing" textLength="25" x="197.5" y="108.7285">Unit</text><line style="stroke:#181818;stroke-width:0.5;" x1="169.5" x2="224.5" y1="119" y2="119"/><text fill="#000000" font-family="sans-serif" font-size="14" lengthAdjust="spacing" textLength="39" x="174.5" y="137.5332">kTim1</text><text fill="#000000" font-family="sans-serif" font-size="14" lengthAdjust="spacing" textLength="39" x="174.5" y="155.1426">kTim2</text><text fill="#000000" font-family="sans-serif" font-size="14" lengthAdjust="spacing" textLength="39" x="174.5" y="172.752">kTim3</text><text fill="#000000" font-family="sans-serif" font-size="14" lengthAdjust="spacing" textLength="39" x="174.5" y="190.3613">kTim4</text></g><!--entity pre--><g id="elem_pre"><ellipse cx="90" cy="142.21" fill="#F1F1F1" rx="8" ry="8" style="stroke:#181818;stroke-width:0.5;"/><text fill="#000000" font-family="sans-serif" font-size="14" lengthAdjust="spacing" textLength="70" x="55" y="173.7432">Period (us)</text></g><!--class i_pre--><g id="elem_i_pre"><rect codeLine="436" fill="#F1F1F1" height="136.0469" id="i_pre" rx="2.5" ry="2.5" style="stroke:#181818;stroke-width:0.5;" width="131" x="95.5" y="257.43"/><ellipse cx="110.5" cy="273.43" fill="#ADD1B2" rx="11" ry="11" style="stroke:#181818;stroke-width:1.0;"/><path d="M113.2656,269.305 Q113.4219,269.0863 113.6094,268.9769 Q113.7969,268.8675 114.0156,268.8675 Q114.3906,268.8675 114.625,269.1331 Q114.8594,269.3831 114.8594,269.9925 L114.8594,271.4456 Q114.8594,272.055 114.625,272.3206 Q114.3906,272.5863 114.0156,272.5863 Q113.6719,272.5863 113.4688,272.3831 Q113.2656,272.1956 113.1563,271.68 Q113.1094,271.3206 112.9219,271.1331 Q112.5938,270.7581 111.9844,270.5394 Q111.375,270.3206 110.75,270.3206 Q109.9844,270.3206 109.3438,270.6488 Q108.7188,270.9769 108.2188,271.7269 Q107.7344,272.4769 107.7344,273.5081 L107.7344,274.6019 Q107.7344,275.8363 108.625,276.6644 Q109.5156,277.4769 111.1094,277.4769 Q112.0469,277.4769 112.7031,277.2269 Q113.0938,277.0706 113.5156,276.6331 Q113.7813,276.3675 113.9219,276.2894 Q114.0781,276.2113 114.2813,276.2113 Q114.6094,276.2113 114.8594,276.4769 Q115.125,276.7269 115.125,277.0706 Q115.125,277.4144 114.7813,277.8206 Q114.2813,278.3988 113.4844,278.7269 Q112.4063,279.18 111.1094,279.18 Q109.5938,279.18 108.3906,278.555 Q107.4063,278.055 106.7188,276.9925 Q106.0313,275.9144 106.0313,274.6331 L106.0313,273.4769 Q106.0313,272.1488 106.6406,271.0081 Q107.2656,269.8519 108.3594,269.2425 Q109.4531,268.6175 110.6875,268.6175 Q111.4219,268.6175 112.0625,268.7894 Q112.7188,268.9456 113.2656,269.305 Z " fill="#000000"/><text fill="#000000" font-family="sans-serif" font-size="14" lengthAdjust="spacing" textLength="99" x="124.5" y="279.1585">InternalClock&lt;&gt;</text><line style="stroke:#181818;stroke-width:0.5;" x1="96.5" x2="225.5" y1="289.43" y2="289.43"/><text fill="#000000" font-family="sans-serif" font-size="14" lengthAdjust="spacing" text-decoration="underline" textLength="61" x="101.5" y="307.9632">kClkTick_</text><text fill="#000000" font-family="sans-serif" font-size="14" lengthAdjust="spacing" text-decoration="underline" textLength="78" x="101.5" y="325.5726">kTimerTick_</text><text fill="#000000" font-family="sans-serif" font-size="14" lengthAdjust="spacing" text-decoration="underline" textLength="75" x="101.5" y="343.182">kPrescaler_</text><text fill="#000000" font-family="sans-serif" font-size="14" lengthAdjust="spacing" text-decoration="underline" textLength="83" x="101.5" y="360.7913">kFrequency_</text><line style="stroke:#181818;stroke-width:0.5;" x1="96.5" x2="225.5" y1="367.8675" y2="367.8675"/><text fill="#000000" font-family="sans-serif" font-size="14" lengthAdjust="spacing" textLength="47" x="101.5" y="386.4007">Setup()</text></g><!--class any--><g id="elem_any"><rect codeLine="443" fill="#F1F1F1" height="32" id="any" rx="2.5" ry="2.5" style="stroke:#181818;stroke-width:0.5;" width="72" x="125" y="453.48"/><ellipse cx="140" cy="469.48" fill="#ADD1B2" rx="11" ry="11" style="stroke:#181818;stroke-width:1.0;"/><path d="M142.7656,465.355 Q142.9219,465.1363 143.1094,465.0269 Q143.2969,464.9175 143.5156,464.9175 Q143.8906,464.9175 144.125,465.1831 Q144.3594,465.4331 144.3594,466.0425 L144.3594,467.4956 Q144.3594,468.105 144.125,468.3706 Q143.8906,468.6363 143.5156,468.6363 Q143.1719,468.6363 142.9688,468.4331 Q142.7656,468.2456 142.6563,467.73 Q142.6094,467.3706 142.4219,467.1831 Q142.0938,466.8081 141.4844,466.5894 Q140.875,466.3706 140.25,466.3706 Q139.4844,466.3706 138.8438,466.6988 Q138.2188,467.0269 137.7188,467.7769 Q137.2344,468.5269 137.2344,469.5581 L137.2344,470.6519 Q137.2344,471.8863 138.125,472.7144 Q139.0156,473.5269 140.6094,473.5269 Q141.5469,473.5269 142.2031,473.2769 Q142.5938,473.1206 143.0156,472.6831 Q143.2813,472.4175 143.4219,472.3394 Q143.5781,472.2613 143.7813,472.2613 Q144.1094,472.2613 144.3594,472.5269 Q144.625,472.7769 144.625,473.1206 Q144.625,473.4644 144.2813,473.8706 Q143.7813,474.4488 142.9844,474.7769 Q141.9063,475.23 140.6094,475.23 Q139.0938,475.23 137.8906,474.605 Q136.9063,474.105 136.2188,473.0425 Q135.5313,471.9644 135.5313,470.6831 L135.5313,469.5269 Q135.5313,468.1988 136.1406,467.0581 Q136.7656,465.9019 137.8594,465.2925 Q138.9531,464.6675 140.1875,464.6675 Q140.9219,464.6675 141.5625,464.8394 Q142.2188,464.9956 142.7656,465.355 Z " fill="#000000"/><text fill="#000000" font-family="sans-serif" font-size="14" lengthAdjust="spacing" textLength="40" x="154" y="475.2085">Any&lt;&gt;</text></g><!--link clk to i_pre--><g id="link_clk_i_pre"><path codeLine="446" d="M323.82,158.67 C303.22,179.64 265.05,218.52 230.84,253.35 " fill="none" id="clk-to-i_pre" style="stroke:#181818;stroke-width:1.0;"/><polygon fill="#181818" points="227.68,256.58,236.8362,252.9518,231.1796,253.0089,231.1225,247.3524,227.68,256.58" style="stroke:#181818;stroke-width:1.0;"/></g><!--link pre to i_pre--><g id="link_pre_i_pre"><path codeLine="447" d="M93.05,151 C99.91,168.51 117.15,212.53 132.55,251.83 " fill="none" id="pre-to-i_pre" style="stroke:#181818;stroke-width:1.0;"/><polygon fill="#181818" points="134.61,256.1,135.044,246.2607,132.7826,251.4459,127.5974,249.1845,134.61,256.1" style="stroke:#181818;stroke-width:1.0;"/></g><!--link Unit to i_pre--><g id="link_Unit_i_pre"><path codeLine="448" d="M186.2,197.59 C183.33,212.03 180.17,227.93 177.09,243.46 " fill="none" id="Unit-to-i_pre" style="stroke:#181818;stroke-width:1.0;"/><polygon fill="none" points="174.41,255.95,179.5013,250.8433,176.7456,244.1795,171.6543,249.2862,174.41,255.95" style="stroke:#181818;stroke-width:1.0;"/></g><!--link i_pre to any--><g id="link_i_pre_any"><path codeLine="449" d="M161,393.73 C161,409.7 161,425.93 161,439.16 " fill="none" id="i_pre-to-any" style="stroke:#181818;stroke-width:1.0;"/><polygon fill="none" points="161,452.13,165,446.13,161,440.13,157,446.13,161,452.13" style="stroke:#181818;stroke-width:1.0;"/></g><!--SRC=[RP0_QyCm4CLd-rCSxf8C7j9sD8OsM90ja7GEwlaWGd_iIl9WWhzx9TbEsb9DxvxkSJ-UuPfSpv7WNNkeAcQ3KTTmopDp_zgh3gM3foOynk9VXeex1yMR6KyZxfMiwWAu0rGopwQVsRFGP6EKiQP9KJA3XWyZV9eo6JPsgtXUnSigNeEOua5XKH4KHxAYQs4pk6sws5jwu1oC9skuIi0BahY4bVdKpNdk1KuW0_5PeBpyTXFhF_xHaaEkoFxncQMlWGoEoJ-H7_hDTkMz5xHmS3F6QgOyT0HbMSzWUOHxJAcMikoMSMQFSqnVHKknOT2aFycwsKWHJVxQjOiJTjULRm00]--></g></svg>