<?xml version="1.0" encoding="us-ascii" standalone="no"?><svg xmlns="http://www.w3.org/2000/svg" xmlns:xlink="http://www.w3.org/1999/xlink" contentStyleType="text/css" height="513px" preserveAspectRatio="none" style="width:432px;height:513px;background:#FFFFFF;" version="1.1" viewBox="0 0 432 513" width="432px" zoomAndPan="magnify"><defs/><g><!--cluster Bmt--><g id="cluster_Bmt"><rect fill="none" height="500.87" rx="2.5" ry="2.5" style="stroke:#181818;stroke-width:1.0;" width="419" x="7" y="7"/><path d="M44,7 L44,17.6094 L34,27.6094 L7,27.6094 " fill="none" style="stroke:#181818;stroke-width:1.0;"/><text fill="#000000" font-family="sans-serif" font-size="14" font-weight="bold" lengthAdjust="spacing" textLength="27" x="10" y="22.5332">Bmt</text></g><!--cluster Clocks--><g id="cluster_Clocks"><path d="M258.5,90.21 L306.5,90.21 A3.75,3.75 0 0 1 309,92.71 L316,113.8194 L399.5,113.8194 A2.5,2.5 0 0 1 402,116.3194 L402,171.71 A2.5,2.5 0 0 1 399.5,174.21 L258.5,174.21 A2.5,2.5 0 0 1 256,171.71 L256,92.71 A2.5,2.5 0 0 1 258.5,90.21 " fill="#EEEEFF" style="stroke:#000000;stroke-width:1.5;"/><line style="stroke:#000000;stroke-width:1.5;" x1="256" x2="316" y1="113.8194" y2="113.8194"/><text fill="#000000" font-family="sans-serif" font-size="14" font-weight="bold" lengthAdjust="spacing" textLength="47" x="260" y="106.7432">Clocks</text></g><!--cluster Timer--><g id="cluster_Timer"><path d="M33.5,51 L72.5,51 A3.75,3.75 0 0 1 75,53.5 L82,74.6094 L229.5,74.6094 A2.5,2.5 0 0 1 232,77.1094 L232,481.37 A2.5,2.5 0 0 1 229.5,483.87 L33.5,483.87 A2.5,2.5 0 0 1 31,481.37 L31,53.5 A2.5,2.5 0 0 1 33.5,51 " fill="#EEFFEE" style="stroke:#000000;stroke-width:1.5;"/><line style="stroke:#000000;stroke-width:1.5;" x1="31" x2="82" y1="74.6094" y2="74.6094"/><text fill="#000000" font-family="sans-serif" font-size="14" font-weight="bold" lengthAdjust="spacing" textLength="38" x="35" y="67.5332">Timer</text></g><!--class clk--><g id="elem_clk"><rect codeLine="345" fill="#F1F1F1" height="32" id="clk" rx="2.5" ry="2.5" style="stroke:#181818;stroke-width:0.5;" width="115" x="271.5" y="126.21"/><ellipse cx="286.5" cy="142.21" fill="#ADD1B2" rx="11" ry="11" style="stroke:#181818;stroke-width:1.0;"/><path d="M289.2656,138.085 Q289.4219,137.8662 289.6094,137.7569 Q289.7969,137.6475 290.0156,137.6475 Q290.3906,137.6475 290.625,137.9131 Q290.8594,138.1631 290.8594,138.7725 L290.8594,140.2256 Q290.8594,140.835 290.625,141.1006 Q290.3906,141.3662 290.0156,141.3662 Q289.6719,141.3662 289.4688,141.1631 Q289.2656,140.9756 289.1563,140.46 Q289.1094,140.1006 288.9219,139.9131 Q288.5938,139.5381 287.9844,139.3194 Q287.375,139.1006 286.75,139.1006 Q285.9844,139.1006 285.3438,139.4287 Q284.7188,139.7569 284.2188,140.5069 Q283.7344,141.2569 283.7344,142.2881 L283.7344,143.3819 Q283.7344,144.6162 284.625,145.4444 Q285.5156,146.2569 287.1094,146.2569 Q288.0469,146.2569 288.7031,146.0069 Q289.0938,145.8506 289.5156,145.4131 Q289.7813,145.1475 289.9219,145.0694 Q290.0781,144.9912 290.2813,144.9912 Q290.6094,144.9912 290.8594,145.2569 Q291.125,145.5069 291.125,145.8506 Q291.125,146.1944 290.7813,146.6006 Q290.2813,147.1787 289.4844,147.5069 Q288.4063,147.96 287.1094,147.96 Q285.5938,147.96 284.3906,147.335 Q283.4063,146.835 282.7188,145.7725 Q282.0313,144.6944 282.0313,143.4131 L282.0313,142.2569 Q282.0313,140.9287 282.6406,139.7881 Q283.2656,138.6319 284.3594,138.0225 Q285.4531,137.3975 286.6875,137.3975 Q287.4219,137.3975 288.0625,137.5694 Q288.7188,137.7256 289.2656,138.085 Z " fill="#000000"/><text fill="#000000" font-family="sans-serif" font-size="14" lengthAdjust="spacing" textLength="83" x="300.5" y="147.9385">AnySycClk&lt;&gt;</text></g><!--class Unit--><g id="elem_Unit"><rect codeLine="348" fill="#F1F1F1" height="110.4375" id="Unit" rx="2.5" ry="2.5" style="stroke:#181818;stroke-width:0.5;" width="57" x="158.5" y="87"/><ellipse cx="173.5" cy="103" fill="#EB937F" rx="11" ry="11" style="stroke:#181818;stroke-width:1.0;"/><path d="M172.3594,103.7969 L172.3594,106.2969 L176.6875,106.2969 L176.6875,105.375 Q176.6875,104.7656 176.9219,104.5 Q177.1719,104.2344 177.5469,104.2344 Q177.9219,104.2344 178.1563,104.5 Q178.3906,104.7656 178.3906,105.375 L178.3906,108 L170.3906,108 Q169.7656,108 169.5,107.7656 Q169.25,107.5313 169.25,107.1406 Q169.25,106.7656 169.5156,106.5313 Q169.7813,106.2969 170.3906,106.2969 L170.6563,106.2969 L170.6563,99.6406 L170.3906,99.6406 Q169.7656,99.6406 169.5,99.4063 Q169.25,99.1719 169.25,98.7813 Q169.25,98.4063 169.5,98.1719 Q169.7656,97.9375 170.3906,97.9375 L178.0156,97.9375 L178.0156,100.5313 Q178.0156,101.1406 177.7813,101.4063 Q177.5625,101.6563 177.1719,101.6563 Q176.7969,101.6563 176.5625,101.4063 Q176.3281,101.1406 176.3281,100.5313 L176.3281,99.6406 L172.3594,99.6406 L172.3594,102.0938 L173.8438,102.0938 Q173.8438,101.4375 173.9688,101.25 Q174.2344,100.8438 174.7031,100.8438 Q175.0781,100.8438 175.3125,101.1094 Q175.5469,101.3594 175.5469,101.9688 L175.5469,103.9375 Q175.5469,104.4844 175.4219,104.6719 Q175.1563,105.0625 174.7031,105.0625 Q174.2344,105.0625 173.9688,104.6563 Q173.8438,104.4688 173.8438,103.7969 L172.3594,103.7969 Z " fill="#000000"/><text fill="#000000" font-family="sans-serif" font-size="14" lengthAdjust="spacing" textLength="25" x="187.5" y="108.7285">Unit</text><line style="stroke:#181818;stroke-width:0.5;" x1="159.5" x2="214.5" y1="119" y2="119"/><text fill="#000000" font-family="sans-serif" font-size="14" lengthAdjust="spacing" textLength="39" x="164.5" y="137.5332">kTim1</text><text fill="#000000" font-family="sans-serif" font-size="14" lengthAdjust="spacing" textLength="39" x="164.5" y="155.1426">kTim2</text><text fill="#000000" font-family="sans-serif" font-size="14" lengthAdjust="spacing" textLength="39" x="164.5" y="172.752">kTim3</text><text fill="#000000" font-family="sans-serif" font-size="14" lengthAdjust="spacing" textLength="39" x="164.5" y="190.3613">kTim4</text></g><!--entity pre--><g id="elem_pre"><ellipse cx="85" cy="142.21" fill="#F1F1F1" rx="8" ry="8" style="stroke:#181818;stroke-width:0.5;"/><text fill="#000000" font-family="sans-serif" font-size="14" lengthAdjust="spacing" textLength="60" x="55" y="173.7432">Prescaler</text></g><!--class i_pre--><g id="elem_i_pre"><rect codeLine="355" fill="#F1F1F1" height="118.4375" id="i_pre" rx="2.5" ry="2.5" style="stroke:#181818;stroke-width:0.5;" width="131" x="85.5" y="257.43"/><ellipse cx="100.5" cy="273.43" fill="#ADD1B2" rx="11" ry="11" style="stroke:#181818;stroke-width:1.0;"/><path d="M103.2656,269.305 Q103.4219,269.0863 103.6094,268.9769 Q103.7969,268.8675 104.0156,268.8675 Q104.3906,268.8675 104.625,269.1331 Q104.8594,269.3831 104.8594,269.9925 L104.8594,271.4456 Q104.8594,272.055 104.625,272.3206 Q104.3906,272.5863 104.0156,272.5863 Q103.6719,272.5863 103.4688,272.3831 Q103.2656,272.1956 103.1563,271.68 Q103.1094,271.3206 102.9219,271.1331 Q102.5938,270.7581 101.9844,270.5394 Q101.375,270.3206 100.75,270.3206 Q99.9844,270.3206 99.3438,270.6488 Q98.7188,270.9769 98.2188,271.7269 Q97.7344,272.4769 97.7344,273.5081 L97.7344,274.6019 Q97.7344,275.8363 98.625,276.6644 Q99.5156,277.4769 101.1094,277.4769 Q102.0469,277.4769 102.7031,277.2269 Q103.0938,277.0706 103.5156,276.6331 Q103.7813,276.3675 103.9219,276.2894 Q104.0781,276.2113 104.2813,276.2113 Q104.6094,276.2113 104.8594,276.4769 Q105.125,276.7269 105.125,277.0706 Q105.125,277.4144 104.7813,277.8206 Q104.2813,278.3988 103.4844,278.7269 Q102.4063,279.18 101.1094,279.18 Q99.5938,279.18 98.3906,278.555 Q97.4063,278.055 96.7188,276.9925 Q96.0313,275.9144 96.0313,274.6331 L96.0313,273.4769 Q96.0313,272.1488 96.6406,271.0081 Q97.2656,269.8519 98.3594,269.2425 Q99.4531,268.6175 100.6875,268.6175 Q101.4219,268.6175 102.0625,268.7894 Q102.7188,268.9456 103.2656,269.305 Z " fill="#000000"/><text fill="#000000" font-family="sans-serif" font-size="14" lengthAdjust="spacing" textLength="99" x="114.5" y="279.1585">InternalClock&lt;&gt;</text><line style="stroke:#181818;stroke-width:0.5;" x1="86.5" x2="215.5" y1="289.43" y2="289.43"/><text fill="#000000" font-family="sans-serif" font-size="14" lengthAdjust="spacing" text-decoration="underline" textLength="61" x="91.5" y="307.9632">kClkTick_</text><text fill="#000000" font-family="sans-serif" font-size="14" lengthAdjust="spacing" text-decoration="underline" textLength="75" x="91.5" y="325.5726">kPrescaler_</text><text fill="#000000" font-family="sans-serif" font-size="14" lengthAdjust="spacing" text-decoration="underline" textLength="83" x="91.5" y="343.182">kFrequency_</text><line style="stroke:#181818;stroke-width:0.5;" x1="86.5" x2="215.5" y1="350.2581" y2="350.2581"/><text fill="#000000" font-family="sans-serif" font-size="14" lengthAdjust="spacing" textLength="47" x="91.5" y="368.7913">Setup()</text></g><!--class any--><g id="elem_any"><rect codeLine="361" fill="#F1F1F1" height="32" id="any" rx="2.5" ry="2.5" style="stroke:#181818;stroke-width:0.5;" width="72" x="115" y="435.87"/><ellipse cx="130" cy="451.87" fill="#ADD1B2" rx="11" ry="11" style="stroke:#181818;stroke-width:1.0;"/><path d="M132.7656,447.745 Q132.9219,447.5263 133.1094,447.4169 Q133.2969,447.3075 133.5156,447.3075 Q133.8906,447.3075 134.125,447.5731 Q134.3594,447.8231 134.3594,448.4325 L134.3594,449.8856 Q134.3594,450.495 134.125,450.7606 Q133.8906,451.0263 133.5156,451.0263 Q133.1719,451.0263 132.9688,450.8231 Q132.7656,450.6356 132.6563,450.12 Q132.6094,449.7606 132.4219,449.5731 Q132.0938,449.1981 131.4844,448.9794 Q130.875,448.7606 130.25,448.7606 Q129.4844,448.7606 128.8438,449.0888 Q128.2188,449.4169 127.7188,450.1669 Q127.2344,450.9169 127.2344,451.9481 L127.2344,453.0419 Q127.2344,454.2763 128.125,455.1044 Q129.0156,455.9169 130.6094,455.9169 Q131.5469,455.9169 132.2031,455.6669 Q132.5938,455.5106 133.0156,455.0731 Q133.2813,454.8075 133.4219,454.7294 Q133.5781,454.6513 133.7813,454.6513 Q134.1094,454.6513 134.3594,454.9169 Q134.625,455.1669 134.625,455.5106 Q134.625,455.8544 134.2813,456.2606 Q133.7813,456.8388 132.9844,457.1669 Q131.9063,457.62 130.6094,457.62 Q129.0938,457.62 127.8906,456.995 Q126.9063,456.495 126.2188,455.4325 Q125.5313,454.3544 125.5313,453.0731 L125.5313,451.9169 Q125.5313,450.5888 126.1406,449.4481 Q126.7656,448.2919 127.8594,447.6825 Q128.9531,447.0575 130.1875,447.0575 Q130.9219,447.0575 131.5625,447.2294 Q132.2188,447.3856 132.7656,447.745 Z " fill="#000000"/><text fill="#000000" font-family="sans-serif" font-size="14" lengthAdjust="spacing" textLength="40" x="144" y="457.5985">Any&lt;&gt;</text></g><!--link clk to i_pre--><g id="link_clk_i_pre"><path codeLine="364" d="M313.2,158.52 C291.37,179.66 250.69,219.08 215.53,253.14 " fill="none" id="clk-to-i_pre" style="stroke:#181818;stroke-width:1.0;"/><polygon fill="#181818" points="212.27,256.26,221.5184,252.8738,215.8623,252.7822,215.9539,247.1261,212.27,256.26" style="stroke:#181818;stroke-width:1.0;"/></g><!--link pre to i_pre--><g id="link_pre_i_pre"><path codeLine="365" d="M88.01,151.07 C94.79,168.78 111.81,213.25 126.45,251.51 " fill="none" id="pre-to-i_pre" style="stroke:#181818;stroke-width:1.0;"/><polygon fill="#181818" points="128.59,256.1,129.1127,246.265,126.8047,251.4296,121.6401,249.1215,128.59,256.1" style="stroke:#181818;stroke-width:1.0;"/></g><!--link Unit to i_pre--><g id="link_Unit_i_pre"><path codeLine="366" d="M175.61,197.77 C172.57,212.35 169.23,228.33 166.02,243.69 " fill="none" id="Unit-to-i_pre" style="stroke:#181818;stroke-width:1.0;"/><polygon fill="none" points="163.25,255.97,168.3917,250.914,165.7022,244.2232,160.5605,249.2792,163.25,255.97" style="stroke:#181818;stroke-width:1.0;"/></g><!--link i_pre to any--><g id="link_i_pre_any"><path codeLine="367" d="M151,376.08 C151,391.93 151,408.41 151,421.85 " fill="none" id="i_pre-to-any" style="stroke:#181818;stroke-width:1.0;"/><polygon fill="none" points="151,434.54,155,428.54,151,422.54,147,428.54,151,434.54" style="stroke:#181818;stroke-width:1.0;"/></g><!--SRC=[NL0zJyCm59oJN_4K5XWo51YZI535KZUabhaohq-gvOy4sncYAlyTsubJmDEzyvtV-GpNv0QE1E_QGzCm6uYsXLjPcErghtgK3XwwS1YBTmKgxXnKRsOwJhXNicahu0vGoRAOVtjFGfEDLiQwBbd9Z1e-ZV1fAcHGx39upk0bWzS0vhXGM5G4rOSbXroHJVi6I_Sm1-F96gvIt3MGE0V9ikZcFFS2Pv0XxqcWFFzbjvV_ySpIzqW6fyGVoO_3urDEjTMmxkDcYWNCPMW2whfT0fGnn7rAdw_hVXsNZ76ExgkuKEmHDEalicuXaaMJl_QNbGdQBFa1]--></g></svg>