<?xml version="1.0" encoding="us-ascii" standalone="no"?><svg xmlns="http://www.w3.org/2000/svg" xmlns:xlink="http://www.w3.org/1999/xlink" contentStyleType="text/css" height="354px" preserveAspectRatio="none" style="width:791px;height:354px;background:#FFFFFF;" version="1.1" viewBox="0 0 791 354" width="791px" zoomAndPan="magnify"><defs/><g><!--entity ccr_4--><g id="elem_ccr_4"><rect fill="#F1F1F1" height="37.6094" rx="2.5" ry="2.5" style="stroke:#181818;stroke-width:0.5;" width="91" x="661.5" y="104"/><text fill="#000000" font-family="sans-serif" font-size="14" lengthAdjust="spacing" textLength="71" x="671.5" y="128.5332">Compare 4</text></g><!--entity outc_4--><g id="elem_outc_4"><rect fill="#F1F1F1" height="37.6094" rx="2.5" ry="2.5" style="stroke:#181818;stroke-width:0.5;" width="113" x="655.5" y="201.61"/><text fill="#000000" font-family="sans-serif" font-size="14" lengthAdjust="spacing" textLength="93" x="665.5" y="226.1432">Output Control</text></g><!--entity cci_4--><g id="elem_cci_4"><ellipse cx="707" cy="14" fill="#F1F1F1" rx="8" ry="8" style="stroke:#181818;stroke-width:0.5;"/><text fill="#000000" font-family="sans-serif" font-size="14" lengthAdjust="spacing" textLength="32" x="691" y="45.5332">CC4I</text></g><!--entity oc_4--><g id="elem_oc_4"><path d="M660.5,303.22 L660.5,327.22 M660.5,315.22 L677.5,315.22 " fill="none" style="stroke:#181818;stroke-width:0.5;"/><ellipse cx="689.5" cy="315.22" fill="#F1F1F1" rx="12" ry="12" style="stroke:#181818;stroke-width:0.5;"/><text fill="#000000" font-family="sans-serif" font-size="14" lengthAdjust="spacing" textLength="29" x="666.5" y="345.7532">OC4</text></g><!--entity ocn_4--><g id="elem_ocn_4"><path d="M744.5,303.22 L744.5,327.22 M744.5,315.22 L761.5,315.22 " fill="none" style="stroke:#181818;stroke-width:0.5;"/><ellipse cx="773.5" cy="315.22" fill="#F1F1F1" rx="12" ry="12" style="stroke:#181818;stroke-width:0.5;"/><text fill="#000000" font-family="sans-serif" font-size="14" lengthAdjust="spacing" textLength="39" x="745.5" y="345.7532">OC4N</text></g><!--entity ccr_3--><g id="elem_ccr_3"><rect fill="#F1F1F1" height="37.6094" rx="2.5" ry="2.5" style="stroke:#181818;stroke-width:0.5;" width="91" x="509.5" y="104"/><text fill="#000000" font-family="sans-serif" font-size="14" lengthAdjust="spacing" textLength="71" x="519.5" y="128.5332">Compare 3</text></g><!--entity outc_3--><g id="elem_outc_3"><rect fill="#F1F1F1" height="37.6094" rx="2.5" ry="2.5" style="stroke:#181818;stroke-width:0.5;" width="113" x="498.5" y="201.61"/><text fill="#000000" font-family="sans-serif" font-size="14" lengthAdjust="spacing" textLength="93" x="508.5" y="226.1432">Output Control</text></g><!--entity cci_3--><g id="elem_cci_3"><ellipse cx="555" cy="14" fill="#F1F1F1" rx="8" ry="8" style="stroke:#181818;stroke-width:0.5;"/><text fill="#000000" font-family="sans-serif" font-size="14" lengthAdjust="spacing" textLength="32" x="539" y="45.5332">CC3I</text></g><!--entity oc_3--><g id="elem_oc_3"><path d="M492.5,303.22 L492.5,327.22 M492.5,315.22 L509.5,315.22 " fill="none" style="stroke:#181818;stroke-width:0.5;"/><ellipse cx="521.5" cy="315.22" fill="#F1F1F1" rx="12" ry="12" style="stroke:#181818;stroke-width:0.5;"/><text fill="#000000" font-family="sans-serif" font-size="14" lengthAdjust="spacing" textLength="29" x="498.5" y="345.7532">OC3</text></g><!--entity ocn_3--><g id="elem_ocn_3"><path d="M576.5,303.22 L576.5,327.22 M576.5,315.22 L593.5,315.22 " fill="none" style="stroke:#181818;stroke-width:0.5;"/><ellipse cx="605.5" cy="315.22" fill="#F1F1F1" rx="12" ry="12" style="stroke:#181818;stroke-width:0.5;"/><text fill="#000000" font-family="sans-serif" font-size="14" lengthAdjust="spacing" textLength="39" x="577.5" y="345.7532">OC3N</text></g><!--entity ccr_2--><g id="elem_ccr_2"><rect fill="#F1F1F1" height="37.6094" rx="2.5" ry="2.5" style="stroke:#181818;stroke-width:0.5;" width="91" x="341.5" y="104"/><text fill="#000000" font-family="sans-serif" font-size="14" lengthAdjust="spacing" textLength="71" x="351.5" y="128.5332">Compare 2</text></g><!--entity outc_2--><g id="elem_outc_2"><rect fill="#F1F1F1" height="37.6094" rx="2.5" ry="2.5" style="stroke:#181818;stroke-width:0.5;" width="113" x="330.5" y="201.61"/><text fill="#000000" font-family="sans-serif" font-size="14" lengthAdjust="spacing" textLength="93" x="340.5" y="226.1432">Output Control</text></g><!--entity cci_2--><g id="elem_cci_2"><ellipse cx="387" cy="14" fill="#F1F1F1" rx="8" ry="8" style="stroke:#181818;stroke-width:0.5;"/><text fill="#000000" font-family="sans-serif" font-size="14" lengthAdjust="spacing" textLength="32" x="371" y="45.5332">CC2I</text></g><!--entity oc_2--><g id="elem_oc_2"><path d="M324.5,303.22 L324.5,327.22 M324.5,315.22 L341.5,315.22 " fill="none" style="stroke:#181818;stroke-width:0.5;"/><ellipse cx="353.5" cy="315.22" fill="#F1F1F1" rx="12" ry="12" style="stroke:#181818;stroke-width:0.5;"/><text fill="#000000" font-family="sans-serif" font-size="14" lengthAdjust="spacing" textLength="29" x="330.5" y="345.7532">OC2</text></g><!--entity ocn_2--><g id="elem_ocn_2"><path d="M408.5,303.22 L408.5,327.22 M408.5,315.22 L425.5,315.22 " fill="none" style="stroke:#181818;stroke-width:0.5;"/><ellipse cx="437.5" cy="315.22" fill="#F1F1F1" rx="12" ry="12" style="stroke:#181818;stroke-width:0.5;"/><text fill="#000000" font-family="sans-serif" font-size="14" lengthAdjust="spacing" textLength="39" x="409.5" y="345.7532">OC2N</text></g><!--entity ccr_1--><g id="elem_ccr_1"><rect fill="#F1F1F1" height="37.6094" rx="2.5" ry="2.5" style="stroke:#181818;stroke-width:0.5;" width="91" x="177.5" y="104"/><text fill="#000000" font-family="sans-serif" font-size="14" lengthAdjust="spacing" textLength="71" x="187.5" y="128.5332">Compare 1</text></g><!--entity outc_1--><g id="elem_outc_1"><rect fill="#F1F1F1" height="37.6094" rx="2.5" ry="2.5" style="stroke:#181818;stroke-width:0.5;" width="113" x="166.5" y="201.61"/><text fill="#000000" font-family="sans-serif" font-size="14" lengthAdjust="spacing" textLength="93" x="176.5" y="226.1432">Output Control</text></g><!--entity cci_1--><g id="elem_cci_1"><ellipse cx="223" cy="14" fill="#F1F1F1" rx="8" ry="8" style="stroke:#181818;stroke-width:0.5;"/><text fill="#000000" font-family="sans-serif" font-size="14" lengthAdjust="spacing" textLength="32" x="207" y="45.5332">CC1I</text></g><!--entity oc_1--><g id="elem_oc_1"><path d="M156.5,303.22 L156.5,327.22 M156.5,315.22 L173.5,315.22 " fill="none" style="stroke:#181818;stroke-width:0.5;"/><ellipse cx="185.5" cy="315.22" fill="#F1F1F1" rx="12" ry="12" style="stroke:#181818;stroke-width:0.5;"/><text fill="#000000" font-family="sans-serif" font-size="14" lengthAdjust="spacing" textLength="29" x="162.5" y="345.7532">OC1</text></g><!--entity ocn_1--><g id="elem_ocn_1"><path d="M240.5,303.22 L240.5,327.22 M240.5,315.22 L257.5,315.22 " fill="none" style="stroke:#181818;stroke-width:0.5;"/><ellipse cx="269.5" cy="315.22" fill="#F1F1F1" rx="12" ry="12" style="stroke:#181818;stroke-width:0.5;"/><text fill="#000000" font-family="sans-serif" font-size="14" lengthAdjust="spacing" textLength="39" x="241.5" y="345.7532">OC1N</text></g><!--entity cnt--><g id="elem_cnt"><rect fill="#F1F1F1" height="37.6094" rx="2.5" ry="2.5" style="stroke:#181818;stroke-width:0.5;" width="71" x="65.5" y="104"/><text fill="#000000" font-family="sans-serif" font-size="14" lengthAdjust="spacing" textLength="51" x="75.5" y="128.5332">Counter</text></g><!--entity clk--><g id="elem_clk"><ellipse cx="22" cy="122.81" fill="#F1F1F1" rx="8" ry="8" style="stroke:#181818;stroke-width:0.5;"/><text fill="#000000" font-family="sans-serif" font-size="14" lengthAdjust="spacing" textLength="32" x="6" y="154.3432">clock</text></g><!--entity upd--><g id="elem_upd"><ellipse cx="101" cy="14" fill="#F1F1F1" rx="8" ry="8" style="stroke:#181818;stroke-width:0.5;"/><text fill="#000000" font-family="sans-serif" font-size="14" lengthAdjust="spacing" textLength="46" x="78" y="45.5332">Update</text></g><!--link ccr_4 to outc_4--><g id="link_ccr_4_outc_4"><path d="M707.94,141.79 C708.73,156.92 709.87,178.68 710.74,195.31 " fill="none" id="ccr_4-to-outc_4" style="stroke:#181818;stroke-width:1.0;"/><polygon fill="#181818" points="711.05,200.19,714.5548,190.9859,710.7782,195.1974,706.5667,191.4208,711.05,200.19" style="stroke:#181818;stroke-width:1.0;"/></g><!--link outc_4 to oc_4--><g id="link_outc_4_oc_4"><path d="M706.46,239.58 C701.92,254.45 695.41,275.8 690.11,293.18 " fill="none" id="outc_4-to-oc_4" style="stroke:#181818;stroke-width:1.0;"/><polygon fill="#181818" points="688.36,297.9,694.808,290.4553,689.8164,293.1168,687.1549,288.1251,688.36,297.9" style="stroke:#181818;stroke-width:1.0;"/></g><!--link outc_4 to ocn_4--><g id="link_outc_4_ocn_4"><path d="M721.48,239.58 C729.3,254.58 740.56,276.17 749.67,293.63 " fill="none" id="outc_4-to-ocn_4" style="stroke:#181818;stroke-width:1.0;"/><polygon fill="#181818" points="752.42,297.9,751.8097,288.0701,750.1101,293.4656,744.7146,291.7659,752.42,297.9" style="stroke:#181818;stroke-width:1.0;"/></g><!--reverse link cci_4 to ccr_4--><g id="link_cci_4_ccr_4"><path d="M707,28.5 C707,47.58 707,82.46 707,103.75 " fill="none" id="cci_4-backto-ccr_4" style="stroke:#181818;stroke-width:1.0;"/><polygon fill="#181818" points="707,23.68,703,32.68,707,28.68,711,32.68,707,23.68" style="stroke:#181818;stroke-width:1.0;"/></g><!--link ccr_3 to outc_3--><g id="link_ccr_3_outc_3"><path d="M555,141.79 C555,156.92 555,178.68 555,195.31 " fill="none" id="ccr_3-to-outc_3" style="stroke:#181818;stroke-width:1.0;"/><polygon fill="#181818" points="555,200.19,559,191.19,555,195.19,551,191.19,555,200.19" style="stroke:#181818;stroke-width:1.0;"/></g><!--link outc_3 to oc_3--><g id="link_outc_3_oc_3"><path d="M547.49,239.58 C541.29,254.58 532.37,276.17 525.15,293.63 " fill="none" id="outc_3-to-oc_3" style="stroke:#181818;stroke-width:1.0;"/><polygon fill="#181818" points="522.97,297.9,530.106,291.112,524.8809,293.2796,522.7133,288.0545,522.97,297.9" style="stroke:#181818;stroke-width:1.0;"/></g><!--link outc_3 to ocn_3--><g id="link_outc_3_ocn_3"><path d="M562.51,239.58 C568.71,254.58 577.63,276.17 584.85,293.63 " fill="none" id="outc_3-to-ocn_3" style="stroke:#181818;stroke-width:1.0;"/><polygon fill="#181818" points="587.03,297.9,587.2867,288.0545,585.1191,293.2796,579.894,291.112,587.03,297.9" style="stroke:#181818;stroke-width:1.0;"/></g><!--reverse link cci_3 to ccr_3--><g id="link_cci_3_ccr_3"><path d="M555,28.5 C555,47.58 555,82.46 555,103.75 " fill="none" id="cci_3-backto-ccr_3" style="stroke:#181818;stroke-width:1.0;"/><polygon fill="#181818" points="555,23.68,551,32.68,555,28.68,559,32.68,555,23.68" style="stroke:#181818;stroke-width:1.0;"/></g><!--link ccr_2 to outc_2--><g id="link_ccr_2_outc_2"><path d="M387,141.79 C387,156.92 387,178.68 387,195.31 " fill="none" id="ccr_2-to-outc_2" style="stroke:#181818;stroke-width:1.0;"/><polygon fill="#181818" points="387,200.19,391,191.19,387,195.19,383,191.19,387,200.19" style="stroke:#181818;stroke-width:1.0;"/></g><!--link outc_2 to oc_2--><g id="link_outc_2_oc_2"><path d="M379.49,239.58 C373.29,254.58 364.37,276.17 357.15,293.63 " fill="none" id="outc_2-to-oc_2" style="stroke:#181818;stroke-width:1.0;"/><polygon fill="#181818" points="354.97,297.9,362.106,291.112,356.8809,293.2796,354.7133,288.0545,354.97,297.9" style="stroke:#181818;stroke-width:1.0;"/></g><!--link outc_2 to ocn_2--><g id="link_outc_2_ocn_2"><path d="M394.51,239.58 C400.71,254.58 409.63,276.17 416.85,293.63 " fill="none" id="outc_2-to-ocn_2" style="stroke:#181818;stroke-width:1.0;"/><polygon fill="#181818" points="419.03,297.9,419.2867,288.0545,417.1191,293.2796,411.894,291.112,419.03,297.9" style="stroke:#181818;stroke-width:1.0;"/></g><!--reverse link cci_2 to ccr_2--><g id="link_cci_2_ccr_2"><path d="M387,28.5 C387,47.58 387,82.46 387,103.75 " fill="none" id="cci_2-backto-ccr_2" style="stroke:#181818;stroke-width:1.0;"/><polygon fill="#181818" points="387,23.68,383,32.68,387,28.68,391,32.68,387,23.68" style="stroke:#181818;stroke-width:1.0;"/></g><!--link ccr_1 to outc_1--><g id="link_ccr_1_outc_1"><path d="M223,141.79 C223,156.92 223,178.68 223,195.31 " fill="none" id="ccr_1-to-outc_1" style="stroke:#181818;stroke-width:1.0;"/><polygon fill="#181818" points="223,200.19,227,191.19,223,195.19,219,191.19,223,200.19" style="stroke:#181818;stroke-width:1.0;"/></g><!--link outc_1 to oc_1--><g id="link_outc_1_oc_1"><path d="M214.78,239.58 C207.98,254.58 198.21,276.17 190.31,293.63 " fill="none" id="outc_1-to-oc_1" style="stroke:#181818;stroke-width:1.0;"/><polygon fill="#181818" points="187.92,297.9,195.2687,291.3428,189.9772,293.3428,187.9771,288.0513,187.92,297.9" style="stroke:#181818;stroke-width:1.0;"/></g><!--link outc_1 to ocn_1--><g id="link_outc_1_ocn_1"><path d="M229.79,239.58 C235.4,254.58 243.48,276.17 250.01,293.63 " fill="none" id="outc_1-to-ocn_1" style="stroke:#181818;stroke-width:1.0;"/><polygon fill="#181818" points="251.98,297.9,252.5915,288.0701,250.2369,293.2137,245.0934,290.8591,251.98,297.9" style="stroke:#181818;stroke-width:1.0;"/></g><!--reverse link cci_1 to ccr_1--><g id="link_cci_1_ccr_1"><path d="M223,28.5 C223,47.58 223,82.46 223,103.75 " fill="none" id="cci_1-backto-ccr_1" style="stroke:#181818;stroke-width:1.0;"/><polygon fill="#181818" points="223,23.68,219,32.68,223,28.68,227,32.68,223,23.68" style="stroke:#181818;stroke-width:1.0;"/></g><!--link clk to cnt--><g id="link_clk_cnt"><path d="M31.26,122.81 C40.58,122.81 49.91,122.81 59.23,122.81 " fill="none" id="clk-to-cnt" style="stroke:#181818;stroke-width:1.0;"/><polygon fill="#181818" points="64.04,122.81,55.04,118.81,59.04,122.81,55.04,126.81,64.04,122.81" style="stroke:#181818;stroke-width:1.0;"/></g><!--link cnt to ccr_1--><g id="link_cnt_ccr_1"><path d="M136.74,122.81 C150.22,122.81 163.7,122.81 177.18,122.81 " fill="none" id="cnt-ccr_1" style="stroke:#181818;stroke-width:5.0;"/></g><!--link ccr_1 to ccr_2--><g id="link_ccr_1_ccr_2"><path d="M268.8,122.81 C292.97,122.81 317.13,122.81 341.29,122.81 " fill="none" id="ccr_1-ccr_2" style="stroke:#181818;stroke-width:5.0;"/></g><!--link ccr_2 to ccr_3--><g id="link_ccr_2_ccr_3"><path d="M432.94,122.81 C458.37,122.81 483.8,122.81 509.23,122.81 " fill="none" id="ccr_2-ccr_3" style="stroke:#181818;stroke-width:5.0;"/></g><!--link ccr_3 to ccr_4--><g id="link_ccr_3_ccr_4"><path d="M600.72,122.81 C619.03,122.81 637.34,122.81 655.65,122.81 " fill="none" id="ccr_3-to-ccr_4" style="stroke:#181818;stroke-width:5.0;"/><polygon fill="#181818" points="660.33,122.81,651.33,118.81,655.33,122.81,651.33,126.81,660.33,122.81" style="stroke:#181818;stroke-width:5.0;"/></g><!--reverse link upd to cnt--><g id="link_upd_cnt"><path d="M101,28.5 C101,47.58 101,82.46 101,103.75 " fill="none" id="upd-backto-cnt" style="stroke:#181818;stroke-width:1.0;"/><polygon fill="#181818" points="101,23.68,97,32.68,101,28.68,105,32.68,101,23.68" style="stroke:#181818;stroke-width:1.0;"/></g><!--SRC=[XTInReCm50NG6N-5nSvWcuxDmjIbcJ95AAAE5H3KHkOnL5N_lGRR60Y4zRvd-vua2gY7W59e_8iYBJWKyj48pBc-fVYAeYXJtssX1KvHbCytL0_ShPnxQ7l0cPAWLJFkyKfpinHdMVeHuw8p5rOtSyMNwkMzq3yuFcVfE53yAVzq0pbCR9CaERaNKUHU7gFdO7weRqraN_v3i0jb2oZRWh9ZA0jGjWGn3rtd0SfiPnQWpBcOXww3-Q49obv2wG9Ajw3q64e3b2v1r4FNUO1Isva6A7Kkwg7hO7veWjANKBA0aYqeEOQI02LB4F7GTHwWn7Oc0KgSYtZeEfWVcg34G6Su2KFlpBm9GgCS-RQyKRosTPjwIY_jlG0nndrxHsQ44rqzIXWkbu26wv8hb1MlfUYwzxVSJks7Y5oNlGMAtBUojy2G-trkB9piVuojC6fDmty0]--></g></svg>