<?xml version="1.0" encoding="us-ascii" standalone="no"?><svg xmlns="http://www.w3.org/2000/svg" xmlns:xlink="http://www.w3.org/1999/xlink" contentStyleType="text/css" height="549px" preserveAspectRatio="none" style="width:646px;height:549px;background:#FFFFFF;" version="1.1" viewBox="0 0 646 549" width="646px" zoomAndPan="magnify"><defs/><g><!--cluster Bmt--><g id="cluster_Bmt"><rect fill="none" height="536.09" rx="2.5" ry="2.5" style="stroke:#181818;stroke-width:1.0;" width="633" x="7" y="7"/><path d="M44,7 L44,17.6094 L34,27.6094 L7,27.6094 " fill="none" style="stroke:#181818;stroke-width:1.0;"/><text fill="#000000" font-family="sans-serif" font-size="14" font-weight="bold" lengthAdjust="spacing" textLength="27" x="10" y="22.5332">Bmt</text></g><!--cluster Timer--><g id="cluster_Timer"><path d="M33.5,51 L72.5,51 A3.75,3.75 0 0 1 75,53.5 L82,74.6094 L613.5,74.6094 A2.5,2.5 0 0 1 616,77.1094 L616,516.59 A2.5,2.5 0 0 1 613.5,519.09 L33.5,519.09 A2.5,2.5 0 0 1 31,516.59 L31,53.5 A2.5,2.5 0 0 1 33.5,51 " fill="#EEFFEE" style="stroke:#000000;stroke-width:1.5;"/><line style="stroke:#000000;stroke-width:1.5;" x1="31" x2="82" y1="74.6094" y2="74.6094"/><text fill="#000000" font-family="sans-serif" font-size="14" font-weight="bold" lengthAdjust="spacing" textLength="38" x="35" y="67.5332">Timer</text></g><!--entity pre--><g id="elem_pre"><ellipse cx="562" cy="168.63" fill="#F1F1F1" rx="8" ry="8" style="stroke:#181818;stroke-width:0.5;"/><text fill="#000000" font-family="sans-serif" font-size="14" lengthAdjust="spacing" textLength="60" x="532" y="200.1632">Prescaler</text></g><!--class SlaveMode--><g id="elem_SlaveMode"><rect codeLine="806" fill="#F1F1F1" height="110.4375" id="SlaveMode" rx="2.5" ry="2.5" style="stroke:#181818;stroke-width:0.5;" width="109" x="379.5" y="113.41"/><ellipse cx="397.2" cy="129.41" fill="#EB937F" rx="11" ry="11" style="stroke:#181818;stroke-width:1.0;"/><path d="M396.0594,130.2069 L396.0594,132.7069 L400.3875,132.7069 L400.3875,131.785 Q400.3875,131.1756 400.6219,130.91 Q400.8719,130.6444 401.2469,130.6444 Q401.6219,130.6444 401.8563,130.91 Q402.0906,131.1756 402.0906,131.785 L402.0906,134.41 L394.0906,134.41 Q393.4656,134.41 393.2,134.1756 Q392.95,133.9413 392.95,133.5506 Q392.95,133.1756 393.2156,132.9413 Q393.4813,132.7069 394.0906,132.7069 L394.3563,132.7069 L394.3563,126.0506 L394.0906,126.0506 Q393.4656,126.0506 393.2,125.8163 Q392.95,125.5819 392.95,125.1913 Q392.95,124.8163 393.2,124.5819 Q393.4656,124.3475 394.0906,124.3475 L401.7156,124.3475 L401.7156,126.9413 Q401.7156,127.5506 401.4813,127.8163 Q401.2625,128.0663 400.8719,128.0663 Q400.4969,128.0663 400.2625,127.8163 Q400.0281,127.5506 400.0281,126.9413 L400.0281,126.0506 L396.0594,126.0506 L396.0594,128.5038 L397.5438,128.5038 Q397.5438,127.8475 397.6688,127.66 Q397.9344,127.2538 398.4031,127.2538 Q398.7781,127.2538 399.0125,127.5194 Q399.2469,127.7694 399.2469,128.3788 L399.2469,130.3475 Q399.2469,130.8944 399.1219,131.0819 Q398.8563,131.4725 398.4031,131.4725 Q397.9344,131.4725 397.6688,131.0663 Q397.5438,130.8788 397.5438,130.2069 L396.0594,130.2069 Z " fill="#000000"/><text fill="#000000" font-family="sans-serif" font-size="14" lengthAdjust="spacing" textLength="71" x="411.8" y="135.1385">SlaveMode</text><line style="stroke:#181818;stroke-width:0.5;" x1="380.5" x2="487.5" y1="145.41" y2="145.41"/><text fill="#000000" font-family="sans-serif" font-size="14" lengthAdjust="spacing" textLength="97" x="385.5" y="163.9432">kMasterIsClock</text><text fill="#000000" font-family="sans-serif" font-size="14" lengthAdjust="spacing" textLength="66" x="385.5" y="181.5526">kResetCnt</text><text fill="#000000" font-family="sans-serif" font-size="14" lengthAdjust="spacing" textLength="82" x="385.5" y="199.162">kGatedMode</text><text fill="#000000" font-family="sans-serif" font-size="14" lengthAdjust="spacing" textLength="73" x="385.5" y="216.7713">kStartMode</text></g><!--class MasterMode--><g id="elem_MasterMode"><rect codeLine="812" fill="#F1F1F1" height="163.2656" id="MasterMode" rx="2.5" ry="2.5" style="stroke:#181818;stroke-width:0.5;" width="113" x="231.5" y="87"/><ellipse cx="246.95" cy="103" fill="#EB937F" rx="11" ry="11" style="stroke:#181818;stroke-width:1.0;"/><path d="M245.8094,103.7969 L245.8094,106.2969 L250.1375,106.2969 L250.1375,105.375 Q250.1375,104.7656 250.3719,104.5 Q250.6219,104.2344 250.9969,104.2344 Q251.3719,104.2344 251.6063,104.5 Q251.8406,104.7656 251.8406,105.375 L251.8406,108 L243.8406,108 Q243.2156,108 242.95,107.7656 Q242.7,107.5313 242.7,107.1406 Q242.7,106.7656 242.9656,106.5313 Q243.2313,106.2969 243.8406,106.2969 L244.1063,106.2969 L244.1063,99.6406 L243.8406,99.6406 Q243.2156,99.6406 242.95,99.4063 Q242.7,99.1719 242.7,98.7813 Q242.7,98.4063 242.95,98.1719 Q243.2156,97.9375 243.8406,97.9375 L251.4656,97.9375 L251.4656,100.5313 Q251.4656,101.1406 251.2313,101.4063 Q251.0125,101.6563 250.6219,101.6563 Q250.2469,101.6563 250.0125,101.4063 Q249.7781,101.1406 249.7781,100.5313 L249.7781,99.6406 L245.8094,99.6406 L245.8094,102.0938 L247.2938,102.0938 Q247.2938,101.4375 247.4188,101.25 Q247.6844,100.8438 248.1531,100.8438 Q248.5281,100.8438 248.7625,101.1094 Q248.9969,101.3594 248.9969,101.9688 L248.9969,103.9375 Q248.9969,104.4844 248.8719,104.6719 Q248.6063,105.0625 248.1531,105.0625 Q247.6844,105.0625 247.4188,104.6563 Q247.2938,104.4688 247.2938,103.7969 L245.8094,103.7969 Z " fill="#000000"/><text fill="#000000" font-family="sans-serif" font-size="14" lengthAdjust="spacing" textLength="80" x="261.05" y="108.7285">MasterMode</text><line style="stroke:#181818;stroke-width:0.5;" x1="232.5" x2="343.5" y1="119" y2="119"/><text fill="#000000" font-family="sans-serif" font-size="14" lengthAdjust="spacing" textLength="53" x="237.5" y="137.5332">kUpdate</text><text fill="#000000" font-family="sans-serif" font-size="14" lengthAdjust="spacing" textLength="51" x="237.5" y="155.1426">kEnable</text><text fill="#000000" font-family="sans-serif" font-size="14" lengthAdjust="spacing" textLength="101" x="237.5" y="172.752">kComparePulse</text><text fill="#000000" font-family="sans-serif" font-size="14" lengthAdjust="spacing" textLength="74" x="237.5" y="190.3613">kCompare1</text><text fill="#000000" font-family="sans-serif" font-size="14" lengthAdjust="spacing" textLength="74" x="237.5" y="207.9707">kCompare2</text><text fill="#000000" font-family="sans-serif" font-size="14" lengthAdjust="spacing" textLength="74" x="237.5" y="225.5801">kCompare3</text><text fill="#000000" font-family="sans-serif" font-size="14" lengthAdjust="spacing" textLength="74" x="237.5" y="243.1895">kCompare4</text></g><!--class Unit2--><g id="elem_Unit2"><rect codeLine="821" fill="#F1F1F1" height="110.4375" id="Unit2" rx="2.5" ry="2.5" style="stroke:#181818;stroke-width:0.5;" width="57" x="139.5" y="113.41"/><ellipse cx="154.5" cy="129.41" fill="#EB937F" rx="11" ry="11" style="stroke:#181818;stroke-width:1.0;"/><path d="M153.3594,130.2069 L153.3594,132.7069 L157.6875,132.7069 L157.6875,131.785 Q157.6875,131.1756 157.9219,130.91 Q158.1719,130.6444 158.5469,130.6444 Q158.9219,130.6444 159.1563,130.91 Q159.3906,131.1756 159.3906,131.785 L159.3906,134.41 L151.3906,134.41 Q150.7656,134.41 150.5,134.1756 Q150.25,133.9413 150.25,133.5506 Q150.25,133.1756 150.5156,132.9413 Q150.7813,132.7069 151.3906,132.7069 L151.6563,132.7069 L151.6563,126.0506 L151.3906,126.0506 Q150.7656,126.0506 150.5,125.8163 Q150.25,125.5819 150.25,125.1913 Q150.25,124.8163 150.5,124.5819 Q150.7656,124.3475 151.3906,124.3475 L159.0156,124.3475 L159.0156,126.9413 Q159.0156,127.5506 158.7813,127.8163 Q158.5625,128.0663 158.1719,128.0663 Q157.7969,128.0663 157.5625,127.8163 Q157.3281,127.5506 157.3281,126.9413 L157.3281,126.0506 L153.3594,126.0506 L153.3594,128.5038 L154.8438,128.5038 Q154.8438,127.8475 154.9688,127.66 Q155.2344,127.2538 155.7031,127.2538 Q156.0781,127.2538 156.3125,127.5194 Q156.5469,127.7694 156.5469,128.3788 L156.5469,130.3475 Q156.5469,130.8944 156.4219,131.0819 Q156.1563,131.4725 155.7031,131.4725 Q155.2344,131.4725 154.9688,131.0663 Q154.8438,130.8788 154.8438,130.2069 L153.3594,130.2069 Z " fill="#000000"/><text fill="#000000" font-family="sans-serif" font-size="14" lengthAdjust="spacing" textLength="25" x="168.5" y="135.1385">Unit</text><line style="stroke:#181818;stroke-width:0.5;" x1="140.5" x2="195.5" y1="145.41" y2="145.41"/><text fill="#000000" font-family="sans-serif" font-size="14" lengthAdjust="spacing" textLength="39" x="145.5" y="163.9432">kTim1</text><text fill="#000000" font-family="sans-serif" font-size="14" lengthAdjust="spacing" textLength="39" x="145.5" y="181.5526">kTim2</text><text fill="#000000" font-family="sans-serif" font-size="14" lengthAdjust="spacing" textLength="39" x="145.5" y="199.162">kTim3</text><text fill="#000000" font-family="sans-serif" font-size="14" lengthAdjust="spacing" textLength="39" x="145.5" y="216.7713">kTim4</text></g><!--class Unit--><g id="elem_Unit"><rect codeLine="827" fill="#F1F1F1" height="110.4375" id="Unit" rx="2.5" ry="2.5" style="stroke:#181818;stroke-width:0.5;" width="57" x="47.5" y="113.41"/><ellipse cx="62.5" cy="129.41" fill="#EB937F" rx="11" ry="11" style="stroke:#181818;stroke-width:1.0;"/><path d="M61.3594,130.2069 L61.3594,132.7069 L65.6875,132.7069 L65.6875,131.785 Q65.6875,131.1756 65.9219,130.91 Q66.1719,130.6444 66.5469,130.6444 Q66.9219,130.6444 67.1563,130.91 Q67.3906,131.1756 67.3906,131.785 L67.3906,134.41 L59.3906,134.41 Q58.7656,134.41 58.5,134.1756 Q58.25,133.9413 58.25,133.5506 Q58.25,133.1756 58.5156,132.9413 Q58.7813,132.7069 59.3906,132.7069 L59.6563,132.7069 L59.6563,126.0506 L59.3906,126.0506 Q58.7656,126.0506 58.5,125.8163 Q58.25,125.5819 58.25,125.1913 Q58.25,124.8163 58.5,124.5819 Q58.7656,124.3475 59.3906,124.3475 L67.0156,124.3475 L67.0156,126.9413 Q67.0156,127.5506 66.7813,127.8163 Q66.5625,128.0663 66.1719,128.0663 Q65.7969,128.0663 65.5625,127.8163 Q65.3281,127.5506 65.3281,126.9413 L65.3281,126.0506 L61.3594,126.0506 L61.3594,128.5038 L62.8438,128.5038 Q62.8438,127.8475 62.9688,127.66 Q63.2344,127.2538 63.7031,127.2538 Q64.0781,127.2538 64.3125,127.5194 Q64.5469,127.7694 64.5469,128.3788 L64.5469,130.3475 Q64.5469,130.8944 64.4219,131.0819 Q64.1563,131.4725 63.7031,131.4725 Q63.2344,131.4725 62.9688,131.0663 Q62.8438,130.8788 62.8438,130.2069 L61.3594,130.2069 Z " fill="#000000"/><text fill="#000000" font-family="sans-serif" font-size="14" lengthAdjust="spacing" textLength="25" x="76.5" y="135.1385">Unit</text><line style="stroke:#181818;stroke-width:0.5;" x1="48.5" x2="103.5" y1="145.41" y2="145.41"/><text fill="#000000" font-family="sans-serif" font-size="14" lengthAdjust="spacing" textLength="39" x="53.5" y="163.9432">kTim1</text><text fill="#000000" font-family="sans-serif" font-size="14" lengthAdjust="spacing" textLength="39" x="53.5" y="181.5526">kTim2</text><text fill="#000000" font-family="sans-serif" font-size="14" lengthAdjust="spacing" textLength="39" x="53.5" y="199.162">kTim3</text><text fill="#000000" font-family="sans-serif" font-size="14" lengthAdjust="spacing" textLength="39" x="53.5" y="216.7713">kTim4</text></g><!--class i_pre--><g id="elem_i_pre"><rect codeLine="833" fill="#F1F1F1" height="100.8281" id="i_pre" rx="2.5" ry="2.5" style="stroke:#181818;stroke-width:0.5;" width="171" x="202.5" y="310.26"/><ellipse cx="217.5" cy="326.26" fill="#ADD1B2" rx="11" ry="11" style="stroke:#181818;stroke-width:1.0;"/><path d="M220.2656,322.135 Q220.4219,321.9163 220.6094,321.8069 Q220.7969,321.6975 221.0156,321.6975 Q221.3906,321.6975 221.625,321.9631 Q221.8594,322.2131 221.8594,322.8225 L221.8594,324.2756 Q221.8594,324.885 221.625,325.1506 Q221.3906,325.4163 221.0156,325.4163 Q220.6719,325.4163 220.4688,325.2131 Q220.2656,325.0256 220.1563,324.51 Q220.1094,324.1506 219.9219,323.9631 Q219.5938,323.5881 218.9844,323.3694 Q218.375,323.1506 217.75,323.1506 Q216.9844,323.1506 216.3438,323.4788 Q215.7188,323.8069 215.2188,324.5569 Q214.7344,325.3069 214.7344,326.3381 L214.7344,327.4319 Q214.7344,328.6663 215.625,329.4944 Q216.5156,330.3069 218.1094,330.3069 Q219.0469,330.3069 219.7031,330.0569 Q220.0938,329.9006 220.5156,329.4631 Q220.7813,329.1975 220.9219,329.1194 Q221.0781,329.0413 221.2813,329.0413 Q221.6094,329.0413 221.8594,329.3069 Q222.125,329.5569 222.125,329.9006 Q222.125,330.2444 221.7813,330.6506 Q221.2813,331.2288 220.4844,331.5569 Q219.4063,332.01 218.1094,332.01 Q216.5938,332.01 215.3906,331.385 Q214.4063,330.885 213.7188,329.8225 Q213.0313,328.7444 213.0313,327.4631 L213.0313,326.3069 Q213.0313,324.9788 213.6406,323.8381 Q214.2656,322.6819 215.3594,322.0725 Q216.4531,321.4475 217.6875,321.4475 Q218.4219,321.4475 219.0625,321.6194 Q219.7188,321.7756 220.2656,322.135 Z " fill="#000000"/><text fill="#000000" font-family="sans-serif" font-size="14" lengthAdjust="spacing" textLength="139" x="231.5" y="331.9885">MasterSlaveTimers&lt;&gt;</text><line style="stroke:#181818;stroke-width:0.5;" x1="203.5" x2="372.5" y1="342.26" y2="342.26"/><text fill="#000000" font-family="sans-serif" font-size="14" lengthAdjust="spacing" text-decoration="underline" textLength="96" x="208.5" y="360.7932">kMasterTimer_</text><text fill="#000000" font-family="sans-serif" font-size="14" lengthAdjust="spacing" text-decoration="underline" textLength="75" x="208.5" y="378.4026">kPrescaler_</text><line style="stroke:#181818;stroke-width:0.5;" x1="203.5" x2="372.5" y1="385.4788" y2="385.4788"/><text fill="#000000" font-family="sans-serif" font-size="14" lengthAdjust="spacing" textLength="47" x="208.5" y="404.012">Setup()</text></g><!--class any--><g id="elem_any"><rect codeLine="838" fill="#F1F1F1" height="32" id="any" rx="2.5" ry="2.5" style="stroke:#181818;stroke-width:0.5;" width="72" x="252" y="471.09"/><ellipse cx="267" cy="487.09" fill="#ADD1B2" rx="11" ry="11" style="stroke:#181818;stroke-width:1.0;"/><path d="M269.7656,482.965 Q269.9219,482.7463 270.1094,482.6369 Q270.2969,482.5275 270.5156,482.5275 Q270.8906,482.5275 271.125,482.7931 Q271.3594,483.0431 271.3594,483.6525 L271.3594,485.1056 Q271.3594,485.715 271.125,485.9806 Q270.8906,486.2463 270.5156,486.2463 Q270.1719,486.2463 269.9688,486.0431 Q269.7656,485.8556 269.6563,485.34 Q269.6094,484.9806 269.4219,484.7931 Q269.0938,484.4181 268.4844,484.1994 Q267.875,483.9806 267.25,483.9806 Q266.4844,483.9806 265.8438,484.3088 Q265.2188,484.6369 264.7188,485.3869 Q264.2344,486.1369 264.2344,487.1681 L264.2344,488.2619 Q264.2344,489.4963 265.125,490.3244 Q266.0156,491.1369 267.6094,491.1369 Q268.5469,491.1369 269.2031,490.8869 Q269.5938,490.7306 270.0156,490.2931 Q270.2813,490.0275 270.4219,489.9494 Q270.5781,489.8713 270.7813,489.8713 Q271.1094,489.8713 271.3594,490.1369 Q271.625,490.3869 271.625,490.7306 Q271.625,491.0744 271.2813,491.4806 Q270.7813,492.0588 269.9844,492.3869 Q268.9063,492.84 267.6094,492.84 Q266.0938,492.84 264.8906,492.215 Q263.9063,491.715 263.2188,490.6525 Q262.5313,489.5744 262.5313,488.2931 L262.5313,487.1369 Q262.5313,485.8088 263.1406,484.6681 Q263.7656,483.5119 264.8594,482.9025 Q265.9531,482.2775 267.1875,482.2775 Q267.9219,482.2775 268.5625,482.4494 Q269.2188,482.6056 269.7656,482.965 Z " fill="#000000"/><text fill="#000000" font-family="sans-serif" font-size="14" lengthAdjust="spacing" textLength="40" x="281" y="492.8185">Any&lt;&gt;</text></g><!--link SlaveMode to i_pre--><g id="link_SlaveMode_i_pre"><path codeLine="841" d="M391.97,224.34 C374.08,247.63 353.14,274.88 334.76,298.8 " fill="none" id="SlaveMode-to-i_pre" style="stroke:#181818;stroke-width:1.0;"/><polygon fill="none" points="326.25,308.89,333.076,306.5649,333.5551,299.3697,326.7291,301.6948,326.25,308.89" style="stroke:#181818;stroke-width:1.0;"/></g><!--link MasterMode to i_pre--><g id="link_MasterMode_i_pre"><path codeLine="842" d="M288,250.5 C288,265.81 288,281.63 288,296.3 " fill="none" id="MasterMode-to-i_pre" style="stroke:#181818;stroke-width:1.0;"/><polygon fill="none" points="288,308.97,292,302.97,288,296.97,284,302.97,288,308.97" style="stroke:#181818;stroke-width:1.0;"/></g><!--link Unit to i_pre--><g id="link_Unit_i_pre"><path codeLine="843" d="M102.38,224.12 C108.14,233.38 114.72,242.5 122,250.26 C141.87,271.46 166.62,290.54 190.89,306.61 " fill="none" id="Unit-to-i_pre" style="stroke:#181818;stroke-width:1.0;"/><polygon fill="none" points="201.37,314.02,198.4973,307.4058,191.287,307.5136,194.1597,314.1278,201.37,314.02" style="stroke:#181818;stroke-width:1.0;"/></g><!--link Unit2 to i_pre--><g id="link_Unit2_i_pre"><path codeLine="844" d="M196.87,221.59 C202.43,231.2 208.3,241.09 214,250.26 C223.8,266.01 234.79,282.73 245.25,298.23 " fill="none" id="Unit2-to-i_pre" style="stroke:#181818;stroke-width:1.0;"/><polygon fill="none" points="253.11,308.82,253.0507,301.6091,246.3717,298.8905,246.431,306.1014,253.11,308.82" style="stroke:#181818;stroke-width:1.0;"/></g><!--link pre to i_pre--><g id="link_pre_i_pre"><path codeLine="845" d="M558.37,177.23 C550.66,192.74 531.24,228.37 506,250.26 C468.96,282.39 420.82,307.84 379.21,326.08 " fill="none" id="pre-to-i_pre" style="stroke:#181818;stroke-width:1.0;"/><polygon fill="#181818" points="374.9,328.38,384.7485,328.4597,379.4854,326.3864,381.5587,321.1232,374.9,328.38" style="stroke:#181818;stroke-width:1.0;"/></g><!--link i_pre to any--><g id="link_i_pre_any"><path codeLine="846" d="M288,411.56 C288,430.14 288,450.24 288,464.88 " fill="none" id="i_pre-to-any" style="stroke:#181818;stroke-width:1.0;"/><polygon fill="#181818" points="288,469.8,292,460.8,288,464.8,284,460.8,288,469.8" style="stroke:#181818;stroke-width:1.0;"/></g><!--SRC=[bL6nQiCm49tZhn3kqWuUudGCXjOufKCWDCqSBl91J2JPI4eXXFnxfPETI7JgTk_TwRsx9mKIpG0SsRkqRBbSQKTK5RjcCtLlVNSIDNjgcjMgQNnhnZlD1R9yez5m4AXp1eOD6bqFrLcohO0VNFSjqlZij0PZKN-QMlJyHCmN6hIriWG-m6BhnmbjBMWxejka61GYoTtGkbTKDWeE8fHrBmVGk3aBan3p69GnMCJWDRRCTwgpT9aloj7NfJ6VYd8g5bEH2FXd_th51HZ3yd0hPKZPcsL5QtHx5t4Gl1eBjkCtDaPBS_kqS_yTuhTepyFpI-hqfYwZDgXBvZgtxF5rHT47oomA_q7ITIai8-nNBOfgH65rZxtHiNDA3oE9zjYt9j2HLyAJtH-cJ2adxWXvS9dz0W00]--></g></svg>