<?xml version="1.0" encoding="us-ascii" standalone="no"?><svg xmlns="http://www.w3.org/2000/svg" xmlns:xlink="http://www.w3.org/1999/xlink" contentStyleType="text/css" height="531px" preserveAspectRatio="none" style="width:442px;height:531px;background:#FFFFFF;" version="1.1" viewBox="0 0 442 531" width="442px" zoomAndPan="magnify"><defs/><g><!--cluster Bmt--><g id="cluster_Bmt"><rect fill="none" height="518.48" rx="2.5" ry="2.5" style="stroke:#181818;stroke-width:1.0;" width="429" x="7" y="7"/><path d="M44,7 L44,17.6094 L34,27.6094 L7,27.6094 " fill="none" style="stroke:#181818;stroke-width:1.0;"/><text fill="#000000" font-family="sans-serif" font-size="14" font-weight="bold" lengthAdjust="spacing" textLength="27" x="10" y="22.5332">Bmt</text></g><!--cluster Clocks--><g id="cluster_Clocks"><path d="M33.5,90.21 L81.5,90.21 A3.75,3.75 0 0 1 84,92.71 L91,113.8194 L174.5,113.8194 A2.5,2.5 0 0 1 177,116.3194 L177,171.71 A2.5,2.5 0 0 1 174.5,174.21 L33.5,174.21 A2.5,2.5 0 0 1 31,171.71 L31,92.71 A2.5,2.5 0 0 1 33.5,90.21 " fill="#EEEEFF" style="stroke:#000000;stroke-width:1.5;"/><line style="stroke:#000000;stroke-width:1.5;" x1="31" x2="91" y1="113.8194" y2="113.8194"/><text fill="#000000" font-family="sans-serif" font-size="14" font-weight="bold" lengthAdjust="spacing" textLength="47" x="35" y="106.7432">Clocks</text></g><!--cluster Timer--><g id="cluster_Timer"><path d="M203.5,51 L242.5,51 A3.75,3.75 0 0 1 245,53.5 L252,74.6094 L409.5,74.6094 A2.5,2.5 0 0 1 412,77.1094 L412,498.98 A2.5,2.5 0 0 1 409.5,501.48 L203.5,501.48 A2.5,2.5 0 0 1 201,498.98 L201,53.5 A2.5,2.5 0 0 1 203.5,51 " fill="#EEFFEE" style="stroke:#000000;stroke-width:1.5;"/><line style="stroke:#000000;stroke-width:1.5;" x1="201" x2="252" y1="74.6094" y2="74.6094"/><text fill="#000000" font-family="sans-serif" font-size="14" font-weight="bold" lengthAdjust="spacing" textLength="38" x="205" y="67.5332">Timer</text></g><!--class clk--><g id="elem_clk"><rect codeLine="435" fill="#F1F1F1" height="32" id="clk" rx="2.5" ry="2.5" style="stroke:#181818;stroke-width:0.5;" width="115" x="46.5" y="126.21"/><ellipse cx="61.5" cy="142.21" fill="#ADD1B2" rx="11" ry="11" style="stroke:#181818;stroke-width:1.0;"/><path d="M64.2656,138.085 Q64.4219,137.8663 64.6094,137.7569 Q64.7969,137.6475 65.0156,137.6475 Q65.3906,137.6475 65.625,137.9131 Q65.8594,138.1631 65.8594,138.7725 L65.8594,140.2256 Q65.8594,140.835 65.625,141.1006 Q65.3906,141.3663 65.0156,141.3663 Q64.6719,141.3663 64.4688,141.1631 Q64.2656,140.9756 64.1563,140.46 Q64.1094,140.1006 63.9219,139.9131 Q63.5938,139.5381 62.9844,139.3194 Q62.375,139.1006 61.75,139.1006 Q60.9844,139.1006 60.3438,139.4288 Q59.7188,139.7569 59.2188,140.5069 Q58.7344,141.2569 58.7344,142.2881 L58.7344,143.3819 Q58.7344,144.6163 59.625,145.4444 Q60.5156,146.2569 62.1094,146.2569 Q63.0469,146.2569 63.7031,146.0069 Q64.0938,145.8506 64.5156,145.4131 Q64.7813,145.1475 64.9219,145.0694 Q65.0781,144.9913 65.2813,144.9913 Q65.6094,144.9913 65.8594,145.2569 Q66.125,145.5069 66.125,145.8506 Q66.125,146.1944 65.7813,146.6006 Q65.2813,147.1788 64.4844,147.5069 Q63.4063,147.96 62.1094,147.96 Q60.5938,147.96 59.3906,147.335 Q58.4063,146.835 57.7188,145.7725 Q57.0313,144.6944 57.0313,143.4131 L57.0313,142.2569 Q57.0313,140.9288 57.6406,139.7881 Q58.2656,138.6319 59.3594,138.0225 Q60.4531,137.3975 61.6875,137.3975 Q62.4219,137.3975 63.0625,137.5694 Q63.7188,137.7256 64.2656,138.085 Z " fill="#000000"/><text fill="#000000" font-family="sans-serif" font-size="14" lengthAdjust="spacing" textLength="83" x="75.5" y="147.9385">AnySycClk&lt;&gt;</text></g><!--class Unit--><g id="elem_Unit"><rect codeLine="438" fill="#F1F1F1" height="110.4375" id="Unit" rx="2.5" ry="2.5" style="stroke:#181818;stroke-width:0.5;" width="57" x="338.5" y="87"/><ellipse cx="353.5" cy="103" fill="#EB937F" rx="11" ry="11" style="stroke:#181818;stroke-width:1.0;"/><path d="M352.3594,103.7969 L352.3594,106.2969 L356.6875,106.2969 L356.6875,105.375 Q356.6875,104.7656 356.9219,104.5 Q357.1719,104.2344 357.5469,104.2344 Q357.9219,104.2344 358.1563,104.5 Q358.3906,104.7656 358.3906,105.375 L358.3906,108 L350.3906,108 Q349.7656,108 349.5,107.7656 Q349.25,107.5313 349.25,107.1406 Q349.25,106.7656 349.5156,106.5313 Q349.7813,106.2969 350.3906,106.2969 L350.6563,106.2969 L350.6563,99.6406 L350.3906,99.6406 Q349.7656,99.6406 349.5,99.4063 Q349.25,99.1719 349.25,98.7813 Q349.25,98.4063 349.5,98.1719 Q349.7656,97.9375 350.3906,97.9375 L358.0156,97.9375 L358.0156,100.5313 Q358.0156,101.1406 357.7813,101.4063 Q357.5625,101.6563 357.1719,101.6563 Q356.7969,101.6563 356.5625,101.4063 Q356.3281,101.1406 356.3281,100.5313 L356.3281,99.6406 L352.3594,99.6406 L352.3594,102.0938 L353.8438,102.0938 Q353.8438,101.4375 353.9688,101.25 Q354.2344,100.8438 354.7031,100.8438 Q355.0781,100.8438 355.3125,101.1094 Q355.5469,101.3594 355.5469,101.9688 L355.5469,103.9375 Q355.5469,104.4844 355.4219,104.6719 Q355.1563,105.0625 354.7031,105.0625 Q354.2344,105.0625 353.9688,104.6563 Q353.8438,104.4688 353.8438,103.7969 L352.3594,103.7969 Z " fill="#000000"/><text fill="#000000" font-family="sans-serif" font-size="14" lengthAdjust="spacing" textLength="25" x="367.5" y="108.7285">Unit</text><line style="stroke:#181818;stroke-width:0.5;" x1="339.5" x2="394.5" y1="119" y2="119"/><text fill="#000000" font-family="sans-serif" font-size="14" lengthAdjust="spacing" textLength="39" x="344.5" y="137.5332">kTim1</text><text fill="#000000" font-family="sans-serif" font-size="14" lengthAdjust="spacing" textLength="39" x="344.5" y="155.1426">kTim2</text><text fill="#000000" font-family="sans-serif" font-size="14" lengthAdjust="spacing" textLength="39" x="344.5" y="172.752">kTim3</text><text fill="#000000" font-family="sans-serif" font-size="14" lengthAdjust="spacing" textLength="39" x="344.5" y="190.3613">kTim4</text></g><!--entity pre--><g id="elem_pre"><ellipse cx="260" cy="142.21" fill="#F1F1F1" rx="8" ry="8" style="stroke:#181818;stroke-width:0.5;"/><text fill="#000000" font-family="sans-serif" font-size="14" lengthAdjust="spacing" textLength="70" x="225" y="173.7432">Period (us)</text></g><!--class i_pre--><g id="elem_i_pre"><rect codeLine="445" fill="#F1F1F1" height="136.0469" id="i_pre" rx="2.5" ry="2.5" style="stroke:#181818;stroke-width:0.5;" width="131" x="216.5" y="257.43"/><ellipse cx="231.5" cy="273.43" fill="#ADD1B2" rx="11" ry="11" style="stroke:#181818;stroke-width:1.0;"/><path d="M234.2656,269.305 Q234.4219,269.0863 234.6094,268.9769 Q234.7969,268.8675 235.0156,268.8675 Q235.3906,268.8675 235.625,269.1331 Q235.8594,269.3831 235.8594,269.9925 L235.8594,271.4456 Q235.8594,272.055 235.625,272.3206 Q235.3906,272.5863 235.0156,272.5863 Q234.6719,272.5863 234.4688,272.3831 Q234.2656,272.1956 234.1563,271.68 Q234.1094,271.3206 233.9219,271.1331 Q233.5938,270.7581 232.9844,270.5394 Q232.375,270.3206 231.75,270.3206 Q230.9844,270.3206 230.3438,270.6488 Q229.7188,270.9769 229.2188,271.7269 Q228.7344,272.4769 228.7344,273.5081 L228.7344,274.6019 Q228.7344,275.8363 229.625,276.6644 Q230.5156,277.4769 232.1094,277.4769 Q233.0469,277.4769 233.7031,277.2269 Q234.0938,277.0706 234.5156,276.6331 Q234.7813,276.3675 234.9219,276.2894 Q235.0781,276.2113 235.2813,276.2113 Q235.6094,276.2113 235.8594,276.4769 Q236.125,276.7269 236.125,277.0706 Q236.125,277.4144 235.7813,277.8206 Q235.2813,278.3988 234.4844,278.7269 Q233.4063,279.18 232.1094,279.18 Q230.5938,279.18 229.3906,278.555 Q228.4063,278.055 227.7188,276.9925 Q227.0313,275.9144 227.0313,274.6331 L227.0313,273.4769 Q227.0313,272.1488 227.6406,271.0081 Q228.2656,269.8519 229.3594,269.2425 Q230.4531,268.6175 231.6875,268.6175 Q232.4219,268.6175 233.0625,268.7894 Q233.7188,268.9456 234.2656,269.305 Z " fill="#000000"/><text fill="#000000" font-family="sans-serif" font-size="14" lengthAdjust="spacing" textLength="99" x="245.5" y="279.1585">InternalClock&lt;&gt;</text><line style="stroke:#181818;stroke-width:0.5;" x1="217.5" x2="346.5" y1="289.43" y2="289.43"/><text fill="#000000" font-family="sans-serif" font-size="14" lengthAdjust="spacing" text-decoration="underline" textLength="61" x="222.5" y="307.9632">kClkTick_</text><text fill="#000000" font-family="sans-serif" font-size="14" lengthAdjust="spacing" text-decoration="underline" textLength="78" x="222.5" y="325.5726">kTimerTick_</text><text fill="#000000" font-family="sans-serif" font-size="14" lengthAdjust="spacing" text-decoration="underline" textLength="75" x="222.5" y="343.182">kPrescaler_</text><text fill="#000000" font-family="sans-serif" font-size="14" lengthAdjust="spacing" text-decoration="underline" textLength="83" x="222.5" y="360.7913">kFrequency_</text><line style="stroke:#181818;stroke-width:0.5;" x1="217.5" x2="346.5" y1="367.8675" y2="367.8675"/><text fill="#000000" font-family="sans-serif" font-size="14" lengthAdjust="spacing" textLength="47" x="222.5" y="386.4007">Setup()</text></g><!--class any--><g id="elem_any"><rect codeLine="452" fill="#F1F1F1" height="32" id="any" rx="2.5" ry="2.5" style="stroke:#181818;stroke-width:0.5;" width="72" x="246" y="453.48"/><ellipse cx="261" cy="469.48" fill="#ADD1B2" rx="11" ry="11" style="stroke:#181818;stroke-width:1.0;"/><path d="M263.7656,465.355 Q263.9219,465.1363 264.1094,465.0269 Q264.2969,464.9175 264.5156,464.9175 Q264.8906,464.9175 265.125,465.1831 Q265.3594,465.4331 265.3594,466.0425 L265.3594,467.4956 Q265.3594,468.105 265.125,468.3706 Q264.8906,468.6363 264.5156,468.6363 Q264.1719,468.6363 263.9688,468.4331 Q263.7656,468.2456 263.6563,467.73 Q263.6094,467.3706 263.4219,467.1831 Q263.0938,466.8081 262.4844,466.5894 Q261.875,466.3706 261.25,466.3706 Q260.4844,466.3706 259.8438,466.6988 Q259.2188,467.0269 258.7188,467.7769 Q258.2344,468.5269 258.2344,469.5581 L258.2344,470.6519 Q258.2344,471.8863 259.125,472.7144 Q260.0156,473.5269 261.6094,473.5269 Q262.5469,473.5269 263.2031,473.2769 Q263.5938,473.1206 264.0156,472.6831 Q264.2813,472.4175 264.4219,472.3394 Q264.5781,472.2613 264.7813,472.2613 Q265.1094,472.2613 265.3594,472.5269 Q265.625,472.7769 265.625,473.1206 Q265.625,473.4644 265.2813,473.8706 Q264.7813,474.4488 263.9844,474.7769 Q262.9063,475.23 261.6094,475.23 Q260.0938,475.23 258.8906,474.605 Q257.9063,474.105 257.2188,473.0425 Q256.5313,471.9644 256.5313,470.6831 L256.5313,469.5269 Q256.5313,468.1988 257.1406,467.0581 Q257.7656,465.9019 258.8594,465.2925 Q259.9531,464.6675 261.1875,464.6675 Q261.9219,464.6675 262.5625,464.8394 Q263.2188,464.9956 263.7656,465.355 Z " fill="#000000"/><text fill="#000000" font-family="sans-serif" font-size="14" lengthAdjust="spacing" textLength="40" x="275" y="475.2085">Any&lt;&gt;</text></g><!--link clk to i_pre--><g id="link_clk_i_pre"><path codeLine="455" d="M119.18,158.67 C139.78,179.64 177.95,218.52 212.16,253.35 " fill="none" id="clk-to-i_pre" style="stroke:#181818;stroke-width:1.0;"/><polygon fill="#181818" points="215.32,256.58,211.8775,247.3524,211.8204,253.0089,206.1638,252.9518,215.32,256.58" style="stroke:#181818;stroke-width:1.0;"/></g><!--link pre to i_pre--><g id="link_pre_i_pre"><path codeLine="456" d="M260.95,151 C263.06,168.44 268.37,212.17 273.13,251.35 " fill="none" id="pre-to-i_pre" style="stroke:#181818;stroke-width:1.0;"/><polygon fill="#181818" points="273.82,256.1,276.7128,246.6856,273.2209,251.136,268.7704,247.6441,273.82,256.1" style="stroke:#181818;stroke-width:1.0;"/></g><!--link Unit to i_pre--><g id="link_Unit_i_pre"><path codeLine="457" d="M341.5,197.59 C334.59,212.32 326.97,228.58 319.55,244.4 " fill="none" id="Unit-to-i_pre" style="stroke:#181818;stroke-width:1.0;"/><polygon fill="none" points="313.66,255.95,319.8312,252.2196,318.7613,245.0883,312.5901,248.8187,313.66,255.95" style="stroke:#181818;stroke-width:1.0;"/></g><!--link i_pre to any--><g id="link_i_pre_any"><path codeLine="458" d="M282,393.73 C282,409.7 282,425.93 282,439.16 " fill="none" id="i_pre-to-any" style="stroke:#181818;stroke-width:1.0;"/><polygon fill="none" points="282,452.13,286,446.13,282,440.13,278,446.13,282,452.13" style="stroke:#181818;stroke-width:1.0;"/></g><!--SRC=[RP0_QyCm4CLd-rCSxf8C7j9sD8OsM90ja7GEwlaWGd_iIl9WWhzx9TbEsb9DxvxkSJ-UuPfSpv7WNNkeAcQ3KTTmopDp_zgh3gM3foOynk9VXeex1yMR6KyZxfMiwWAu0rGopwQVsRFGP6EKiQP9KJA3XWyZV9eo6JPsgtXUnSigNeEOua5XKH4KHxAYQs4pk6sws5jwu1oC9skuIi0BahY4bVdKpNdk1KuW0_5PeBpyTXFhF_xHaaEkoFxncQMlWGoEoJ-H7_hDTkMz5xHmS3F6QgOyT0HbMSzWUOHxJAcMikoMSMQFSqnVHKknOT2aFycwsKWHJVxQjOiJTjULRm00]--></g></svg>