<?xml version="1.0" encoding="us-ascii" standalone="no"?><svg xmlns="http://www.w3.org/2000/svg" xmlns:xlink="http://www.w3.org/1999/xlink" contentStyleType="text/css" height="513px" preserveAspectRatio="none" style="width:444px;height:513px;background:#FFFFFF;" version="1.1" viewBox="0 0 444 513" width="444px" zoomAndPan="magnify"><defs/><g><!--cluster Bmt--><g id="cluster_Bmt"><rect fill="none" height="500.87" rx="2.5" ry="2.5" style="stroke:#181818;stroke-width:1.0;" width="431" x="7" y="7"/><path d="M44,7 L44,17.6094 L34,27.6094 L7,27.6094 " fill="none" style="stroke:#181818;stroke-width:1.0;"/><text fill="#000000" font-family="sans-serif" font-size="14" font-weight="bold" lengthAdjust="spacing" textLength="27" x="10" y="22.5332">Bmt</text></g><!--cluster Clocks--><g id="cluster_Clocks"><path d="M270.5,90.21 L318.5,90.21 A3.75,3.75 0 0 1 321,92.71 L328,113.8194 L411.5,113.8194 A2.5,2.5 0 0 1 414,116.3194 L414,171.71 A2.5,2.5 0 0 1 411.5,174.21 L270.5,174.21 A2.5,2.5 0 0 1 268,171.71 L268,92.71 A2.5,2.5 0 0 1 270.5,90.21 " fill="#EEEEFF" style="stroke:#000000;stroke-width:1.5;"/><line style="stroke:#000000;stroke-width:1.5;" x1="268" x2="328" y1="113.8194" y2="113.8194"/><text fill="#000000" font-family="sans-serif" font-size="14" font-weight="bold" lengthAdjust="spacing" textLength="47" x="272" y="106.7432">Clocks</text></g><!--cluster Timer--><g id="cluster_Timer"><path d="M33.5,51 L72.5,51 A3.75,3.75 0 0 1 75,53.5 L82,74.6094 L241.5,74.6094 A2.5,2.5 0 0 1 244,77.1094 L244,481.37 A2.5,2.5 0 0 1 241.5,483.87 L33.5,483.87 A2.5,2.5 0 0 1 31,481.37 L31,53.5 A2.5,2.5 0 0 1 33.5,51 " fill="#EEFFEE" style="stroke:#000000;stroke-width:1.5;"/><line style="stroke:#000000;stroke-width:1.5;" x1="31" x2="82" y1="74.6094" y2="74.6094"/><text fill="#000000" font-family="sans-serif" font-size="14" font-weight="bold" lengthAdjust="spacing" textLength="38" x="35" y="67.5332">Timer</text></g><!--class clk--><g id="elem_clk"><rect codeLine="517" fill="#F1F1F1" height="32" id="clk" rx="2.5" ry="2.5" style="stroke:#181818;stroke-width:0.5;" width="115" x="283.5" y="126.21"/><ellipse cx="298.5" cy="142.21" fill="#ADD1B2" rx="11" ry="11" style="stroke:#181818;stroke-width:1.0;"/><path d="M301.2656,138.085 Q301.4219,137.8662 301.6094,137.7569 Q301.7969,137.6475 302.0156,137.6475 Q302.3906,137.6475 302.625,137.9131 Q302.8594,138.1631 302.8594,138.7725 L302.8594,140.2256 Q302.8594,140.835 302.625,141.1006 Q302.3906,141.3662 302.0156,141.3662 Q301.6719,141.3662 301.4688,141.1631 Q301.2656,140.9756 301.1563,140.46 Q301.1094,140.1006 300.9219,139.9131 Q300.5938,139.5381 299.9844,139.3194 Q299.375,139.1006 298.75,139.1006 Q297.9844,139.1006 297.3438,139.4287 Q296.7188,139.7569 296.2188,140.5069 Q295.7344,141.2569 295.7344,142.2881 L295.7344,143.3819 Q295.7344,144.6162 296.625,145.4444 Q297.5156,146.2569 299.1094,146.2569 Q300.0469,146.2569 300.7031,146.0069 Q301.0938,145.8506 301.5156,145.4131 Q301.7813,145.1475 301.9219,145.0694 Q302.0781,144.9912 302.2813,144.9912 Q302.6094,144.9912 302.8594,145.2569 Q303.125,145.5069 303.125,145.8506 Q303.125,146.1944 302.7813,146.6006 Q302.2813,147.1787 301.4844,147.5069 Q300.4063,147.96 299.1094,147.96 Q297.5938,147.96 296.3906,147.335 Q295.4063,146.835 294.7188,145.7725 Q294.0313,144.6944 294.0313,143.4131 L294.0313,142.2569 Q294.0313,140.9287 294.6406,139.7881 Q295.2656,138.6319 296.3594,138.0225 Q297.4531,137.3975 298.6875,137.3975 Q299.4219,137.3975 300.0625,137.5694 Q300.7188,137.7256 301.2656,138.085 Z " fill="#000000"/><text fill="#000000" font-family="sans-serif" font-size="14" lengthAdjust="spacing" textLength="83" x="312.5" y="147.9385">AnySycClk&lt;&gt;</text></g><!--class Unit--><g id="elem_Unit"><rect codeLine="520" fill="#F1F1F1" height="110.4375" id="Unit" rx="2.5" ry="2.5" style="stroke:#181818;stroke-width:0.5;" width="57" x="170.5" y="87"/><ellipse cx="185.5" cy="103" fill="#EB937F" rx="11" ry="11" style="stroke:#181818;stroke-width:1.0;"/><path d="M184.3594,103.7969 L184.3594,106.2969 L188.6875,106.2969 L188.6875,105.375 Q188.6875,104.7656 188.9219,104.5 Q189.1719,104.2344 189.5469,104.2344 Q189.9219,104.2344 190.1563,104.5 Q190.3906,104.7656 190.3906,105.375 L190.3906,108 L182.3906,108 Q181.7656,108 181.5,107.7656 Q181.25,107.5313 181.25,107.1406 Q181.25,106.7656 181.5156,106.5313 Q181.7813,106.2969 182.3906,106.2969 L182.6563,106.2969 L182.6563,99.6406 L182.3906,99.6406 Q181.7656,99.6406 181.5,99.4063 Q181.25,99.1719 181.25,98.7813 Q181.25,98.4063 181.5,98.1719 Q181.7656,97.9375 182.3906,97.9375 L190.0156,97.9375 L190.0156,100.5313 Q190.0156,101.1406 189.7813,101.4063 Q189.5625,101.6563 189.1719,101.6563 Q188.7969,101.6563 188.5625,101.4063 Q188.3281,101.1406 188.3281,100.5313 L188.3281,99.6406 L184.3594,99.6406 L184.3594,102.0938 L185.8438,102.0938 Q185.8438,101.4375 185.9688,101.25 Q186.2344,100.8438 186.7031,100.8438 Q187.0781,100.8438 187.3125,101.1094 Q187.5469,101.3594 187.5469,101.9688 L187.5469,103.9375 Q187.5469,104.4844 187.4219,104.6719 Q187.1563,105.0625 186.7031,105.0625 Q186.2344,105.0625 185.9688,104.6563 Q185.8438,104.4688 185.8438,103.7969 L184.3594,103.7969 Z " fill="#000000"/><text fill="#000000" font-family="sans-serif" font-size="14" lengthAdjust="spacing" textLength="25" x="199.5" y="108.7285">Unit</text><line style="stroke:#181818;stroke-width:0.5;" x1="171.5" x2="226.5" y1="119" y2="119"/><text fill="#000000" font-family="sans-serif" font-size="14" lengthAdjust="spacing" textLength="39" x="176.5" y="137.5332">kTim1</text><text fill="#000000" font-family="sans-serif" font-size="14" lengthAdjust="spacing" textLength="39" x="176.5" y="155.1426">kTim2</text><text fill="#000000" font-family="sans-serif" font-size="14" lengthAdjust="spacing" textLength="39" x="176.5" y="172.752">kTim3</text><text fill="#000000" font-family="sans-serif" font-size="14" lengthAdjust="spacing" textLength="39" x="176.5" y="190.3613">kTim4</text></g><!--entity pre--><g id="elem_pre"><ellipse cx="91" cy="142.21" fill="#F1F1F1" rx="8" ry="8" style="stroke:#181818;stroke-width:0.5;"/><text fill="#000000" font-family="sans-serif" font-size="14" lengthAdjust="spacing" textLength="72" x="55" y="173.7432">Period (Hz)</text></g><!--class i_pre--><g id="elem_i_pre"><rect codeLine="527" fill="#F1F1F1" height="118.4375" id="i_pre" rx="2.5" ry="2.5" style="stroke:#181818;stroke-width:0.5;" width="131" x="97.5" y="257.43"/><ellipse cx="112.5" cy="273.43" fill="#ADD1B2" rx="11" ry="11" style="stroke:#181818;stroke-width:1.0;"/><path d="M115.2656,269.305 Q115.4219,269.0863 115.6094,268.9769 Q115.7969,268.8675 116.0156,268.8675 Q116.3906,268.8675 116.625,269.1331 Q116.8594,269.3831 116.8594,269.9925 L116.8594,271.4456 Q116.8594,272.055 116.625,272.3206 Q116.3906,272.5863 116.0156,272.5863 Q115.6719,272.5863 115.4688,272.3831 Q115.2656,272.1956 115.1563,271.68 Q115.1094,271.3206 114.9219,271.1331 Q114.5938,270.7581 113.9844,270.5394 Q113.375,270.3206 112.75,270.3206 Q111.9844,270.3206 111.3438,270.6488 Q110.7188,270.9769 110.2188,271.7269 Q109.7344,272.4769 109.7344,273.5081 L109.7344,274.6019 Q109.7344,275.8363 110.625,276.6644 Q111.5156,277.4769 113.1094,277.4769 Q114.0469,277.4769 114.7031,277.2269 Q115.0938,277.0706 115.5156,276.6331 Q115.7813,276.3675 115.9219,276.2894 Q116.0781,276.2113 116.2813,276.2113 Q116.6094,276.2113 116.8594,276.4769 Q117.125,276.7269 117.125,277.0706 Q117.125,277.4144 116.7813,277.8206 Q116.2813,278.3988 115.4844,278.7269 Q114.4063,279.18 113.1094,279.18 Q111.5938,279.18 110.3906,278.555 Q109.4063,278.055 108.7188,276.9925 Q108.0313,275.9144 108.0313,274.6331 L108.0313,273.4769 Q108.0313,272.1488 108.6406,271.0081 Q109.2656,269.8519 110.3594,269.2425 Q111.4531,268.6175 112.6875,268.6175 Q113.4219,268.6175 114.0625,268.7894 Q114.7188,268.9456 115.2656,269.305 Z " fill="#000000"/><text fill="#000000" font-family="sans-serif" font-size="14" lengthAdjust="spacing" textLength="99" x="126.5" y="279.1585">InternalClock&lt;&gt;</text><line style="stroke:#181818;stroke-width:0.5;" x1="98.5" x2="227.5" y1="289.43" y2="289.43"/><text fill="#000000" font-family="sans-serif" font-size="14" lengthAdjust="spacing" text-decoration="underline" textLength="83" x="103.5" y="307.9632">kFrequency_</text><text fill="#000000" font-family="sans-serif" font-size="14" lengthAdjust="spacing" text-decoration="underline" textLength="61" x="103.5" y="325.5726">kClkTick_</text><text fill="#000000" font-family="sans-serif" font-size="14" lengthAdjust="spacing" text-decoration="underline" textLength="75" x="103.5" y="343.182">kPrescaler_</text><line style="stroke:#181818;stroke-width:0.5;" x1="98.5" x2="227.5" y1="350.2581" y2="350.2581"/><text fill="#000000" font-family="sans-serif" font-size="14" lengthAdjust="spacing" textLength="47" x="103.5" y="368.7913">Setup()</text></g><!--class any--><g id="elem_any"><rect codeLine="533" fill="#F1F1F1" height="32" id="any" rx="2.5" ry="2.5" style="stroke:#181818;stroke-width:0.5;" width="72" x="127" y="435.87"/><ellipse cx="142" cy="451.87" fill="#ADD1B2" rx="11" ry="11" style="stroke:#181818;stroke-width:1.0;"/><path d="M144.7656,447.745 Q144.9219,447.5263 145.1094,447.4169 Q145.2969,447.3075 145.5156,447.3075 Q145.8906,447.3075 146.125,447.5731 Q146.3594,447.8231 146.3594,448.4325 L146.3594,449.8856 Q146.3594,450.495 146.125,450.7606 Q145.8906,451.0263 145.5156,451.0263 Q145.1719,451.0263 144.9688,450.8231 Q144.7656,450.6356 144.6563,450.12 Q144.6094,449.7606 144.4219,449.5731 Q144.0938,449.1981 143.4844,448.9794 Q142.875,448.7606 142.25,448.7606 Q141.4844,448.7606 140.8438,449.0888 Q140.2188,449.4169 139.7188,450.1669 Q139.2344,450.9169 139.2344,451.9481 L139.2344,453.0419 Q139.2344,454.2763 140.125,455.1044 Q141.0156,455.9169 142.6094,455.9169 Q143.5469,455.9169 144.2031,455.6669 Q144.5938,455.5106 145.0156,455.0731 Q145.2813,454.8075 145.4219,454.7294 Q145.5781,454.6513 145.7813,454.6513 Q146.1094,454.6513 146.3594,454.9169 Q146.625,455.1669 146.625,455.5106 Q146.625,455.8544 146.2813,456.2606 Q145.7813,456.8388 144.9844,457.1669 Q143.9063,457.62 142.6094,457.62 Q141.0938,457.62 139.8906,456.995 Q138.9063,456.495 138.2188,455.4325 Q137.5313,454.3544 137.5313,453.0731 L137.5313,451.9169 Q137.5313,450.5888 138.1406,449.4481 Q138.7656,448.2919 139.8594,447.6825 Q140.9531,447.0575 142.1875,447.0575 Q142.9219,447.0575 143.5625,447.2294 Q144.2188,447.3856 144.7656,447.745 Z " fill="#000000"/><text fill="#000000" font-family="sans-serif" font-size="14" lengthAdjust="spacing" textLength="40" x="156" y="457.5985">Any&lt;&gt;</text></g><!--link clk to i_pre--><g id="link_clk_i_pre"><path codeLine="536" d="M325.2,158.52 C303.37,179.66 262.69,219.08 227.53,253.14 " fill="none" id="clk-to-i_pre" style="stroke:#181818;stroke-width:1.0;"/><polygon fill="#181818" points="224.27,256.26,233.5184,252.8738,227.8623,252.7822,227.9539,247.1261,224.27,256.26" style="stroke:#181818;stroke-width:1.0;"/></g><!--link pre to i_pre--><g id="link_pre_i_pre"><path codeLine="537" d="M94.28,151.07 C101.71,168.85 120.4,213.62 136.41,251.98 " fill="none" id="pre-to-i_pre" style="stroke:#181818;stroke-width:1.0;"/><polygon fill="#181818" points="138.55,256.1,138.77,246.2536,136.6219,251.4867,131.3887,249.3386,138.55,256.1" style="stroke:#181818;stroke-width:1.0;"/></g><!--link Unit to i_pre--><g id="link_Unit_i_pre"><path codeLine="538" d="M187.61,197.77 C184.57,212.35 181.23,228.33 178.02,243.69 " fill="none" id="Unit-to-i_pre" style="stroke:#181818;stroke-width:1.0;"/><polygon fill="none" points="175.25,255.97,180.3917,250.914,177.7022,244.2232,172.5605,249.2792,175.25,255.97" style="stroke:#181818;stroke-width:1.0;"/></g><!--link i_pre to any--><g id="link_i_pre_any"><path codeLine="539" d="M163,376.08 C163,391.93 163,408.41 163,421.85 " fill="none" id="i_pre-to-any" style="stroke:#181818;stroke-width:1.0;"/><polygon fill="none" points="163,434.54,167,428.54,163,422.54,159,428.54,163,434.54" style="stroke:#181818;stroke-width:1.0;"/></g><!--SRC=[NL3BReCm43p3Lwpe9JbmwEE8a9e8gxr5IdgEt6MbM7v0RNEW4VzUsq3IrgVPyOvcTWpNv7gE13ljeQgO3KHTmpNFpErhhpgK3XwQy1YBVnagxXmKhsOyZhXNigeBu0vGoJoRVcjFGfEDKiQQ9ad931e-ZF1focJOU5p1qmgUL_0Im1GDXKL5K1p8Ygw5pTltDZdsbkvnteqdQxXAWPT8uXnMPgkhyzmBd40oIry36HpFV_bmoKcW_CSUB3daYcpYZ-I7VhDTSzsAMFou6MC5KnwwWBAivm1v376VqlbbsItZd37EKNqHBSKcGPF-9Ejc8aaq-KlNBapONLT-0000]--></g></svg>