<?xml version="1.0" encoding="us-ascii" standalone="no"?><svg xmlns="http://www.w3.org/2000/svg" xmlns:xlink="http://www.w3.org/1999/xlink" contentStyleType="text/css" height="521px" preserveAspectRatio="none" style="width:978px;height:521px;background:#FFFFFF;" version="1.1" viewBox="0 0 978 521" width="978px" zoomAndPan="magnify"><defs/><g><!--cluster Bmt--><g id="cluster_Bmt"><rect fill="none" height="508" rx="2.5" ry="2.5" style="stroke:#181818;stroke-width:1.0;" width="965" x="7" y="7"/><path d="M44,7 L44,17.6094 L34,27.6094 L7,27.6094 " fill="none" style="stroke:#181818;stroke-width:1.0;"/><text fill="#000000" font-family="sans-serif" font-size="14" font-weight="bold" lengthAdjust="spacing" textLength="27" x="10" y="22.5332">Bmt</text></g><!--cluster Clocks--><g id="cluster_Clocks"><path d="M619.5,51 L667.5,51 A3.75,3.75 0 0 1 670,53.5 L677,74.6094 L760.5,74.6094 A2.5,2.5 0 0 1 763,77.1094 L763,148.5 A2.5,2.5 0 0 1 760.5,151 L619.5,151 A2.5,2.5 0 0 1 617,148.5 L617,53.5 A2.5,2.5 0 0 1 619.5,51 " fill="#EEEEFF" style="stroke:#000000;stroke-width:1.5;"/><line style="stroke:#000000;stroke-width:1.5;" x1="617" x2="677" y1="74.6094" y2="74.6094"/><text fill="#000000" font-family="sans-serif" font-size="14" font-weight="bold" lengthAdjust="spacing" textLength="47" x="621" y="67.5332">Clocks</text></g><!--cluster Timer--><g id="cluster_Timer"><path d="M33.5,175 L72.5,175 A3.75,3.75 0 0 1 75,177.5 L82,198.6094 L945.5,198.6094 A2.5,2.5 0 0 1 948,201.1094 L948,488.5 A2.5,2.5 0 0 1 945.5,491 L33.5,491 A2.5,2.5 0 0 1 31,488.5 L31,177.5 A2.5,2.5 0 0 1 33.5,175 " fill="#EEFFEE" style="stroke:#000000;stroke-width:1.5;"/><line style="stroke:#000000;stroke-width:1.5;" x1="31" x2="82" y1="198.6094" y2="198.6094"/><text fill="#000000" font-family="sans-serif" font-size="14" font-weight="bold" lengthAdjust="spacing" textLength="38" x="35" y="191.5332">Timer</text></g><!--class clk--><g id="elem_clk"><rect codeLine="23" fill="#F1F1F1" height="48" id="clk" rx="2.5" ry="2.5" style="stroke:#181818;stroke-width:0.5;" width="115" x="632.5" y="87"/><ellipse cx="647.5" cy="103" fill="#ADD1B2" rx="11" ry="11" style="stroke:#181818;stroke-width:1.0;"/><path d="M650.2656,98.875 Q650.4219,98.6563 650.6094,98.5469 Q650.7969,98.4375 651.0156,98.4375 Q651.3906,98.4375 651.625,98.7031 Q651.8594,98.9531 651.8594,99.5625 L651.8594,101.0156 Q651.8594,101.625 651.625,101.8906 Q651.3906,102.1563 651.0156,102.1563 Q650.6719,102.1563 650.4688,101.9531 Q650.2656,101.7656 650.1563,101.25 Q650.1094,100.8906 649.9219,100.7031 Q649.5938,100.3281 648.9844,100.1094 Q648.375,99.8906 647.75,99.8906 Q646.9844,99.8906 646.3438,100.2188 Q645.7188,100.5469 645.2188,101.2969 Q644.7344,102.0469 644.7344,103.0781 L644.7344,104.1719 Q644.7344,105.4063 645.625,106.2344 Q646.5156,107.0469 648.1094,107.0469 Q649.0469,107.0469 649.7031,106.7969 Q650.0938,106.6406 650.5156,106.2031 Q650.7813,105.9375 650.9219,105.8594 Q651.0781,105.7813 651.2813,105.7813 Q651.6094,105.7813 651.8594,106.0469 Q652.125,106.2969 652.125,106.6406 Q652.125,106.9844 651.7813,107.3906 Q651.2813,107.9688 650.4844,108.2969 Q649.4063,108.75 648.1094,108.75 Q646.5938,108.75 645.3906,108.125 Q644.4063,107.625 643.7188,106.5625 Q643.0313,105.4844 643.0313,104.2031 L643.0313,103.0469 Q643.0313,101.7188 643.6406,100.5781 Q644.2656,99.4219 645.3594,98.8125 Q646.4531,98.1875 647.6875,98.1875 Q648.4219,98.1875 649.0625,98.3594 Q649.7188,98.5156 650.2656,98.875 Z " fill="#000000"/><text fill="#000000" font-family="sans-serif" font-size="14" lengthAdjust="spacing" textLength="83" x="661.5" y="108.7285">AnySycClk&lt;&gt;</text><line style="stroke:#181818;stroke-width:0.5;" x1="633.5" x2="746.5" y1="119" y2="119"/><line style="stroke:#181818;stroke-width:0.5;" x1="633.5" x2="746.5" y1="127" y2="127"/></g><!--class i_pre--><g id="elem_i_pre"><rect codeLine="26" fill="#F1F1F1" height="48" id="i_pre" rx="2.5" ry="2.5" style="stroke:#181818;stroke-width:0.5;" width="131" x="801.5" y="211"/><ellipse cx="816.5" cy="227" fill="#ADD1B2" rx="11" ry="11" style="stroke:#181818;stroke-width:1.0;"/><path d="M819.2656,222.875 Q819.4219,222.6563 819.6094,222.5469 Q819.7969,222.4375 820.0156,222.4375 Q820.3906,222.4375 820.625,222.7031 Q820.8594,222.9531 820.8594,223.5625 L820.8594,225.0156 Q820.8594,225.625 820.625,225.8906 Q820.3906,226.1563 820.0156,226.1563 Q819.6719,226.1563 819.4688,225.9531 Q819.2656,225.7656 819.1563,225.25 Q819.1094,224.8906 818.9219,224.7031 Q818.5938,224.3281 817.9844,224.1094 Q817.375,223.8906 816.75,223.8906 Q815.9844,223.8906 815.3438,224.2188 Q814.7188,224.5469 814.2188,225.2969 Q813.7344,226.0469 813.7344,227.0781 L813.7344,228.1719 Q813.7344,229.4063 814.625,230.2344 Q815.5156,231.0469 817.1094,231.0469 Q818.0469,231.0469 818.7031,230.7969 Q819.0938,230.6406 819.5156,230.2031 Q819.7813,229.9375 819.9219,229.8594 Q820.0781,229.7813 820.2813,229.7813 Q820.6094,229.7813 820.8594,230.0469 Q821.125,230.2969 821.125,230.6406 Q821.125,230.9844 820.7813,231.3906 Q820.2813,231.9688 819.4844,232.2969 Q818.4063,232.75 817.1094,232.75 Q815.5938,232.75 814.3906,232.125 Q813.4063,231.625 812.7188,230.5625 Q812.0313,229.4844 812.0313,228.2031 L812.0313,227.0469 Q812.0313,225.7188 812.6406,224.5781 Q813.2656,223.4219 814.3594,222.8125 Q815.4531,222.1875 816.6875,222.1875 Q817.4219,222.1875 818.0625,222.3594 Q818.7188,222.5156 819.2656,222.875 Z " fill="#000000"/><text fill="#000000" font-family="sans-serif" font-size="14" lengthAdjust="spacing" textLength="99" x="830.5" y="232.7285">InternalClock&lt;&gt;</text><line style="stroke:#181818;stroke-width:0.5;" x1="802.5" x2="931.5" y1="243" y2="243"/><line style="stroke:#181818;stroke-width:0.5;" x1="802.5" x2="931.5" y1="251" y2="251"/></g><!--class i_us--><g id="elem_i_us"><rect codeLine="27" fill="#F1F1F1" height="48" id="i_us" rx="2.5" ry="2.5" style="stroke:#181818;stroke-width:0.5;" width="154" x="613" y="211"/><ellipse cx="628" cy="227" fill="#ADD1B2" rx="11" ry="11" style="stroke:#181818;stroke-width:1.0;"/><path d="M630.7656,222.875 Q630.9219,222.6563 631.1094,222.5469 Q631.2969,222.4375 631.5156,222.4375 Q631.8906,222.4375 632.125,222.7031 Q632.3594,222.9531 632.3594,223.5625 L632.3594,225.0156 Q632.3594,225.625 632.125,225.8906 Q631.8906,226.1563 631.5156,226.1563 Q631.1719,226.1563 630.9688,225.9531 Q630.7656,225.7656 630.6563,225.25 Q630.6094,224.8906 630.4219,224.7031 Q630.0938,224.3281 629.4844,224.1094 Q628.875,223.8906 628.25,223.8906 Q627.4844,223.8906 626.8438,224.2188 Q626.2188,224.5469 625.7188,225.2969 Q625.2344,226.0469 625.2344,227.0781 L625.2344,228.1719 Q625.2344,229.4063 626.125,230.2344 Q627.0156,231.0469 628.6094,231.0469 Q629.5469,231.0469 630.2031,230.7969 Q630.5938,230.6406 631.0156,230.2031 Q631.2813,229.9375 631.4219,229.8594 Q631.5781,229.7813 631.7813,229.7813 Q632.1094,229.7813 632.3594,230.0469 Q632.625,230.2969 632.625,230.6406 Q632.625,230.9844 632.2813,231.3906 Q631.7813,231.9688 630.9844,232.2969 Q629.9063,232.75 628.6094,232.75 Q627.0938,232.75 625.8906,232.125 Q624.9063,231.625 624.2188,230.5625 Q623.5313,229.4844 623.5313,228.2031 L623.5313,227.0469 Q623.5313,225.7188 624.1406,224.5781 Q624.7656,223.4219 625.8594,222.8125 Q626.9531,222.1875 628.1875,222.1875 Q628.9219,222.1875 629.5625,222.3594 Q630.2188,222.5156 630.7656,222.875 Z " fill="#000000"/><text fill="#000000" font-family="sans-serif" font-size="14" lengthAdjust="spacing" textLength="122" x="642" y="232.7285">InternalClock_us&lt;&gt;</text><line style="stroke:#181818;stroke-width:0.5;" x1="614" x2="766" y1="243" y2="243"/><line style="stroke:#181818;stroke-width:0.5;" x1="614" x2="766" y1="251" y2="251"/></g><!--class i_hz--><g id="elem_i_hz"><rect codeLine="28" fill="#F1F1F1" height="48" id="i_hz" rx="2.5" ry="2.5" style="stroke:#181818;stroke-width:0.5;" width="154" x="424" y="211"/><ellipse cx="439" cy="227" fill="#ADD1B2" rx="11" ry="11" style="stroke:#181818;stroke-width:1.0;"/><path d="M441.7656,222.875 Q441.9219,222.6563 442.1094,222.5469 Q442.2969,222.4375 442.5156,222.4375 Q442.8906,222.4375 443.125,222.7031 Q443.3594,222.9531 443.3594,223.5625 L443.3594,225.0156 Q443.3594,225.625 443.125,225.8906 Q442.8906,226.1563 442.5156,226.1563 Q442.1719,226.1563 441.9688,225.9531 Q441.7656,225.7656 441.6563,225.25 Q441.6094,224.8906 441.4219,224.7031 Q441.0938,224.3281 440.4844,224.1094 Q439.875,223.8906 439.25,223.8906 Q438.4844,223.8906 437.8438,224.2188 Q437.2188,224.5469 436.7188,225.2969 Q436.2344,226.0469 436.2344,227.0781 L436.2344,228.1719 Q436.2344,229.4063 437.125,230.2344 Q438.0156,231.0469 439.6094,231.0469 Q440.5469,231.0469 441.2031,230.7969 Q441.5938,230.6406 442.0156,230.2031 Q442.2813,229.9375 442.4219,229.8594 Q442.5781,229.7813 442.7813,229.7813 Q443.1094,229.7813 443.3594,230.0469 Q443.625,230.2969 443.625,230.6406 Q443.625,230.9844 443.2813,231.3906 Q442.7813,231.9688 441.9844,232.2969 Q440.9063,232.75 439.6094,232.75 Q438.0938,232.75 436.8906,232.125 Q435.9063,231.625 435.2188,230.5625 Q434.5313,229.4844 434.5313,228.2031 L434.5313,227.0469 Q434.5313,225.7188 435.1406,224.5781 Q435.7656,223.4219 436.8594,222.8125 Q437.9531,222.1875 439.1875,222.1875 Q439.9219,222.1875 440.5625,222.3594 Q441.2188,222.5156 441.7656,222.875 Z " fill="#000000"/><text fill="#000000" font-family="sans-serif" font-size="14" lengthAdjust="spacing" textLength="122" x="453" y="232.7285">InternalClock_hz&lt;&gt;</text><line style="stroke:#181818;stroke-width:0.5;" x1="425" x2="577" y1="243" y2="243"/><line style="stroke:#181818;stroke-width:0.5;" x1="425" x2="577" y1="251" y2="251"/></g><!--class ext--><g id="elem_ext"><rect codeLine="29" fill="#F1F1F1" height="48" id="ext" rx="2.5" ry="2.5" style="stroke:#181818;stroke-width:0.5;" width="135" x="253.5" y="211"/><ellipse cx="268.5" cy="227" fill="#ADD1B2" rx="11" ry="11" style="stroke:#181818;stroke-width:1.0;"/><path d="M271.2656,222.875 Q271.4219,222.6563 271.6094,222.5469 Q271.7969,222.4375 272.0156,222.4375 Q272.3906,222.4375 272.625,222.7031 Q272.8594,222.9531 272.8594,223.5625 L272.8594,225.0156 Q272.8594,225.625 272.625,225.8906 Q272.3906,226.1563 272.0156,226.1563 Q271.6719,226.1563 271.4688,225.9531 Q271.2656,225.7656 271.1563,225.25 Q271.1094,224.8906 270.9219,224.7031 Q270.5938,224.3281 269.9844,224.1094 Q269.375,223.8906 268.75,223.8906 Q267.9844,223.8906 267.3438,224.2188 Q266.7188,224.5469 266.2188,225.2969 Q265.7344,226.0469 265.7344,227.0781 L265.7344,228.1719 Q265.7344,229.4063 266.625,230.2344 Q267.5156,231.0469 269.1094,231.0469 Q270.0469,231.0469 270.7031,230.7969 Q271.0938,230.6406 271.5156,230.2031 Q271.7813,229.9375 271.9219,229.8594 Q272.0781,229.7813 272.2813,229.7813 Q272.6094,229.7813 272.8594,230.0469 Q273.125,230.2969 273.125,230.6406 Q273.125,230.9844 272.7813,231.3906 Q272.2813,231.9688 271.4844,232.2969 Q270.4063,232.75 269.1094,232.75 Q267.5938,232.75 266.3906,232.125 Q265.4063,231.625 264.7188,230.5625 Q264.0313,229.4844 264.0313,228.2031 L264.0313,227.0469 Q264.0313,225.7188 264.6406,224.5781 Q265.2656,223.4219 266.3594,222.8125 Q267.4531,222.1875 268.6875,222.1875 Q269.4219,222.1875 270.0625,222.3594 Q270.7188,222.5156 271.2656,222.875 Z " fill="#000000"/><text fill="#000000" font-family="sans-serif" font-size="14" lengthAdjust="spacing" textLength="103" x="282.5" y="232.7285">ExternalClock&lt;&gt;</text><line style="stroke:#181818;stroke-width:0.5;" x1="254.5" x2="387.5" y1="243" y2="243"/><line style="stroke:#181818;stroke-width:0.5;" x1="254.5" x2="387.5" y1="251" y2="251"/></g><!--class ms--><g id="elem_ms"><rect codeLine="30" fill="#F1F1F1" height="48" id="ms" rx="2.5" ry="2.5" style="stroke:#181818;stroke-width:0.5;" width="171" x="47.5" y="211"/><ellipse cx="62.5" cy="227" fill="#ADD1B2" rx="11" ry="11" style="stroke:#181818;stroke-width:1.0;"/><path d="M65.2656,222.875 Q65.4219,222.6563 65.6094,222.5469 Q65.7969,222.4375 66.0156,222.4375 Q66.3906,222.4375 66.625,222.7031 Q66.8594,222.9531 66.8594,223.5625 L66.8594,225.0156 Q66.8594,225.625 66.625,225.8906 Q66.3906,226.1563 66.0156,226.1563 Q65.6719,226.1563 65.4688,225.9531 Q65.2656,225.7656 65.1563,225.25 Q65.1094,224.8906 64.9219,224.7031 Q64.5938,224.3281 63.9844,224.1094 Q63.375,223.8906 62.75,223.8906 Q61.9844,223.8906 61.3438,224.2188 Q60.7188,224.5469 60.2188,225.2969 Q59.7344,226.0469 59.7344,227.0781 L59.7344,228.1719 Q59.7344,229.4063 60.625,230.2344 Q61.5156,231.0469 63.1094,231.0469 Q64.0469,231.0469 64.7031,230.7969 Q65.0938,230.6406 65.5156,230.2031 Q65.7813,229.9375 65.9219,229.8594 Q66.0781,229.7813 66.2813,229.7813 Q66.6094,229.7813 66.8594,230.0469 Q67.125,230.2969 67.125,230.6406 Q67.125,230.9844 66.7813,231.3906 Q66.2813,231.9688 65.4844,232.2969 Q64.4063,232.75 63.1094,232.75 Q61.5938,232.75 60.3906,232.125 Q59.4063,231.625 58.7188,230.5625 Q58.0313,229.4844 58.0313,228.2031 L58.0313,227.0469 Q58.0313,225.7188 58.6406,224.5781 Q59.2656,223.4219 60.3594,222.8125 Q61.4531,222.1875 62.6875,222.1875 Q63.4219,222.1875 64.0625,222.3594 Q64.7188,222.5156 65.2656,222.875 Z " fill="#000000"/><text fill="#000000" font-family="sans-serif" font-size="14" lengthAdjust="spacing" textLength="139" x="76.5" y="232.7285">MasterSlaveTimers&lt;&gt;</text><line style="stroke:#181818;stroke-width:0.5;" x1="48.5" x2="217.5" y1="243" y2="243"/><line style="stroke:#181818;stroke-width:0.5;" x1="48.5" x2="217.5" y1="251" y2="251"/></g><!--class any--><g id="elem_any"><rect codeLine="31" fill="#F1F1F1" height="48" id="any" rx="2.5" ry="2.5" style="stroke:#181818;stroke-width:0.5;" width="72" x="465" y="319"/><ellipse cx="480" cy="335" fill="#ADD1B2" rx="11" ry="11" style="stroke:#181818;stroke-width:1.0;"/><path d="M482.7656,330.875 Q482.9219,330.6563 483.1094,330.5469 Q483.2969,330.4375 483.5156,330.4375 Q483.8906,330.4375 484.125,330.7031 Q484.3594,330.9531 484.3594,331.5625 L484.3594,333.0156 Q484.3594,333.625 484.125,333.8906 Q483.8906,334.1563 483.5156,334.1563 Q483.1719,334.1563 482.9688,333.9531 Q482.7656,333.7656 482.6563,333.25 Q482.6094,332.8906 482.4219,332.7031 Q482.0938,332.3281 481.4844,332.1094 Q480.875,331.8906 480.25,331.8906 Q479.4844,331.8906 478.8438,332.2188 Q478.2188,332.5469 477.7188,333.2969 Q477.2344,334.0469 477.2344,335.0781 L477.2344,336.1719 Q477.2344,337.4063 478.125,338.2344 Q479.0156,339.0469 480.6094,339.0469 Q481.5469,339.0469 482.2031,338.7969 Q482.5938,338.6406 483.0156,338.2031 Q483.2813,337.9375 483.4219,337.8594 Q483.5781,337.7813 483.7813,337.7813 Q484.1094,337.7813 484.3594,338.0469 Q484.625,338.2969 484.625,338.6406 Q484.625,338.9844 484.2813,339.3906 Q483.7813,339.9688 482.9844,340.2969 Q481.9063,340.75 480.6094,340.75 Q479.0938,340.75 477.8906,340.125 Q476.9063,339.625 476.2188,338.5625 Q475.5313,337.4844 475.5313,336.2031 L475.5313,335.0469 Q475.5313,333.7188 476.1406,332.5781 Q476.7656,331.4219 477.8594,330.8125 Q478.9531,330.1875 480.1875,330.1875 Q480.9219,330.1875 481.5625,330.3594 Q482.2188,330.5156 482.7656,330.875 Z " fill="#000000"/><text fill="#000000" font-family="sans-serif" font-size="14" lengthAdjust="spacing" textLength="40" x="494" y="340.7285">Any&lt;&gt;</text><line style="stroke:#181818;stroke-width:0.5;" x1="466" x2="536" y1="351" y2="351"/><line style="stroke:#181818;stroke-width:0.5;" x1="466" x2="536" y1="359" y2="359"/></g><!--class ch_in--><g id="elem_ch_in"><rect codeLine="32" fill="#F1F1F1" height="48" id="ch_in" rx="2.5" ry="2.5" style="stroke:#181818;stroke-width:0.5;" width="141" x="340.5" y="427"/><ellipse cx="355.5" cy="443" fill="#ADD1B2" rx="11" ry="11" style="stroke:#181818;stroke-width:1.0;"/><path d="M358.2656,438.875 Q358.4219,438.6563 358.6094,438.5469 Q358.7969,438.4375 359.0156,438.4375 Q359.3906,438.4375 359.625,438.7031 Q359.8594,438.9531 359.8594,439.5625 L359.8594,441.0156 Q359.8594,441.625 359.625,441.8906 Q359.3906,442.1563 359.0156,442.1563 Q358.6719,442.1563 358.4688,441.9531 Q358.2656,441.7656 358.1563,441.25 Q358.1094,440.8906 357.9219,440.7031 Q357.5938,440.3281 356.9844,440.1094 Q356.375,439.8906 355.75,439.8906 Q354.9844,439.8906 354.3438,440.2188 Q353.7188,440.5469 353.2188,441.2969 Q352.7344,442.0469 352.7344,443.0781 L352.7344,444.1719 Q352.7344,445.4063 353.625,446.2344 Q354.5156,447.0469 356.1094,447.0469 Q357.0469,447.0469 357.7031,446.7969 Q358.0938,446.6406 358.5156,446.2031 Q358.7813,445.9375 358.9219,445.8594 Q359.0781,445.7813 359.2813,445.7813 Q359.6094,445.7813 359.8594,446.0469 Q360.125,446.2969 360.125,446.6406 Q360.125,446.9844 359.7813,447.3906 Q359.2813,447.9688 358.4844,448.2969 Q357.4063,448.75 356.1094,448.75 Q354.5938,448.75 353.3906,448.125 Q352.4063,447.625 351.7188,446.5625 Q351.0313,445.4844 351.0313,444.2031 L351.0313,443.0469 Q351.0313,441.7188 351.6406,440.5781 Q352.2656,439.4219 353.3594,438.8125 Q354.4531,438.1875 355.6875,438.1875 Q356.4219,438.1875 357.0625,438.3594 Q357.7188,438.5156 358.2656,438.875 Z " fill="#000000"/><text fill="#000000" font-family="sans-serif" font-size="14" lengthAdjust="spacing" textLength="109" x="369.5" y="448.7285">AnyInputChannel</text><line style="stroke:#181818;stroke-width:0.5;" x1="341.5" x2="480.5" y1="459" y2="459"/><line style="stroke:#181818;stroke-width:0.5;" x1="341.5" x2="480.5" y1="467" y2="467"/></g><!--class ch_out--><g id="elem_ch_out"><rect codeLine="33" fill="#F1F1F1" height="48" id="ch_out" rx="2.5" ry="2.5" style="stroke:#181818;stroke-width:0.5;" width="152" x="516" y="427"/><ellipse cx="531" cy="443" fill="#ADD1B2" rx="11" ry="11" style="stroke:#181818;stroke-width:1.0;"/><path d="M533.7656,438.875 Q533.9219,438.6563 534.1094,438.5469 Q534.2969,438.4375 534.5156,438.4375 Q534.8906,438.4375 535.125,438.7031 Q535.3594,438.9531 535.3594,439.5625 L535.3594,441.0156 Q535.3594,441.625 535.125,441.8906 Q534.8906,442.1563 534.5156,442.1563 Q534.1719,442.1563 533.9688,441.9531 Q533.7656,441.7656 533.6563,441.25 Q533.6094,440.8906 533.4219,440.7031 Q533.0938,440.3281 532.4844,440.1094 Q531.875,439.8906 531.25,439.8906 Q530.4844,439.8906 529.8438,440.2188 Q529.2188,440.5469 528.7188,441.2969 Q528.2344,442.0469 528.2344,443.0781 L528.2344,444.1719 Q528.2344,445.4063 529.125,446.2344 Q530.0156,447.0469 531.6094,447.0469 Q532.5469,447.0469 533.2031,446.7969 Q533.5938,446.6406 534.0156,446.2031 Q534.2813,445.9375 534.4219,445.8594 Q534.5781,445.7813 534.7813,445.7813 Q535.1094,445.7813 535.3594,446.0469 Q535.625,446.2969 535.625,446.6406 Q535.625,446.9844 535.2813,447.3906 Q534.7813,447.9688 533.9844,448.2969 Q532.9063,448.75 531.6094,448.75 Q530.0938,448.75 528.8906,448.125 Q527.9063,447.625 527.2188,446.5625 Q526.5313,445.4844 526.5313,444.2031 L526.5313,443.0469 Q526.5313,441.7188 527.1406,440.5781 Q527.7656,439.4219 528.8594,438.8125 Q529.9531,438.1875 531.1875,438.1875 Q531.9219,438.1875 532.5625,438.3594 Q533.2188,438.5156 533.7656,438.875 Z " fill="#000000"/><text fill="#000000" font-family="sans-serif" font-size="14" lengthAdjust="spacing" textLength="120" x="545" y="448.7285">AnyOutputChannel</text><line style="stroke:#181818;stroke-width:0.5;" x1="517" x2="667" y1="459" y2="459"/><line style="stroke:#181818;stroke-width:0.5;" x1="517" x2="667" y1="467" y2="467"/></g><!--link clk to i_pre--><g id="link_clk_i_pre"><path codeLine="36" d="M733.94,135.49 C750.32,144.75 768.85,155.84 785,167 C802.54,179.13 821.02,194.02 835.99,206.68 " fill="none" id="clk-to-i_pre" style="stroke:#181818;stroke-width:1.0;"/><polygon fill="#181818" points="839.52,210.54,835.2541,201.6629,835.7107,207.3013,830.0723,207.7579,839.52,210.54" style="stroke:#181818;stroke-width:1.0;"/></g><!--link clk to i_us--><g id="link_clk_i_us"><path codeLine="37" d="M690,135.23 C690,155.08 690,183.71 690,205.04 " fill="none" id="clk-to-i_us" style="stroke:#181818;stroke-width:1.0;"/><polygon fill="#181818" points="690,209.85,694,200.85,690,204.85,686,200.85,690,209.85" style="stroke:#181818;stroke-width:1.0;"/></g><!--link clk to i_hz--><g id="link_clk_i_hz"><path codeLine="38" d="M647.87,135.26 C631.19,144.76 611.99,156.06 595,167 C575.44,179.59 554.29,194.54 537.01,207.12 " fill="none" id="clk-to-i_hz" style="stroke:#181818;stroke-width:1.0;"/><polygon fill="#181818" points="533.25,210.6,542.8757,208.5152,537.2856,207.6481,538.1527,202.0581,533.25,210.6" style="stroke:#181818;stroke-width:1.0;"/></g><!--link i_pre to any--><g id="link_i_pre_any"><path codeLine="39" d="M801.14,255.07 C729.09,275.94 615.24,308.91 550.44,327.68 " fill="none" id="i_pre-to-any" style="stroke:#181818;stroke-width:1.0;"/><polygon fill="none" points="538.39,331.46,545.2656,333.6339,549.9168,328.1233,543.0412,325.9494,538.39,331.46" style="stroke:#181818;stroke-width:1.0;"/></g><!--link i_us to any--><g id="link_i_us_any"><path codeLine="40" d="M648.52,259.26 C619.3,275.65 580.07,297.65 549.41,314.85 " fill="none" id="i_us-to-any" style="stroke:#181818;stroke-width:1.0;"/><polygon fill="none" points="538.28,321.65,545.4699,322.2021,548.7449,315.7775,541.555,315.2255,538.28,321.65" style="stroke:#181818;stroke-width:1.0;"/></g><!--link i_hz to any--><g id="link_i_hz_any"><path codeLine="41" d="M501,259.26 C501,272.66 501,289.79 501,305 " fill="none" id="i_hz-to-any" style="stroke:#181818;stroke-width:1.0;"/><polygon fill="none" points="501,317.79,505,311.79,501,305.79,497,311.79,501,317.79" style="stroke:#181818;stroke-width:1.0;"/></g><!--link ext to any--><g id="link_ext_any"><path codeLine="42" d="M360.5,259.26 C387.67,275.26 423.91,296.6 452.78,313.6 " fill="none" id="ext-to-any" style="stroke:#181818;stroke-width:1.0;"/><polygon fill="none" points="463.65,320.6,460.5115,314.1077,453.3115,314.5077,456.45,321,463.65,320.6" style="stroke:#181818;stroke-width:1.0;"/></g><!--link ms to any--><g id="link_ms_any"><path codeLine="43" d="M214.21,259.39 C286.67,280.26 390.45,310.16 451.27,327.67 " fill="none" id="ms-to-any" style="stroke:#181818;stroke-width:1.0;"/><polygon fill="none" points="463.66,331.53,459.0014,326.0257,452.1287,328.209,456.7873,333.7133,463.66,331.53" style="stroke:#181818;stroke-width:1.0;"/></g><!--link any to ch_in--><g id="link_any_ch_in"><path codeLine="44" d="M481.25,367.26 C466.24,384.94 445.7,409.13 430.7,426.79 " fill="none" id="any-ch_in" style="stroke:#181818;stroke-width:1.0;"/></g><!--link any to ch_out--><g id="link_any_ch_out"><path codeLine="45" d="M520.97,367.26 C536.14,384.94 556.92,409.13 572.08,426.79 " fill="none" id="any-ch_out" style="stroke:#181818;stroke-width:1.0;"/></g><!--SRC=[TP3FQeGm4CRF-XHXUzut4A4L0tieUzZUPGY1YCaeJb9MoxvxHsiJPTb08D_CxylyGN2Q1b1QV3WlYaAE72XByPDd65ELxLL7ugtc8-MIovG58d5wn-asgSfsHNaIG4BPBiyUU-zNw_IuMAMiwxtrWbwF27RzVBEtpJ3g5qWJA5A1Na5cZf2P4rJVdulfkq_09n0JDmlVUktulvQZmx1R570wX2yu15yPGDJsRm-cQV60N8D_PlhWbtKzSjwRE9_BRG59yQ19y41hdcM_jh3aTyBCKV1iyUqImvVVMtT9S1k_]--></g></svg>